<svg xmlns="http://www.w3.org/2000/svg" xmlns:xlink="http://www.w3.org/1999/xlink" width="1080" zoomAndPan="magnify" viewBox="0 0 810 809.999993" height="1080" preserveAspectRatio="xMidYMid meet" version="1.0"><defs><clipPath id="e3d44764ae"><path d="M 37.207031 274 L 728 274 L 728 772.5 L 37.207031 772.5 Z M 37.207031 274 " clip-rule="nonzero"/></clipPath><clipPath id="7d50f8ec7b"><path d="M 37.207031 82 L 728 82 L 728 389 L 37.207031 389 Z M 37.207031 82 " clip-rule="nonzero"/></clipPath></defs><g clip-path="url(#e3d44764ae)"><path fill="#ededee" d="M 722.417969 579.324219 L 700.507812 579.324219 C 697.484375 579.324219 695.03125 581.777344 695.03125 584.800781 L 695.03125 632.042969 L 678.597656 632.042969 C 675.574219 632.042969 673.121094 634.496094 673.121094 637.519531 L 673.121094 641.863281 L 662.167969 641.863281 L 662.167969 608.765625 C 662.167969 605.742188 659.714844 603.285156 656.691406 603.285156 L 640.257812 603.285156 L 640.257812 596.066406 C 640.257812 593.042969 637.804688 590.589844 634.78125 590.589844 L 618.347656 590.589844 L 618.347656 570.664062 C 618.347656 567.640625 615.894531 565.1875 612.871094 565.1875 L 596.4375 565.1875 L 596.4375 555.570312 C 596.4375 552.546875 593.984375 550.089844 590.960938 550.089844 L 574.53125 550.089844 L 574.53125 534.246094 C 574.53125 531.222656 572.078125 528.769531 569.054688 528.769531 L 547.144531 528.769531 C 544.121094 528.769531 541.667969 531.222656 541.667969 534.246094 L 541.667969 550.097656 L 525.257812 550.097656 C 522.234375 550.097656 519.777344 552.550781 519.777344 555.574219 L 519.777344 625.097656 L 508.804688 625.097656 L 508.804688 592.714844 C 508.804688 589.691406 506.347656 587.238281 503.324219 587.238281 L 481.417969 587.238281 C 478.394531 587.238281 475.9375 589.691406 475.9375 592.714844 L 475.9375 616.953125 L 459.507812 616.953125 C 456.484375 616.953125 454.03125 619.40625 454.03125 622.429688 L 454.03125 684.597656 L 433.488281 684.597656 L 463.386719 484.03125 C 464.167969 480.234375 466.859375 477.308594 470.578125 476.203125 C 474.257812 475.113281 478.0625 476.078125 480.757812 478.789062 C 488.492188 486.566406 496.453125 489.699219 504.398438 488.132812 C 516.964844 485.628906 521.859375 464.398438 528.0625 437.523438 C 534.742188 408.558594 543.058594 372.511719 560.628906 372.511719 C 575.40625 372.511719 581.503906 402.257812 586.875 428.507812 C 593.175781 459.273438 599.691406 491.089844 622.050781 491.089844 C 648.035156 491.089844 651.605469 448.828125 654.75 411.539062 C 656.175781 394.664062 658.5625 366.425781 663.828125 364.324219 C 666.691406 363.183594 668.820312 363.566406 670.984375 365.609375 C 674.648438 369.082031 679.566406 370.640625 684.476562 369.851562 C 689.160156 369.117188 693.152344 366.304688 695.425781 362.15625 C 702.773438 348.734375 705.222656 334.273438 707.386719 321.519531 C 710.289062 304.375 712.585938 290.828125 724.804688 284.914062 C 727.53125 283.59375 728.667969 280.324219 727.347656 277.601562 C 726.03125 274.878906 722.75 273.742188 720.035156 275.058594 C 702.730469 283.433594 699.746094 301.050781 696.589844 319.695312 C 694.476562 332.183594 692.285156 345.097656 685.824219 356.894531 C 685 358.398438 683.714844 358.890625 682.777344 359.039062 C 681.234375 359.269531 679.695312 358.769531 678.515625 357.664062 C 673.246094 352.671875 666.597656 351.4375 659.769531 354.15625 C 648.757812 358.554688 646.636719 377.507812 643.839844 410.625 C 641.359375 439.960938 637.96875 480.140625 622.050781 480.140625 C 608.632812 480.140625 602.769531 451.542969 597.605469 426.316406 C 591.089844 394.480469 584.34375 361.5625 560.628906 361.5625 C 534.34375 361.5625 525.332031 400.609375 517.386719 435.0625 C 513.601562 451.472656 507.882812 476.273438 502.257812 477.390625 C 498.148438 478.21875 493.515625 476.085938 488.527344 471.070312 C 482.9375 465.449219 475.0625 463.441406 467.445312 465.707031 C 459.914062 467.953125 454.242188 474.121094 452.601562 482.117188 L 422.414062 684.601562 L 410.136719 684.601562 L 383.425781 486.839844 C 383.097656 484.425781 381.214844 482.507812 378.800781 482.15625 C 376.394531 481.800781 374.023438 483.082031 373.015625 485.304688 L 365.066406 502.761719 L 344.390625 393.277344 C 343.976562 391.078125 342.265625 389.347656 340.070312 388.921875 C 337.867188 388.484375 335.632812 389.4375 334.417969 391.316406 L 324.324219 406.871094 L 319.125 391.851562 C 318.40625 389.769531 316.507812 388.320312 314.308594 388.175781 C 312.113281 388.011719 310.039062 389.21875 309.050781 391.195312 L 302.039062 405.21875 L 289.476562 364.125 C 288.746094 361.738281 286.472656 360.175781 284.007812 360.253906 C 281.515625 360.359375 279.414062 362.128906 278.882812 364.566406 L 255.257812 473.367188 L 247.625 461.320312 C 246.496094 459.539062 244.46875 458.585938 242.355469 458.816406 C 240.261719 459.0625 238.492188 460.5 237.8125 462.488281 C 236.511719 466.292969 231.207031 477.167969 224.191406 477.167969 C 216.25 477.167969 209.863281 449.183594 204.726562 426.699219 C 195.292969 385.382812 184.601562 338.554688 151.355469 338.554688 C 104.675781 338.554688 93.902344 401.628906 82.496094 468.410156 C 73.824219 519.132812 64.867188 571.589844 39.765625 592.140625 C 37.421875 594.058594 37.082031 597.507812 38.992188 599.847656 C 40.917969 602.191406 44.367188 602.53125 46.699219 600.617188 C 74.96875 577.472656 84.28125 522.96875 93.285156 470.253906 C 103.894531 408.164062 113.914062 349.511719 151.351562 349.511719 C 175.867188 349.511719 185.945312 393.664062 194.039062 429.140625 C 201.566406 462.097656 207.503906 488.125 224.179688 488.125 C 233.371094 488.125 239.714844 481.421875 243.566406 475.398438 L 253.144531 490.507812 C 254.332031 492.382812 256.511719 493.347656 258.730469 492.972656 C 260.917969 492.585938 262.652344 490.914062 263.125 488.746094 L 285.132812 387.394531 L 295.566406 421.515625 C 296.222656 423.660156 298.113281 425.1875 300.347656 425.375 C 302.582031 425.585938 304.703125 424.371094 305.703125 422.367188 L 313.023438 407.726562 L 317.632812 421.046875 C 318.320312 423.023438 320.070312 424.4375 322.148438 424.695312 C 324.230469 424.953125 326.273438 423.992188 327.40625 422.242188 L 336.164062 408.746094 L 357.507812 521.773438 C 357.953125 524.117188 359.863281 525.910156 362.230469 526.195312 C 364.601562 526.46875 366.886719 525.195312 367.871094 523.027344 L 375.113281 507.132812 L 399.078125 684.597656 L 377.347656 684.597656 L 377.347656 591.539062 C 377.347656 588.515625 374.894531 586.058594 371.871094 586.058594 L 355.4375 586.058594 L 355.4375 569.78125 C 355.4375 566.757812 352.984375 564.304688 349.960938 564.304688 L 328.050781 564.304688 C 325.027344 564.304688 322.574219 566.757812 322.574219 569.78125 L 322.574219 580.523438 L 311.621094 580.523438 L 311.621094 563.789062 C 311.621094 560.765625 309.167969 558.3125 306.144531 558.3125 L 284.234375 558.3125 C 281.210938 558.3125 278.757812 560.765625 278.757812 563.789062 L 278.757812 634.902344 L 262.324219 634.902344 C 259.300781 634.902344 256.847656 637.355469 256.847656 640.378906 L 256.847656 651.722656 L 245.894531 651.722656 L 245.894531 642.828125 C 245.894531 639.804688 243.4375 637.351562 240.414062 637.351562 L 223.984375 637.351562 L 223.984375 563.789062 C 223.984375 560.765625 221.53125 558.3125 218.507812 558.3125 L 202.074219 558.3125 L 202.074219 547.660156 C 202.074219 544.636719 199.621094 542.183594 196.597656 542.183594 L 180.164062 542.183594 L 180.164062 537.300781 C 180.164062 534.277344 177.710938 531.824219 174.6875 531.824219 L 158.257812 531.824219 L 158.257812 519.453125 C 158.257812 516.429688 155.800781 513.972656 152.777344 513.972656 L 130.871094 513.972656 C 127.847656 513.972656 125.394531 516.429688 125.394531 519.453125 L 125.394531 559.65625 L 108.960938 559.65625 C 105.9375 559.65625 103.484375 562.109375 103.484375 565.132812 L 103.484375 602.558594 L 87.050781 602.558594 C 84.027344 602.558594 81.574219 605.011719 81.574219 608.035156 L 81.574219 642.398438 L 65.144531 642.398438 C 62.121094 642.398438 59.664062 644.855469 59.664062 647.878906 L 59.664062 651.734375 L 43.234375 651.734375 C 40.210938 651.734375 37.757812 654.1875 37.757812 657.210938 L 37.757812 690.074219 C 37.757812 693.097656 40.210938 695.550781 43.234375 695.550781 L 400.554688 695.550781 L 410.273438 767.5 C 410.640625 770.207031 412.933594 772.226562 415.660156 772.246094 C 415.671875 772.246094 415.683594 772.246094 415.699219 772.246094 C 418.410156 772.246094 420.71875 770.261719 421.117188 767.574219 L 431.851562 695.550781 L 722.417969 695.550781 C 725.441406 695.550781 727.894531 693.097656 727.894531 690.074219 L 727.894531 584.800781 C 727.894531 581.777344 725.441406 579.324219 722.417969 579.324219 Z M 366.394531 597.007812 L 366.394531 684.589844 L 355.4375 684.589844 L 355.4375 597.007812 Z M 344.484375 575.253906 L 344.484375 684.589844 L 333.53125 684.589844 L 333.53125 575.253906 Z M 322.574219 591.472656 L 322.574219 684.585938 L 311.621094 684.585938 L 311.621094 591.472656 Z M 289.710938 569.265625 L 300.664062 569.265625 L 300.664062 585.957031 C 300.664062 585.972656 300.660156 585.984375 300.660156 585.996094 C 300.660156 586.003906 300.664062 586.023438 300.664062 586.039062 L 300.664062 684.589844 L 289.710938 684.589844 Z M 267.800781 645.855469 L 278.757812 645.855469 L 278.757812 684.585938 L 267.800781 684.585938 Z M 256.847656 662.675781 L 256.847656 684.585938 L 245.894531 684.585938 L 245.894531 662.675781 Z M 234.9375 648.308594 L 234.9375 684.589844 L 223.984375 684.589844 L 223.984375 648.308594 Z M 213.03125 569.265625 L 213.03125 684.589844 L 202.074219 684.589844 L 202.074219 569.265625 Z M 191.121094 553.132812 L 191.121094 684.585938 L 180.164062 684.585938 L 180.164062 553.132812 Z M 169.210938 542.773438 L 169.210938 684.585938 L 158.257812 684.585938 L 158.257812 542.773438 Z M 136.347656 524.921875 L 147.300781 524.921875 L 147.300781 684.585938 L 136.347656 684.585938 Z M 114.4375 570.605469 L 125.394531 570.605469 L 125.394531 684.589844 L 114.4375 684.589844 Z M 92.527344 613.507812 L 103.484375 613.507812 L 103.484375 684.589844 L 92.527344 684.589844 Z M 70.621094 653.347656 L 81.574219 653.347656 L 81.574219 684.589844 L 70.621094 684.589844 Z M 59.664062 662.675781 L 59.664062 684.585938 L 48.710938 684.585938 L 48.710938 662.675781 Z M 415.96875 727.816406 L 411.609375 695.546875 L 420.777344 695.546875 Z M 705.984375 590.277344 L 716.941406 590.277344 L 716.941406 684.585938 L 705.984375 684.585938 Z M 684.074219 642.996094 L 695.03125 642.996094 L 695.03125 684.585938 L 684.074219 684.585938 Z M 673.121094 652.824219 L 673.121094 684.589844 L 662.167969 684.589844 L 662.167969 652.824219 Z M 651.210938 614.242188 L 651.210938 684.585938 L 640.257812 684.585938 L 640.257812 614.242188 Z M 629.304688 601.542969 L 629.304688 684.589844 L 618.347656 684.589844 L 618.347656 601.542969 Z M 607.394531 576.140625 L 607.394531 684.585938 L 596.4375 684.585938 L 596.4375 576.140625 Z M 585.484375 561.046875 L 585.484375 684.585938 L 574.53125 684.585938 L 574.53125 561.046875 Z M 563.574219 539.722656 L 563.574219 684.589844 L 552.621094 684.589844 L 552.621094 555.679688 C 552.621094 555.640625 552.644531 555.605469 552.644531 555.574219 C 552.644531 555.542969 552.621094 555.503906 552.621094 555.464844 L 552.621094 539.722656 Z M 541.667969 561.046875 L 541.667969 684.585938 L 530.734375 684.585938 L 530.734375 630.597656 C 530.734375 630.585938 530.738281 630.578125 530.738281 630.570312 C 530.738281 630.558594 530.734375 630.550781 530.734375 630.542969 L 530.734375 561.046875 Z M 519.777344 636.046875 L 519.777344 684.585938 L 508.804688 684.585938 L 508.804688 636.046875 Z M 486.894531 598.1875 L 497.847656 598.1875 L 497.847656 684.585938 L 486.894531 684.585938 Z M 464.984375 627.902344 L 475.9375 627.902344 L 475.9375 684.589844 L 464.984375 684.589844 Z M 464.984375 627.902344 " fill-opacity="1" fill-rule="nonzero"/></g><g clip-path="url(#7d50f8ec7b)"><path fill="#ededee" d="M 40.835938 387.535156 C 41.597656 387.910156 42.417969 388.089844 43.234375 388.089844 C 44.433594 388.089844 45.621094 387.695312 46.601562 386.929688 L 165.34375 294.234375 L 230.617188 326.707031 C 232.550781 327.667969 234.878906 327.402344 236.546875 326.019531 L 288.359375 283.113281 L 317.460938 302.398438 C 319.414062 303.691406 321.972656 303.597656 323.828125 302.167969 L 346.863281 284.421875 L 425.367188 349.507812 C 427.496094 351.269531 430.621094 351.171875 432.636719 349.261719 L 514.292969 271.632812 L 536.8125 271.632812 C 538.226562 271.632812 539.585938 271.082031 540.609375 270.101562 L 573.023438 238.964844 L 596.511719 238.964844 C 597.96875 238.964844 599.363281 238.382812 600.394531 237.355469 L 681.6875 155.671875 L 691.148438 178.074219 C 692.050781 180.210938 694.148438 181.5625 696.5 181.414062 C 698.804688 181.289062 700.785156 179.722656 701.445312 177.503906 L 727.664062 89.144531 C 728.246094 87.195312 727.691406 85.085938 726.238281 83.667969 C 724.78125 82.25 722.65625 81.746094 720.730469 82.375 L 633.027344 110.71875 C 630.824219 111.433594 629.308594 113.449219 629.238281 115.757812 C 629.167969 118.070312 630.550781 120.179688 632.703125 121.023438 L 653.769531 129.320312 L 585.359375 198.050781 L 561.949219 198.050781 C 560.535156 198.050781 559.175781 198.597656 558.152344 199.578125 L 525.738281 230.714844 L 503.230469 230.714844 C 501.832031 230.714844 500.476562 231.257812 499.457031 232.222656 L 428.578125 299.609375 L 351.089844 235.910156 C 349.117188 234.292969 346.292969 234.242188 344.265625 235.800781 L 318.910156 255.335938 L 289.738281 235.5625 C 287.730469 234.199219 285.042969 234.316406 283.171875 235.882812 L 228.367188 281.273438 L 164.074219 248.460938 C 162.183594 247.503906 159.894531 247.710938 158.210938 249.027344 L 39.863281 341.417969 C 38.535156 342.457031 37.757812 344.046875 37.757812 345.734375 L 37.757812 382.613281 C 37.757812 384.703125 38.949219 386.617188 40.835938 387.535156 Z M 48.710938 348.40625 L 162.207031 259.800781 L 226.597656 292.664062 C 228.535156 293.65625 230.890625 293.398438 232.578125 292 L 286.996094 246.933594 L 316.039062 266.625 C 318 267.957031 320.585938 267.875 322.453125 266.429688 L 347.496094 247.132812 L 425.363281 311.144531 C 427.503906 312.902344 430.609375 312.792969 432.613281 310.882812 L 505.417969 241.664062 L 527.941406 241.664062 C 529.355469 241.664062 530.710938 241.117188 531.734375 240.136719 L 564.152344 209 L 587.636719 209 C 589.09375 209 590.492188 208.417969 591.519531 207.386719 L 667.414062 131.140625 C 668.710938 129.828125 669.269531 127.957031 668.894531 126.15625 C 668.515625 124.347656 667.253906 122.851562 665.535156 122.179688 L 650.945312 116.433594 L 714.199219 95.984375 L 695.289062 159.71875 L 688.605469 143.890625 C 687.894531 142.207031 686.394531 140.992188 684.601562 140.640625 C 682.816406 140.28125 680.964844 140.859375 679.675781 142.152344 L 594.230469 228.003906 L 570.816406 228.003906 C 569.402344 228.003906 568.046875 228.550781 567.019531 229.53125 L 534.605469 260.671875 L 512.101562 260.671875 C 510.699219 260.671875 509.34375 261.214844 508.328125 262.175781 L 428.617188 337.96875 L 350.488281 273.1875 C 348.527344 271.558594 345.683594 271.503906 343.644531 273.066406 L 320.253906 291.097656 L 291.027344 271.730469 C 289.019531 270.398438 286.363281 270.535156 284.507812 272.074219 L 232.308594 315.308594 L 167.136719 282.894531 C 165.25 281.957031 162.988281 282.179688 161.324219 283.480469 L 48.710938 371.390625 Z M 48.710938 348.40625 " fill-opacity="1" fill-rule="nonzero"/></g></svg>