<svg xmlns="http://www.w3.org/2000/svg" xmlns:xlink="http://www.w3.org/1999/xlink" width="1080" zoomAndPan="magnify" viewBox="0 0 810 809.999993" height="1080" preserveAspectRatio="xMidYMid meet" version="1.0"><defs><clipPath id="e168e6af91"><path d="M 623 542 L 749 542 L 749 701.800781 L 623 701.800781 Z M 623 542 " clip-rule="nonzero"/></clipPath><clipPath id="9d8386acd1"><path d="M 681 276 L 769.5 276 L 769.5 319 L 681 319 Z M 681 276 " clip-rule="nonzero"/></clipPath><clipPath id="c0bb29aa2d"><path d="M 40.5 268 L 130 268 L 130 315 L 40.5 315 Z M 40.5 268 " clip-rule="nonzero"/></clipPath></defs><path fill="#586580" d="M 149.085938 234.054688 C 151.085938 232.472656 154.546875 232.730469 154.546875 232.730469 L 614.816406 232.335938 C 614.816406 232.335938 617.894531 232.675781 619.867188 234.488281 C 621.832031 236.300781 622.699219 239.589844 622.699219 239.589844 L 622.40625 534.375 C 622.40625 534.375 621.761719 538.207031 620.179688 540.34375 C 618.589844 542.488281 616.0625 542.9375 616.0625 542.9375 L 146.5625 542.9375 L 146.5625 239.054688 C 146.5625 239.054688 147.09375 235.636719 149.085938 234.054688 " fill-opacity="1" fill-rule="evenodd"/><path fill="#efefef" d="M 167.757812 244.378906 C 169.386719 242.585938 172.613281 241.898438 172.613281 241.898438 L 604.289062 241.898438 C 604.289062 241.898438 606.8125 242.273438 608.335938 244.078125 C 609.867188 245.886719 610.394531 249.125 610.394531 249.125 L 610.394531 526.410156 C 610.394531 526.410156 609.480469 529.320312 607.558594 531.074219 C 605.644531 532.824219 602.71875 533.417969 602.71875 533.417969 L 166.085938 533.417969 L 166.085938 249.082031 C 166.085938 249.082031 166.128906 246.175781 167.757812 244.378906 " fill-opacity="1" fill-rule="evenodd"/><path fill="#ffd4af" d="M 139.085938 474.46875 C 139.085938 474.46875 143.675781 467.039062 148.152344 464.929688 C 153.746094 462.304688 159.941406 464.992188 165.746094 466.210938 C 169.039062 466.902344 179.050781 455.152344 186.960938 455.78125 C 190.84375 456.082031 197.347656 462.304688 201.675781 462.070312 C 208.226562 461.710938 216.941406 453.699219 226.160156 452.402344 C 236.53125 450.941406 240.039062 465.199219 246.054688 461.722656 C 251.796875 458.402344 263.222656 433.617188 273.121094 413.453125 C 281.390625 396.605469 289.554688 375.957031 296.082031 366.15625 C 300.582031 359.398438 304.433594 360.203125 306.4375 361.222656 C 315.914062 366.03125 310.042969 385.707031 300.789062 413.480469 C 292.886719 437.222656 282.175781 463.421875 274.257812 483.039062 C 268.136719 498.210938 263.664062 510.035156 263.664062 510.035156 C 263.664062 510.035156 268.546875 540.730469 262.570312 553.222656 C 257.035156 564.777344 247.996094 573.984375 239.1875 582.039062 C 227.210938 592.992188 214.792969 601.640625 204.1875 609.582031 C 191.472656 619.101562 182.722656 634.238281 182.722656 634.238281 C 182.722656 634.238281 172.550781 620.375 147.792969 609.714844 C 127.570312 601.007812 102.488281 597.972656 102.488281 597.972656 C 102.488281 597.972656 107.054688 588.59375 109.492188 576.671875 C 112.191406 563.4375 113 546.792969 117.8125 530.546875 C 126.964844 499.667969 139.085938 474.46875 139.085938 474.46875 " fill-opacity="1" fill-rule="evenodd"/><path fill="#ffd4af" d="M 599.699219 329.414062 C 602.195312 324.375 607.867188 320.992188 612.496094 323.234375 C 616.308594 325.082031 622.140625 334.8125 622.140625 334.8125 L 622.667969 323.058594 C 622.667969 323.058594 646.167969 338.1875 665.632812 354.789062 C 680.859375 367.785156 692.828125 381.722656 694.316406 389.761719 C 695.957031 398.621094 695.0625 410.097656 694.777344 420.050781 C 694.089844 443.917969 690.785156 467.957031 690.089844 490.597656 C 689.203125 519.398438 696.390625 543.363281 696.390625 543.363281 C 696.390625 543.363281 677.191406 545.300781 661.050781 551.203125 C 644.890625 557.101562 631.792969 566.964844 631.792969 566.964844 C 631.792969 566.964844 628.539062 545.625 624.609375 532.976562 C 620.808594 520.75 616.425781 517.570312 610.652344 496.152344 C 609.34375 491.300781 608.355469 481.773438 608.292969 473.933594 C 608.15625 453.582031 611.945312 431.78125 609.648438 412.53125 C 607.03125 390.546875 600.453125 376.367188 597.871094 362.566406 C 595.769531 351.34375 596.265625 336.371094 599.699219 329.414062 " fill-opacity="1" fill-rule="evenodd"/><path fill="#9aa6be" d="M 91.226562 602.125 C 91.226562 602.125 94.964844 597.804688 102.191406 597.863281 C 113.378906 597.953125 131.460938 603.117188 145.648438 609.117188 C 158.550781 614.566406 173.074219 623.144531 179.9375 630.417969 C 185.492188 636.316406 184.652344 641.621094 184.652344 641.621094 L 156.167969 695.21875 C 156.167969 695.21875 127.421875 697.652344 100.472656 691.867188 C 73.527344 686.097656 48.359375 672.101562 48.359375 672.101562 L 91.226562 602.125 " fill-opacity="1" fill-rule="evenodd"/><path fill="#9aa6be" d="M 624.90625 578.023438 C 624.90625 578.023438 625.441406 574.050781 631.210938 568.976562 C 638.796875 562.296875 653.277344 553.722656 665.792969 549.757812 C 679.292969 545.484375 694.003906 543.011719 703.378906 544.5 C 709.316406 545.4375 713.117188 550.105469 713.117188 550.105469 C 713.117188 550.105469 723.914062 587.242188 732.183594 618.925781 C 740.453125 650.613281 746.199219 676.835938 746.199219 676.835938 C 746.199219 676.835938 724.605469 692.351562 697.273438 697.863281 C 660.371094 705.308594 638.417969 699.082031 638.417969 699.082031 C 638.417969 699.082031 634.492188 670.101562 631.109375 639.84375 C 627.738281 609.578125 624.90625 578.023438 624.90625 578.023438 " fill-opacity="1" fill-rule="evenodd"/><path fill="#80c254" d="M 254.136719 110.828125 C 254.136719 110.828125 284.730469 104.9375 312.28125 119.898438 C 342.210938 136.148438 353.320312 166.261719 353.320312 166.261719 L 270.640625 197.5625 L 254.136719 110.828125 " fill-opacity="1" fill-rule="evenodd"/><path fill="#febc42" d="M 185.378906 176.585938 C 189.992188 161.410156 200.332031 141.765625 213.214844 130.867188 C 232.035156 114.945312 254.148438 110.9375 254.148438 110.9375 L 270.613281 197.675781 L 208.746094 260.265625 C 208.746094 260.265625 196.222656 249.03125 188.617188 228.984375 C 182.96875 214.082031 180.535156 192.507812 185.378906 176.585938 " fill-opacity="1" fill-rule="evenodd"/><path fill="#e2453e" d="M 269.953125 198.203125 L 353.054688 166.15625 C 353.054688 166.15625 361.5625 189.191406 357.351562 213.164062 C 353.367188 235.886719 337.164062 259.285156 319.585938 270.660156 C 302.101562 281.980469 274.964844 288.777344 252.199219 283.464844 C 227.984375 277.816406 208.644531 259.644531 208.644531 259.644531 L 269.953125 198.203125 " fill-opacity="1" fill-rule="evenodd"/><path fill="#ff6464" d="M 212.445312 395.191406 L 225.476562 395.191406 L 225.476562 424.164062 L 212.445312 424.164062 L 212.445312 395.191406 " fill-opacity="1" fill-rule="evenodd"/><path fill="#64a058" d="M 273.53125 365.027344 L 286.742188 365.027344 L 287.042969 383.238281 L 281.726562 395.140625 L 273.867188 411.128906 L 273.53125 365.027344 " fill-opacity="1" fill-rule="evenodd"/><path fill="#ff7538" d="M 302.136719 338.835938 L 314.929688 338.835938 L 314.929688 424.351562 L 302.136719 424.351562 L 302.136719 408.351562 C 302.136719 408.351562 310.023438 385.011719 310.765625 373.0625 C 311.636719 358.910156 302.136719 360.457031 302.136719 360.457031 L 302.136719 338.835938 " fill-opacity="1" fill-rule="evenodd"/><path fill="#000000" d="M 631.484375 568.667969 C 630.726562 568.667969 630.074219 568.085938 630 567.3125 C 628.734375 553.675781 626.480469 542.203125 623.289062 533.207031 C 621.210938 527.34375 619.074219 522.378906 617.011719 517.582031 C 612.730469 507.625 609.035156 499.03125 607.285156 486.023438 C 605.757812 474.65625 606.800781 460.578125 607.71875 448.164062 C 608.09375 443.171875 608.4375 438.453125 608.625 434.089844 C 609.011719 424.921875 608.328125 415.144531 606.476562 403.332031 C 605.109375 394.585938 602.769531 386.691406 600.707031 379.722656 C 598.75 373.125 596.898438 366.878906 596.125 360.875 C 594.3125 346.820312 595.105469 335.132812 598.300781 328.8125 C 600.929688 323.617188 604.859375 320.785156 609.039062 321.027344 C 613.425781 321.28125 619.957031 325.140625 626.195312 342.074219 C 631.074219 355.34375 634.652344 368.195312 637.8125 379.539062 C 643.144531 398.710938 647.75 415.265625 656.488281 426.664062 C 656.996094 427.320312 656.871094 428.253906 656.214844 428.757812 C 655.554688 429.261719 654.621094 429.136719 654.117188 428.484375 C 645.023438 416.625 640.347656 399.8125 634.929688 380.34375 C 631.792969 369.050781 628.226562 356.257812 623.390625 343.105469 C 617.417969 326.882812 611.726562 324.183594 608.871094 324.011719 C 606.023438 323.855469 603.003906 326.148438 600.964844 330.164062 C 598.082031 335.878906 597.371094 347.21875 599.085938 360.492188 C 599.832031 366.265625 601.648438 372.390625 603.566406 378.875 C 605.664062 385.925781 608.03125 393.925781 609.433594 402.871094 C 611.3125 414.882812 612.007812 424.84375 611.609375 434.210938 C 611.425781 438.625 611.074219 443.367188 610.703125 448.378906 C 609.792969 460.65625 608.761719 474.566406 610.246094 485.625 C 611.945312 498.222656 615.5625 506.644531 619.757812 516.398438 C 621.84375 521.242188 623.996094 526.25 626.109375 532.207031 C 629.378906 541.433594 631.691406 553.152344 632.976562 567.03125 C 633.058594 567.851562 632.453125 568.582031 631.628906 568.65625 C 631.582031 568.667969 631.53125 568.667969 631.484375 568.667969 " fill-opacity="1" fill-rule="nonzero"/><path fill="#000000" d="M 647.117188 394.050781 C 646.453125 394.050781 645.84375 393.597656 645.671875 392.917969 C 643.78125 385.324219 638.148438 375.558594 632.289062 369.699219 C 631.707031 369.121094 631.707031 368.167969 632.289062 367.585938 C 632.875 367 633.820312 367 634.40625 367.585938 C 640.597656 373.785156 646.5625 384.132812 648.570312 392.1875 C 648.777344 392.992188 648.285156 393.800781 647.484375 394.007812 C 647.359375 394.035156 647.246094 394.050781 647.117188 394.050781 " fill-opacity="1" fill-rule="nonzero"/><path fill="#000000" d="M 696.46875 544.902344 C 695.796875 544.902344 695.183594 544.441406 695.015625 543.753906 C 688.160156 514.632812 688.195312 505.664062 689.414062 475.980469 C 689.992188 461.804688 691.117188 448.652344 692.105469 437.050781 C 694.117188 413.5 695.707031 394.890625 690.945312 386.105469 C 678.957031 363.96875 632.253906 329.914062 622.128906 324.101562 C 621.410156 323.691406 621.164062 322.773438 621.574219 322.0625 C 621.984375 321.34375 622.898438 321.09375 623.621094 321.507812 C 633.890625 327.40625 681.3125 362.035156 693.570312 384.679688 C 698.757812 394.25 697.214844 412.3125 695.085938 437.308594 C 694.101562 448.875 692.976562 461.992188 692.398438 476.097656 C 691.195312 505.464844 691.160156 514.335938 697.933594 543.0625 C 698.121094 543.871094 697.621094 544.675781 696.816406 544.863281 C 696.695312 544.890625 696.589844 544.902344 696.46875 544.902344 " fill-opacity="1" fill-rule="nonzero"/><g clip-path="url(#e168e6af91)"><path fill="#000000" d="M 637.925781 701.800781 C 637.210938 701.800781 636.578125 701.28125 636.457031 700.546875 C 634.308594 687.652344 625.015625 598.675781 623.4375 578.953125 C 622.542969 567.738281 647.171875 554.457031 662.917969 548.726562 C 681.574219 541.921875 700.757812 540.351562 709.550781 544.898438 C 712.359375 546.339844 714.128906 548.355469 714.8125 550.875 C 716.273438 556.144531 717.910156 561.90625 719.78125 568.421875 C 726.421875 591.625 735.511719 623.398438 748.25 677.15625 C 748.4375 677.960938 747.941406 678.761719 747.140625 678.964844 C 746.335938 679.144531 745.527344 678.648438 745.339844 677.851562 C 732.617188 624.15625 723.53125 592.421875 716.902344 569.25 C 715.035156 562.714844 713.382812 556.953125 711.9375 551.667969 C 711.476562 549.984375 710.210938 548.601562 708.179688 547.550781 C 700.199219 543.425781 681.59375 545.101562 663.929688 551.535156 C 647.761719 557.425781 625.734375 570.148438 626.417969 578.71875 C 627.941406 597.855469 637.339844 687.640625 639.40625 700.054688 C 639.542969 700.871094 638.992188 701.640625 638.171875 701.777344 C 638.09375 701.789062 638.011719 701.800781 637.925781 701.800781 " fill-opacity="1" fill-rule="nonzero"/></g><path fill="#000000" d="M 102.128906 599.378906 C 101.84375 599.378906 101.558594 599.296875 101.304688 599.128906 C 100.613281 598.667969 100.433594 597.738281 100.894531 597.046875 C 106.34375 588.894531 108.523438 574.71875 110.835938 559.710938 C 112.808594 546.9375 115.039062 532.464844 119.613281 519.46875 L 120.429688 517.136719 C 130.21875 489.316406 137.292969 469.222656 145.941406 464.402344 C 153.601562 460.140625 158.761719 462.121094 162.527344 463.574219 C 164.765625 464.433594 165.980469 464.863281 167 464.242188 C 168.070312 463.601562 169.277344 462.644531 170.558594 461.636719 C 174.488281 458.550781 179.375 454.703125 185.933594 454.699219 C 190.652344 454.699219 194.058594 456.824219 196.789062 458.527344 C 199.070312 459.941406 200.867188 461.0625 202.703125 460.6875 C 204.398438 460.339844 206.78125 458.992188 209.535156 457.4375 C 214.308594 454.742188 220.238281 451.398438 226.515625 451.089844 C 231.769531 450.828125 235.746094 454.339844 238.941406 457.164062 C 242.605469 460.394531 244.273438 461.5625 246.101562 460.089844 C 250.457031 456.554688 256.421875 444.09375 262.738281 430.886719 C 265.480469 425.144531 268.324219 419.207031 271.234375 413.5625 C 276.042969 404.222656 279.949219 395.410156 283.386719 387.632812 C 291.769531 368.699219 297.300781 356.191406 306.226562 359.699219 C 317.894531 364.300781 311.148438 387.042969 303.234375 409.9375 C 298.527344 423.578125 293.871094 435.683594 288.953125 448.503906 C 286.617188 454.566406 284.191406 460.878906 281.605469 467.757812 C 277.25 479.328125 256.4375 531.722656 248.457031 549.558594 C 248.121094 550.320312 247.234375 550.65625 246.480469 550.316406 C 245.730469 549.980469 245.394531 549.089844 245.730469 548.339844 C 253.6875 530.546875 274.453125 478.257812 278.804688 466.703125 C 281.394531 459.824219 283.828125 453.496094 286.15625 447.433594 C 291.070312 434.636719 295.71875 422.558594 300.410156 408.964844 C 305.914062 393.050781 315.109375 366.417969 305.128906 362.480469 C 298.875 360.015625 293.804688 371.484375 286.121094 388.839844 C 282.664062 396.65625 278.742188 405.515625 273.886719 414.929688 C 271 420.535156 268.164062 426.453125 265.429688 432.179688 C 258.6875 446.28125 252.867188 458.457031 247.972656 462.414062 C 244.003906 465.621094 240.261719 462.320312 236.964844 459.410156 C 234.027344 456.8125 230.695312 453.878906 226.664062 454.078125 C 221.09375 454.355469 215.5 457.507812 211.011719 460.042969 C 208.027344 461.722656 205.460938 463.175781 203.300781 463.613281 C 200.308594 464.222656 197.832031 462.691406 195.21875 461.0625 C 192.546875 459.410156 189.792969 457.695312 185.933594 457.695312 C 180.40625 457.695312 176.15625 461.039062 172.410156 463.992188 C 171.054688 465.0625 169.765625 466.066406 168.542969 466.804688 C 166.21875 468.203125 163.90625 467.3125 161.453125 466.367188 C 157.878906 464.988281 153.835938 463.425781 147.394531 467.011719 C 139.730469 471.285156 132.457031 491.953125 123.253906 518.128906 L 122.433594 520.460938 C 117.949219 533.195312 115.835938 546.910156 113.792969 560.171875 C 111.328125 576.175781 109.195312 590.011719 103.375 598.710938 C 103.085938 599.144531 102.613281 599.378906 102.128906 599.378906 " fill-opacity="1" fill-rule="nonzero"/><path fill="#000000" d="M 182.972656 635.746094 C 182.722656 635.746094 182.460938 635.679688 182.222656 635.542969 C 181.511719 635.125 181.269531 634.207031 181.6875 633.496094 C 192.183594 615.460938 208.152344 603.941406 219.816406 595.53125 L 222.175781 593.835938 C 245.222656 577.117188 258.617188 560.382812 261.308594 551.910156 C 264.570312 541.636719 264.832031 526.339844 262.023438 509.960938 C 261.886719 509.144531 262.433594 508.371094 263.25 508.234375 C 264.0625 508.097656 264.832031 508.636719 264.976562 509.453125 C 267.855469 526.292969 267.554688 542.101562 264.160156 552.816406 C 261.324219 561.746094 247.523438 579.132812 223.929688 596.25 L 221.566406 597.960938 C 210.117188 606.214844 194.445312 617.515625 184.265625 635 C 183.992188 635.480469 183.488281 635.746094 182.972656 635.746094 " fill-opacity="1" fill-rule="nonzero"/><path fill="#000000" d="M 155.5625 697.304688 C 155.316406 697.304688 155.0625 697.242188 154.832031 697.109375 C 154.117188 696.710938 153.855469 695.800781 154.257812 695.082031 C 161.957031 681.242188 168.660156 668.628906 174.042969 658.484375 C 177.414062 652.136719 180.332031 646.65625 182.707031 642.339844 C 183.417969 641.050781 183.457031 639.5625 182.832031 637.792969 C 179.875 629.460938 162.734375 617.34375 142.070312 608.980469 C 125.199219 602.148438 97.941406 595.527344 93.046875 603.023438 C 80.28125 622.539062 49.203125 673.339844 48.894531 673.851562 C 48.460938 674.554688 47.539062 674.773438 46.839844 674.347656 C 46.136719 673.910156 45.910156 672.992188 46.34375 672.292969 C 46.65625 671.777344 77.757812 620.945312 90.539062 601.390625 C 97.53125 590.683594 130.917969 601.234375 143.191406 606.210938 C 160.96875 613.398438 181.835938 626.042969 185.652344 636.789062 C 186.5625 639.375 186.453125 641.730469 185.324219 643.78125 C 182.957031 648.082031 180.050781 653.550781 176.6875 659.886719 C 171.292969 670.039062 164.582031 682.679688 156.867188 696.535156 C 156.59375 697.03125 156.085938 697.304688 155.5625 697.304688 " fill-opacity="1" fill-rule="nonzero"/><path fill="#000000" d="M 614.035156 544.195312 L 265.339844 544.195312 C 264.515625 544.195312 263.820312 543.523438 263.820312 542.703125 C 263.820312 541.878906 264.460938 541.207031 265.289062 541.207031 L 614.035156 541.207031 C 617.792969 541.207031 620.847656 538.152344 620.847656 534.398438 L 620.839844 526.820312 C 620.839844 526 621.507812 525.332031 622.332031 525.324219 C 623.160156 525.324219 623.832031 525.992188 623.832031 526.820312 L 623.835938 534.398438 C 623.835938 539.796875 619.441406 544.195312 614.035156 544.195312 " fill-opacity="1" fill-rule="nonzero"/><path fill="#000000" d="M 146.523438 466.527344 C 146.519531 466.527344 146.519531 466.527344 146.519531 466.527344 C 145.699219 466.527344 145.027344 465.855469 145.027344 465.027344 L 145.058594 450.738281 L 145.058594 240.621094 C 145.058594 235.214844 149.453125 230.816406 154.855469 230.816406 L 189.140625 230.816406 C 189.96875 230.816406 190.640625 231.488281 190.640625 232.3125 C 190.640625 233.140625 189.96875 233.804688 189.140625 233.804688 L 154.855469 233.804688 C 151.097656 233.804688 148.042969 236.867188 148.042969 240.621094 L 148.042969 450.738281 L 148.015625 465.035156 C 148.015625 465.859375 147.351562 466.527344 146.523438 466.527344 " fill-opacity="1" fill-rule="nonzero"/><path fill="#000000" d="M 622.269531 337.789062 C 621.445312 337.789062 620.773438 337.117188 620.773438 336.289062 L 620.847656 240.621094 C 620.847656 236.867188 617.792969 233.804688 614.035156 233.804688 L 352.296875 233.804688 C 351.46875 233.804688 350.804688 233.140625 350.804688 232.3125 C 350.804688 231.488281 351.46875 230.816406 352.296875 230.816406 L 614.035156 230.816406 C 619.441406 230.816406 623.835938 235.214844 623.835938 240.621094 L 623.761719 336.296875 C 623.761719 337.117188 623.089844 337.789062 622.269531 337.789062 " fill-opacity="1" fill-rule="nonzero"/><path fill="#000000" d="M 602.582031 534.480469 L 266.164062 534.480469 C 265.339844 534.480469 264.644531 533.808594 264.644531 532.988281 C 264.644531 532.164062 265.289062 531.492188 266.121094 531.492188 L 602.582031 531.492188 C 606.03125 531.492188 608.839844 528.671875 608.839844 525.199219 L 608.574219 493.886719 C 608.566406 493.066406 609.238281 492.386719 610.058594 492.382812 C 610.066406 492.382812 610.066406 492.382812 610.070312 492.382812 C 610.890625 492.382812 611.558594 493.042969 611.5625 493.863281 L 611.832031 525.183594 C 611.832031 530.316406 607.679688 534.480469 602.582031 534.480469 " fill-opacity="1" fill-rule="nonzero"/><path fill="#000000" d="M 165.792969 465.738281 C 164.972656 465.738281 164.300781 465.074219 164.300781 464.242188 L 164.300781 249.8125 C 164.300781 244.695312 168.449219 240.527344 173.554688 240.527344 L 194.476562 240.527344 C 195.296875 240.527344 195.980469 241.195312 195.980469 242.023438 C 195.980469 242.847656 195.328125 243.515625 194.5 243.515625 L 173.554688 243.515625 C 170.101562 243.515625 167.289062 246.339844 167.289062 249.8125 L 167.289062 464.242188 C 167.289062 465.074219 166.617188 465.738281 165.792969 465.738281 " fill-opacity="1" fill-rule="nonzero"/><path fill="#000000" d="M 610.5 323.59375 C 609.671875 323.59375 609.007812 322.929688 609.007812 322.101562 L 608.839844 249.816406 C 608.839844 246.339844 606.03125 243.515625 602.582031 243.515625 L 347.210938 243.515625 C 346.382812 243.515625 345.710938 242.847656 345.710938 242.023438 C 345.710938 241.195312 346.382812 240.527344 347.210938 240.527344 L 602.582031 240.527344 C 607.679688 240.527344 611.832031 244.695312 611.832031 249.8125 L 611.996094 322.097656 C 611.996094 322.921875 611.324219 323.589844 610.503906 323.59375 C 610.5 323.59375 610.5 323.59375 610.5 323.59375 " fill-opacity="1" fill-rule="nonzero"/><path fill="#000000" d="M 156.167969 384.992188 C 155.335938 384.992188 154.664062 385.738281 154.664062 386.65625 C 154.664062 387.574219 155.335938 388.324219 156.167969 388.324219 C 156.992188 388.324219 157.664062 387.574219 157.664062 386.65625 C 157.664062 385.738281 156.992188 384.992188 156.167969 384.992188 Z M 156.167969 391.3125 C 153.6875 391.3125 151.679688 389.226562 151.679688 386.65625 C 151.679688 384.085938 153.6875 382 156.167969 382 C 158.636719 382 160.652344 384.085938 160.652344 386.65625 C 160.652344 389.226562 158.636719 391.3125 156.167969 391.3125 " fill-opacity="1" fill-rule="nonzero"/><path fill="#000000" d="M 270.773438 111 C 222.964844 111 184.074219 149.804688 184.074219 197.507812 C 184.074219 245.207031 222.964844 284.011719 270.773438 284.011719 C 318.585938 284.011719 357.476562 245.207031 357.476562 197.507812 C 357.476562 149.804688 318.585938 111 270.773438 111 Z M 270.773438 287.003906 C 221.320312 287.003906 181.082031 246.851562 181.082031 197.507812 C 181.082031 148.152344 221.320312 108.007812 270.773438 108.007812 C 320.230469 108.007812 360.46875 148.152344 360.46875 197.507812 C 360.46875 246.851562 320.230469 287.003906 270.773438 287.003906 " fill-opacity="1" fill-rule="nonzero"/><path fill="#000000" d="M 209.441406 260.9375 C 209.058594 260.9375 208.683594 260.796875 208.386719 260.503906 C 207.800781 259.917969 207.800781 258.976562 208.378906 258.390625 L 268.933594 197.371094 L 252.828125 111.894531 C 252.671875 111.078125 253.207031 110.296875 254.015625 110.144531 C 254.832031 109.996094 255.605469 110.527344 255.765625 111.335938 L 272.015625 197.589844 C 272.105469 198.070312 271.957031 198.566406 271.605469 198.917969 L 210.5 260.492188 C 210.207031 260.789062 209.828125 260.9375 209.441406 260.9375 " fill-opacity="1" fill-rule="nonzero"/><path fill="#000000" d="M 270.4375 199.78125 C 269.839844 199.78125 269.269531 199.414062 269.042969 198.824219 C 268.746094 198.046875 269.125 197.179688 269.902344 196.886719 L 352.054688 165.171875 C 352.820312 164.882812 353.691406 165.261719 353.988281 166.03125 C 354.289062 166.800781 353.902344 167.667969 353.132812 167.964844 L 270.976562 199.675781 C 270.800781 199.746094 270.617188 199.78125 270.4375 199.78125 " fill-opacity="1" fill-rule="nonzero"/><path fill="#000000" d="M 230.449219 201.273438 C 230.511719 202.160156 230.792969 202.828125 231.304688 203.273438 C 231.816406 203.714844 232.378906 203.9375 233 203.9375 C 233.566406 203.9375 234.105469 203.734375 234.617188 203.3125 C 235.132812 202.894531 235.386719 202.257812 235.386719 201.390625 C 235.386719 200.664062 235.132812 200.09375 234.617188 199.675781 C 234.105469 199.253906 233.527344 199.050781 232.875 199.050781 C 232.425781 199.050781 232.035156 199.136719 231.730469 199.3125 C 231.417969 199.488281 231.171875 199.699219 231.003906 199.957031 C 230.820312 200.210938 230.695312 200.503906 230.597656 200.828125 C 230.507812 201.152344 230.4375 201.476562 230.414062 201.796875 Z M 227.140625 201.390625 C 227.199219 200.421875 227.398438 199.585938 227.75 198.886719 C 228.097656 198.183594 228.542969 197.597656 229.082031 197.128906 C 229.617188 196.65625 230.214844 196.304688 230.882812 196.074219 C 231.539062 195.847656 232.222656 195.734375 232.921875 195.734375 C 233.621094 195.734375 234.324219 195.855469 235.019531 196.09375 C 235.71875 196.339844 236.34375 196.691406 236.878906 197.148438 C 237.421875 197.601562 237.859375 198.183594 238.195312 198.886719 C 238.53125 199.585938 238.695312 200.382812 238.695312 201.273438 C 238.695312 202.191406 238.539062 203.015625 238.21875 203.757812 C 237.894531 204.496094 237.457031 205.125 236.902344 205.636719 C 236.351562 206.148438 235.71875 206.542969 235.019531 206.808594 C 234.324219 207.082031 233.59375 207.214844 232.84375 207.214844 C 232.191406 207.214844 231.542969 207.101562 230.898438 206.875 C 230.25 206.644531 229.667969 206.292969 229.144531 205.820312 C 228.617188 205.351562 228.171875 204.742188 227.808594 204 C 227.441406 203.261719 227.222656 202.390625 227.140625 201.390625 Z M 216.3125 184.613281 C 216.367188 185.558594 216.660156 186.253906 217.203125 186.699219 C 217.738281 187.140625 218.320312 187.363281 218.941406 187.363281 C 219.554688 187.363281 220.128906 187.140625 220.652344 186.699219 C 221.179688 186.253906 221.445312 185.597656 221.445312 184.730469 C 221.445312 184.035156 221.160156 183.433594 220.613281 182.929688 C 220.0625 182.4375 219.433594 182.183594 218.734375 182.183594 C 218.332031 182.183594 217.976562 182.28125 217.679688 182.46875 C 217.390625 182.65625 217.140625 182.898438 216.933594 183.175781 C 216.734375 183.460938 216.578125 183.773438 216.46875 184.128906 C 216.367188 184.476562 216.296875 184.816406 216.269531 185.136719 Z M 213 184.730469 C 213.050781 183.761719 213.257812 182.914062 213.621094 182.183594 C 213.984375 181.457031 214.433594 180.851562 214.976562 180.367188 C 215.511719 179.882812 216.125 179.523438 216.816406 179.296875 C 217.503906 179.070312 218.195312 178.953125 218.894531 178.953125 C 219.628906 178.953125 220.339844 179.074219 221.035156 179.320312 C 221.742188 179.558594 222.363281 179.921875 222.914062 180.40625 C 223.472656 180.890625 223.910156 181.484375 224.253906 182.183594 C 224.589844 182.886719 224.761719 183.695312 224.761719 184.613281 C 224.761719 185.53125 224.582031 186.355469 224.230469 187.101562 C 223.882812 187.84375 223.421875 188.480469 222.859375 189.023438 C 222.292969 189.558594 221.644531 189.972656 220.917969 190.277344 C 220.191406 190.570312 219.433594 190.71875 218.65625 190.71875 C 217.976562 190.71875 217.316406 190.582031 216.671875 190.316406 C 216.03125 190.042969 215.4375 189.660156 214.917969 189.164062 C 214.390625 188.664062 213.949219 188.042969 213.601562 187.300781 C 213.25 186.5625 213.050781 185.707031 213 184.730469 Z M 233.527344 178.828125 C 233.957031 178.480469 234.402344 178.304688 234.863281 178.304688 C 235.292969 178.304688 235.65625 178.453125 235.953125 178.75 C 236.246094 179.046875 236.394531 179.421875 236.394531 179.882812 C 236.394531 180.121094 236.328125 180.425781 236.195312 180.773438 C 234.578125 183.0625 233.03125 185.273438 231.542969 187.402344 C 230.0625 189.53125 228.59375 191.65625 227.117188 193.769531 C 225.65625 195.886719 224.171875 198.019531 222.675781 200.160156 C 221.179688 202.304688 219.628906 204.519531 218.003906 206.808594 C 217.789062 207.105469 217.542969 207.3125 217.257812 207.414062 C 216.976562 207.523438 216.722656 207.578125 216.511719 207.578125 C 216.109375 207.578125 215.75 207.4375 215.4375 207.152344 C 215.128906 206.875 214.976562 206.503906 214.976562 206.042969 C 214.976562 205.664062 215.101562 205.273438 215.339844 204.867188 C 216.953125 202.578125 218.507812 200.359375 219.988281 198.21875 C 221.46875 196.074219 222.945312 193.957031 224.414062 191.855469 C 225.882812 189.75 227.363281 187.625 228.855469 185.484375 C 230.359375 183.335938 231.914062 181.121094 233.527344 178.828125 " fill-opacity="1" fill-rule="evenodd"/><path fill="#000000" d="M 298.84375 156.710938 C 298.890625 157.457031 299.125 158.015625 299.550781 158.390625 C 299.984375 158.761719 300.457031 158.949219 300.976562 158.949219 C 301.453125 158.949219 301.902344 158.773438 302.335938 158.425781 C 302.761719 158.074219 302.972656 157.539062 302.972656 156.8125 C 302.972656 156.203125 302.761719 155.71875 302.335938 155.371094 C 301.902344 155.019531 301.417969 154.847656 300.871094 154.847656 C 300.492188 154.847656 300.167969 154.917969 299.910156 155.0625 C 299.648438 155.210938 299.449219 155.394531 299.296875 155.605469 C 299.152344 155.820312 299.039062 156.066406 298.957031 156.339844 C 298.886719 156.609375 298.828125 156.882812 298.804688 157.148438 Z M 296.058594 156.8125 C 296.105469 156 296.277344 155.296875 296.574219 154.710938 C 296.863281 154.125 297.234375 153.628906 297.6875 153.234375 C 298.144531 152.835938 298.640625 152.546875 299.199219 152.351562 C 299.75 152.160156 300.320312 152.066406 300.90625 152.066406 C 301.5 152.066406 302.085938 152.164062 302.671875 152.371094 C 303.257812 152.574219 303.777344 152.863281 304.234375 153.253906 C 304.683594 153.632812 305.054688 154.125 305.335938 154.710938 C 305.617188 155.296875 305.757812 155.964844 305.757812 156.710938 C 305.757812 157.480469 305.621094 158.175781 305.347656 158.796875 C 305.074219 159.417969 304.71875 159.941406 304.246094 160.375 C 303.789062 160.800781 303.257812 161.132812 302.671875 161.355469 C 302.085938 161.582031 301.46875 161.695312 300.84375 161.695312 C 300.296875 161.695312 299.757812 161.597656 299.214844 161.40625 C 298.667969 161.210938 298.183594 160.921875 297.738281 160.527344 C 297.300781 160.128906 296.925781 159.621094 296.617188 159 C 296.3125 158.378906 296.132812 157.652344 296.058594 156.8125 Z M 286.96875 142.734375 C 287.015625 143.527344 287.273438 144.109375 287.714844 144.484375 C 288.171875 144.855469 288.65625 145.042969 289.179688 145.042969 C 289.699219 145.042969 290.175781 144.855469 290.621094 144.484375 C 291.058594 144.109375 291.28125 143.5625 291.28125 142.835938 C 291.28125 142.25 291.046875 141.75 290.585938 141.328125 C 290.121094 140.910156 289.597656 140.699219 289.007812 140.699219 C 288.671875 140.699219 288.371094 140.78125 288.125 140.941406 C 287.882812 141.097656 287.671875 141.292969 287.5 141.53125 C 287.328125 141.765625 287.199219 142.035156 287.105469 142.332031 C 287.015625 142.621094 286.964844 142.90625 286.941406 143.179688 Z M 284.195312 142.835938 C 284.242188 142.023438 284.417969 141.308594 284.71875 140.699219 C 285.027344 140.089844 285.402344 139.582031 285.855469 139.171875 C 286.308594 138.769531 286.820312 138.46875 287.398438 138.277344 C 287.972656 138.078125 288.554688 137.988281 289.144531 137.988281 C 289.753906 137.988281 290.351562 138.089844 290.941406 138.296875 C 291.53125 138.496094 292.050781 138.804688 292.515625 139.207031 C 292.980469 139.617188 293.355469 140.113281 293.632812 140.699219 C 293.917969 141.289062 294.0625 141.964844 294.0625 142.734375 C 294.0625 143.503906 293.914062 144.199219 293.621094 144.820312 C 293.328125 145.445312 292.9375 145.980469 292.464844 146.433594 C 291.992188 146.886719 291.445312 147.234375 290.835938 147.488281 C 290.226562 147.730469 289.597656 147.855469 288.933594 147.855469 C 288.371094 147.855469 287.824219 147.742188 287.277344 147.519531 C 286.738281 147.292969 286.246094 146.96875 285.804688 146.550781 C 285.363281 146.136719 284.992188 145.613281 284.703125 144.992188 C 284.40625 144.371094 284.242188 143.652344 284.195312 142.835938 Z M 301.417969 137.886719 C 301.777344 137.59375 302.152344 137.445312 302.535156 137.445312 C 302.898438 137.445312 303.203125 137.574219 303.445312 137.816406 C 303.703125 138.066406 303.824219 138.382812 303.824219 138.769531 C 303.824219 138.972656 303.765625 139.21875 303.65625 139.515625 C 302.300781 141.4375 300.996094 143.292969 299.757812 145.078125 C 298.515625 146.867188 297.273438 148.644531 296.042969 150.421875 C 294.8125 152.191406 293.570312 153.976562 292.316406 155.777344 C 291.058594 157.578125 289.753906 159.433594 288.398438 161.355469 C 288.21875 161.605469 288.011719 161.777344 287.773438 161.867188 C 287.535156 161.957031 287.324219 162.003906 287.140625 162.003906 C 286.804688 162.003906 286.503906 161.882812 286.246094 161.644531 C 285.984375 161.40625 285.855469 161.097656 285.855469 160.710938 C 285.855469 160.398438 285.960938 160.066406 286.160156 159.730469 C 287.515625 157.804688 288.816406 155.949219 290.058594 154.148438 C 291.304688 152.351562 292.539062 150.574219 293.769531 148.808594 C 295.007812 147.046875 296.246094 145.265625 297.5 143.464844 C 298.757812 141.667969 300.0625 139.8125 301.417969 137.886719 " fill-opacity="1" fill-rule="evenodd"/><path fill="#000000" d="M 299.757812 248.722656 C 299.824219 249.820312 300.171875 250.648438 300.808594 251.199219 C 301.441406 251.746094 302.144531 252.027344 302.910156 252.027344 C 303.613281 252.027344 304.277344 251.765625 304.917969 251.246094 C 305.542969 250.734375 305.863281 249.941406 305.863281 248.871094 C 305.863281 247.96875 305.542969 247.257812 304.917969 246.738281 C 304.277344 246.226562 303.5625 245.964844 302.761719 245.964844 C 302.1875 245.964844 301.714844 246.074219 301.332031 246.289062 C 300.953125 246.511719 300.652344 246.773438 300.433594 247.09375 C 300.21875 247.410156 300.050781 247.765625 299.933594 248.167969 C 299.820312 248.570312 299.738281 248.96875 299.703125 249.371094 Z M 295.648438 248.871094 C 295.722656 247.667969 295.96875 246.632812 296.40625 245.765625 C 296.839844 244.898438 297.394531 244.167969 298.058594 243.589844 C 298.726562 243 299.464844 242.570312 300.285156 242.285156 C 301.101562 242 301.941406 241.855469 302.808594 241.855469 C 303.675781 241.855469 304.546875 242.011719 305.410156 242.308594 C 306.277344 242.613281 307.046875 243.046875 307.710938 243.613281 C 308.378906 244.179688 308.925781 244.898438 309.339844 245.765625 C 309.761719 246.632812 309.96875 247.617188 309.96875 248.722656 C 309.96875 249.855469 309.769531 250.875 309.363281 251.800781 C 308.964844 252.714844 308.425781 253.492188 307.734375 254.125 C 307.058594 254.761719 306.277344 255.246094 305.410156 255.578125 C 304.546875 255.914062 303.644531 256.078125 302.710938 256.078125 C 301.910156 256.078125 301.105469 255.933594 300.308594 255.652344 C 299.503906 255.371094 298.78125 254.933594 298.128906 254.351562 C 297.484375 253.769531 296.929688 253.019531 296.480469 252.101562 C 296.027344 251.183594 295.757812 250.105469 295.648438 248.871094 Z M 282.242188 228.089844 C 282.3125 229.257812 282.675781 230.121094 283.34375 230.671875 C 284.007812 231.21875 284.726562 231.5 285.496094 231.5 C 286.265625 231.5 286.96875 231.21875 287.621094 230.671875 C 288.273438 230.121094 288.59375 229.308594 288.59375 228.246094 C 288.59375 227.375 288.257812 226.632812 287.574219 226.015625 C 286.890625 225.394531 286.109375 225.089844 285.246094 225.089844 C 284.742188 225.089844 284.3125 225.207031 283.945312 225.441406 C 283.574219 225.675781 283.269531 225.964844 283.019531 226.3125 C 282.765625 226.667969 282.574219 227.058594 282.441406 227.492188 C 282.3125 227.925781 282.226562 228.34375 282.191406 228.746094 Z M 278.136719 228.246094 C 278.199219 227.042969 278.460938 225.988281 278.917969 225.089844 C 279.363281 224.1875 279.917969 223.4375 280.589844 222.835938 C 281.257812 222.234375 282.015625 221.796875 282.863281 221.511719 C 283.71875 221.226562 284.578125 221.082031 285.445312 221.082031 C 286.34375 221.082031 287.230469 221.238281 288.09375 221.53125 C 288.964844 221.835938 289.742188 222.285156 290.421875 222.882812 C 291.109375 223.488281 291.65625 224.222656 292.078125 225.089844 C 292.496094 225.953125 292.699219 226.957031 292.699219 228.089844 C 292.699219 229.226562 292.484375 230.25 292.050781 231.171875 C 291.617188 232.089844 291.046875 232.882812 290.347656 233.550781 C 289.648438 234.214844 288.851562 234.734375 287.945312 235.105469 C 287.042969 235.46875 286.109375 235.652344 285.140625 235.652344 C 284.3125 235.652344 283.496094 235.488281 282.691406 235.152344 C 281.894531 234.820312 281.167969 234.339844 280.515625 233.726562 C 279.863281 233.109375 279.328125 232.339844 278.890625 231.417969 C 278.457031 230.507812 278.199219 229.445312 278.136719 228.246094 Z M 303.5625 220.933594 C 304.089844 220.5 304.644531 220.28125 305.210938 220.28125 C 305.746094 220.28125 306.199219 220.46875 306.5625 220.832031 C 306.933594 221.203125 307.113281 221.667969 307.113281 222.234375 C 307.113281 222.535156 307.027344 222.902344 306.859375 223.339844 C 304.863281 226.175781 302.945312 228.910156 301.105469 231.550781 C 299.273438 234.183594 297.449219 236.8125 295.628906 239.429688 C 293.808594 242.050781 291.976562 244.6875 290.125 247.34375 C 288.273438 250 286.34375 252.738281 284.34375 255.578125 C 284.078125 255.945312 283.769531 256.199219 283.417969 256.328125 C 283.070312 256.464844 282.761719 256.527344 282.488281 256.527344 C 281.992188 256.527344 281.546875 256.355469 281.167969 256.003906 C 280.785156 255.652344 280.589844 255.195312 280.589844 254.625 C 280.589844 254.15625 280.738281 253.671875 281.042969 253.179688 C 283.039062 250.339844 284.960938 247.59375 286.800781 244.9375 C 288.632812 242.285156 290.457031 239.65625 292.273438 237.054688 C 294.09375 234.449219 295.929688 231.824219 297.78125 229.167969 C 299.632812 226.519531 301.5625 223.773438 303.5625 220.933594 " fill-opacity="1" fill-rule="evenodd"/><path fill="#efefef" d="M 437.476562 134.980469 L 567.101562 134.980469 C 569.851562 134.980469 572.082031 137.207031 572.082031 139.964844 L 572.082031 198.433594 C 572.082031 201.1875 569.851562 203.421875 567.101562 203.421875 L 437.476562 203.421875 C 434.722656 203.421875 432.492188 201.1875 432.492188 198.433594 L 432.492188 139.964844 C 432.492188 137.207031 434.722656 134.980469 437.476562 134.980469 " fill-opacity="1" fill-rule="evenodd"/><path fill="#000000" d="M 437.476562 136.472656 C 435.542969 136.472656 433.984375 138.039062 433.984375 139.964844 L 433.984375 198.433594 C 433.984375 200.359375 435.542969 201.921875 437.476562 201.921875 L 567.101562 201.921875 C 569.019531 201.921875 570.578125 200.359375 570.578125 198.433594 L 570.578125 139.964844 C 570.578125 138.039062 569.019531 136.472656 567.101562 136.472656 Z M 567.101562 204.914062 L 437.476562 204.914062 C 433.902344 204.914062 430.992188 202.007812 430.992188 198.433594 L 430.992188 139.964844 C 430.992188 136.394531 433.902344 133.488281 437.476562 133.488281 L 567.101562 133.488281 C 570.664062 133.488281 573.582031 136.394531 573.582031 139.964844 L 573.582031 198.433594 C 573.582031 202.007812 570.664062 204.914062 567.101562 204.914062 " fill-opacity="1" fill-rule="nonzero"/><path fill="#efefef" d="M 654.570312 180.824219 L 755.265625 180.824219 C 758.019531 180.824219 760.25 183.050781 760.25 185.804688 L 760.25 234.710938 C 760.25 237.46875 758.019531 239.695312 755.265625 239.695312 L 654.570312 239.695312 C 651.816406 239.695312 649.585938 237.46875 649.585938 234.710938 L 649.585938 185.804688 C 649.585938 183.050781 651.816406 180.824219 654.570312 180.824219 " fill-opacity="1" fill-rule="evenodd"/><path fill="#000000" d="M 654.570312 182.316406 C 652.636719 182.316406 651.078125 183.882812 651.078125 185.804688 L 651.078125 234.710938 C 651.078125 236.636719 652.636719 238.203125 654.570312 238.203125 L 755.265625 238.203125 C 757.1875 238.203125 758.753906 236.636719 758.753906 234.710938 L 758.753906 185.804688 C 758.753906 183.882812 757.1875 182.316406 755.265625 182.316406 Z M 755.265625 241.195312 L 654.570312 241.195312 C 650.992188 241.195312 648.085938 238.285156 648.085938 234.710938 L 648.085938 185.804688 C 648.085938 182.230469 650.992188 179.324219 654.570312 179.324219 L 755.265625 179.324219 C 758.839844 179.324219 761.742188 182.230469 761.742188 185.804688 L 761.742188 234.710938 C 761.742188 238.285156 758.839844 241.195312 755.265625 241.195312 " fill-opacity="1" fill-rule="nonzero"/><path fill="#efefef" d="M 687.726562 277.894531 L 763.023438 277.894531 C 765.773438 277.894531 768.007812 280.128906 768.007812 282.878906 L 768.007812 312.164062 C 768.007812 314.917969 765.773438 317.152344 763.023438 317.152344 L 687.726562 317.152344 C 684.976562 317.152344 682.742188 314.917969 682.742188 312.164062 L 682.742188 282.878906 C 682.742188 280.128906 684.976562 277.894531 687.726562 277.894531 " fill-opacity="1" fill-rule="evenodd"/><g clip-path="url(#9d8386acd1)"><path fill="#000000" d="M 687.726562 279.394531 C 685.800781 279.394531 684.234375 280.953125 684.234375 282.878906 L 684.234375 312.164062 C 684.234375 314.085938 685.800781 315.652344 687.726562 315.652344 L 763.023438 315.652344 C 764.945312 315.652344 766.511719 314.085938 766.511719 312.164062 L 766.511719 282.878906 C 766.511719 280.953125 764.945312 279.394531 763.023438 279.394531 Z M 763.023438 318.644531 L 687.726562 318.644531 C 684.160156 318.644531 681.246094 315.738281 681.246094 312.164062 L 681.246094 282.878906 C 681.246094 279.308594 684.160156 276.402344 687.726562 276.402344 L 763.023438 276.402344 C 766.59375 276.402344 769.5 279.308594 769.5 282.878906 L 769.5 312.164062 C 769.5 315.738281 766.59375 318.644531 763.023438 318.644531 " fill-opacity="1" fill-rule="nonzero"/></g><path fill="#efefef" d="M 46.980469 269.96875 L 122.882812 269.96875 C 125.632812 269.96875 127.867188 272.195312 127.867188 274.953125 L 127.867188 308.375 C 127.867188 311.132812 125.632812 313.363281 122.882812 313.363281 L 46.980469 313.363281 C 44.230469 313.363281 41.996094 311.132812 41.996094 308.375 L 41.996094 274.953125 C 41.996094 272.195312 44.230469 269.96875 46.980469 269.96875 " fill-opacity="1" fill-rule="evenodd"/><g clip-path="url(#c0bb29aa2d)"><path fill="#000000" d="M 46.980469 271.460938 C 45.054688 271.460938 43.488281 273.027344 43.488281 274.953125 L 43.488281 308.375 C 43.488281 310.300781 45.054688 311.871094 46.980469 311.871094 L 122.882812 311.871094 C 124.800781 311.871094 126.367188 310.300781 126.367188 308.375 L 126.367188 274.953125 C 126.367188 273.027344 124.800781 271.460938 122.882812 271.460938 Z M 122.882812 314.855469 L 46.980469 314.855469 C 43.40625 314.855469 40.5 311.949219 40.5 308.375 L 40.5 274.953125 C 40.5 271.382812 43.40625 268.46875 46.980469 268.46875 L 122.882812 268.46875 C 126.449219 268.46875 129.359375 271.382812 129.359375 274.953125 L 129.359375 308.375 C 129.359375 311.949219 126.449219 314.855469 122.882812 314.855469 " fill-opacity="1" fill-rule="nonzero"/></g><path fill="#000000" d="M 197.320312 384.730469 C 196.972656 384.730469 196.632812 384.617188 196.351562 384.378906 L 126.492188 325.070312 L 43.644531 325.070312 C 42.824219 325.070312 42.152344 324.402344 42.152344 323.578125 C 42.152344 322.75 42.824219 322.085938 43.644531 322.085938 L 127.046875 322.085938 C 127.398438 322.085938 127.742188 322.203125 128.015625 322.4375 L 198.28125 382.097656 C 198.914062 382.632812 198.988281 383.574219 198.460938 384.207031 C 198.164062 384.554688 197.742188 384.730469 197.320312 384.730469 " fill-opacity="1" fill-rule="nonzero"/><path fill="#000000" d="M 392.875 284.171875 C 392.617188 284.171875 392.351562 284.105469 392.121094 283.957031 C 391.429688 283.511719 391.175781 282.65625 391.617188 281.960938 L 435.429688 213.265625 C 435.710938 212.832031 436.183594 212.570312 436.695312 212.570312 L 568.371094 212.570312 C 569.195312 212.570312 569.867188 213.242188 569.867188 214.070312 C 569.867188 214.890625 569.195312 215.5625 568.371094 215.5625 L 437.515625 215.5625 L 394.222656 283.433594 C 393.929688 283.898438 393.40625 284.171875 392.875 284.171875 " fill-opacity="1" fill-rule="nonzero"/><path fill="#000000" d="M 347.425781 355.53125 C 347.140625 355.53125 346.867188 355.457031 346.617188 355.296875 C 345.921875 354.851562 345.71875 353.921875 346.160156 353.234375 L 366.042969 322.058594 C 366.488281 321.367188 367.410156 321.152344 368.101562 321.582031 C 368.792969 322.015625 369.015625 322.917969 368.589844 323.617188 L 368.320312 324.039062 L 348.679688 354.835938 C 348.394531 355.285156 347.914062 355.53125 347.425781 355.53125 " fill-opacity="1" fill-rule="nonzero"/><path fill="#000000" d="M 358.566406 284.539062 C 357.0625 284.539062 355.84375 286.105469 355.84375 288.03125 L 355.84375 317.316406 C 355.84375 319.238281 357.0625 320.804688 358.566406 320.804688 L 422.296875 320.804688 C 423.800781 320.804688 425.019531 319.238281 425.019531 317.316406 L 425.019531 288.03125 C 425.019531 286.105469 423.800781 284.539062 422.296875 284.539062 Z M 422.296875 323.789062 L 358.566406 323.789062 C 355.417969 323.789062 352.855469 320.882812 352.855469 317.316406 L 352.855469 288.03125 C 352.855469 284.457031 355.417969 281.546875 358.566406 281.546875 L 422.296875 281.546875 C 425.445312 281.546875 428.007812 284.457031 428.007812 288.03125 L 428.007812 317.316406 C 428.007812 320.882812 425.445312 323.789062 422.296875 323.789062 " fill-opacity="1" fill-rule="nonzero"/><path fill="#000000" d="M 570.199219 295.707031 C 569.6875 295.707031 569.191406 295.441406 568.910156 294.96875 C 568.484375 294.257812 568.730469 293.339844 569.433594 292.917969 L 649.988281 245.339844 C 650.222656 245.199219 650.480469 245.128906 650.753906 245.128906 L 757.898438 245.128906 C 758.722656 245.128906 759.390625 245.800781 759.390625 246.621094 C 759.390625 247.453125 758.722656 248.117188 757.898438 248.117188 L 651.15625 248.117188 L 570.957031 295.5 C 570.714844 295.636719 570.453125 295.707031 570.199219 295.707031 " fill-opacity="1" fill-rule="nonzero"/><path fill="#000000" d="M 723.429688 278.902344 C 722.605469 278.902344 721.933594 278.234375 721.933594 277.410156 L 721.933594 247.28125 C 721.933594 246.453125 722.605469 245.789062 723.429688 245.789062 C 724.257812 245.789062 724.921875 246.453125 724.921875 247.28125 L 724.921875 277.410156 C 724.921875 278.234375 724.257812 278.902344 723.429688 278.902344 " fill-opacity="1" fill-rule="nonzero"/><path fill="#000000" d="M 749.023438 205.367188 L 660.339844 205.367188 C 659.519531 205.367188 658.839844 204.703125 658.839844 203.875 C 658.839844 203.050781 659.519531 202.378906 660.339844 202.378906 L 749.023438 202.378906 C 749.851562 202.378906 750.523438 203.050781 750.523438 203.875 C 750.523438 204.703125 749.851562 205.367188 749.023438 205.367188 " fill-opacity="1" fill-rule="nonzero"/><path fill="#000000" d="M 749.253906 195.125 L 660.566406 195.125 C 659.734375 195.125 659.066406 194.457031 659.066406 193.632812 C 659.066406 192.804688 659.734375 192.140625 660.566406 192.140625 L 749.253906 192.140625 C 750.078125 192.140625 750.75 192.804688 750.75 193.632812 C 750.75 194.457031 750.078125 195.125 749.253906 195.125 " fill-opacity="1" fill-rule="nonzero"/><path fill="#000000" d="M 749.023438 226.425781 L 660.339844 226.425781 C 659.519531 226.425781 658.839844 225.761719 658.839844 224.933594 C 658.839844 224.109375 659.519531 223.441406 660.339844 223.441406 L 749.023438 223.441406 C 749.851562 223.441406 750.523438 224.109375 750.523438 224.933594 C 750.523438 225.761719 749.851562 226.425781 749.023438 226.425781 " fill-opacity="1" fill-rule="nonzero"/><path fill="#000000" d="M 749.144531 215.839844 L 660.457031 215.839844 C 659.625 215.839844 658.960938 215.175781 658.960938 214.347656 C 658.960938 213.523438 659.625 212.851562 660.457031 212.851562 L 749.144531 212.851562 C 749.972656 212.851562 750.636719 213.523438 750.636719 214.347656 C 750.636719 215.175781 749.972656 215.839844 749.144531 215.839844 " fill-opacity="1" fill-rule="nonzero"/><path fill="#000000" d="M 760.261719 298.679688 L 690.710938 298.679688 C 689.878906 298.679688 689.214844 298.011719 689.214844 297.179688 C 689.214844 296.359375 689.878906 295.6875 690.710938 295.6875 L 760.261719 295.6875 C 761.089844 295.6875 761.753906 296.359375 761.753906 297.179688 C 761.753906 298.011719 761.089844 298.679688 760.261719 298.679688 " fill-opacity="1" fill-rule="nonzero"/><path fill="#000000" d="M 760.125 289.8125 L 690.574219 289.8125 C 689.75 289.8125 689.082031 289.140625 689.082031 288.316406 C 689.082031 287.496094 689.75 286.824219 690.574219 286.824219 L 760.125 286.824219 C 760.957031 286.824219 761.625 287.496094 761.625 288.316406 C 761.625 289.140625 760.957031 289.8125 760.125 289.8125 " fill-opacity="1" fill-rule="nonzero"/><path fill="#000000" d="M 759.996094 307.414062 L 690.441406 307.414062 C 689.625 307.414062 688.949219 306.746094 688.949219 305.921875 C 688.949219 305.09375 689.625 304.421875 690.441406 304.421875 L 759.996094 304.421875 C 760.820312 304.421875 761.488281 305.09375 761.488281 305.921875 C 761.488281 306.746094 760.820312 307.414062 759.996094 307.414062 " fill-opacity="1" fill-rule="nonzero"/><path fill="#000000" d="M 558.140625 160.09375 L 445.796875 160.09375 C 444.96875 160.09375 444.304688 159.421875 444.304688 158.597656 C 444.304688 157.769531 444.96875 157.105469 445.796875 157.105469 L 558.140625 157.105469 C 558.96875 157.105469 559.632812 157.769531 559.632812 158.597656 C 559.632812 159.421875 558.96875 160.09375 558.140625 160.09375 " fill-opacity="1" fill-rule="nonzero"/><path fill="#000000" d="M 558.425781 149.851562 L 446.082031 149.851562 C 445.253906 149.851562 444.589844 149.179688 444.589844 148.351562 C 444.589844 147.527344 445.253906 146.859375 446.082031 146.859375 L 558.425781 146.859375 C 559.25 146.859375 559.925781 147.527344 559.925781 148.351562 C 559.925781 149.179688 559.25 149.851562 558.425781 149.851562 " fill-opacity="1" fill-rule="nonzero"/><path fill="#000000" d="M 558.140625 181.148438 L 445.796875 181.148438 C 444.96875 181.148438 444.304688 180.480469 444.304688 179.65625 C 444.304688 178.828125 444.96875 178.164062 445.796875 178.164062 L 558.140625 178.164062 C 558.96875 178.164062 559.632812 178.828125 559.632812 179.65625 C 559.632812 180.480469 558.96875 181.148438 558.140625 181.148438 " fill-opacity="1" fill-rule="nonzero"/><path fill="#000000" d="M 558.285156 170.566406 L 445.9375 170.566406 C 445.113281 170.566406 444.445312 169.894531 444.445312 169.070312 C 444.445312 168.25 445.113281 167.578125 445.9375 167.578125 L 558.285156 167.578125 C 559.109375 167.578125 559.777344 168.25 559.777344 169.070312 C 559.777344 169.894531 559.109375 170.566406 558.285156 170.566406 " fill-opacity="1" fill-rule="nonzero"/><path fill="#000000" d="M 557.949219 191.507812 L 445.601562 191.507812 C 444.777344 191.507812 444.109375 190.839844 444.109375 190.015625 C 444.109375 189.1875 444.777344 188.519531 445.601562 188.519531 L 557.949219 188.519531 C 558.769531 188.519531 559.441406 189.1875 559.441406 190.015625 C 559.441406 190.839844 558.769531 191.507812 557.949219 191.507812 " fill-opacity="1" fill-rule="nonzero"/><path fill="#000000" d="M 119.136719 289.148438 L 51.390625 289.148438 C 50.558594 289.148438 49.890625 288.476562 49.890625 287.648438 C 49.890625 286.824219 50.558594 286.15625 51.390625 286.15625 L 119.136719 286.15625 C 119.960938 286.15625 120.632812 286.824219 120.632812 287.648438 C 120.632812 288.476562 119.960938 289.148438 119.136719 289.148438 " fill-opacity="1" fill-rule="nonzero"/><path fill="#000000" d="M 119.011719 280.28125 L 51.265625 280.28125 C 50.433594 280.28125 49.765625 279.609375 49.765625 278.78125 C 49.765625 277.957031 50.433594 277.289062 51.265625 277.289062 L 119.011719 277.289062 C 119.835938 277.289062 120.503906 277.957031 120.503906 278.78125 C 120.503906 279.609375 119.835938 280.28125 119.011719 280.28125 " fill-opacity="1" fill-rule="nonzero"/><path fill="#000000" d="M 118.878906 297.882812 L 51.132812 297.882812 C 50.308594 297.882812 49.640625 297.210938 49.640625 296.390625 C 49.640625 295.5625 50.308594 294.890625 51.132812 294.890625 L 118.878906 294.890625 C 119.703125 294.890625 120.371094 295.5625 120.371094 296.390625 C 120.371094 297.210938 119.703125 297.882812 118.878906 297.882812 " fill-opacity="1" fill-rule="nonzero"/><path fill="#000000" d="M 118.789062 306.496094 L 51.042969 306.496094 C 50.214844 306.496094 49.542969 305.828125 49.542969 304.996094 C 49.542969 304.171875 50.214844 303.503906 51.042969 303.503906 L 118.789062 303.503906 C 119.613281 303.503906 120.28125 304.171875 120.28125 304.996094 C 120.28125 305.828125 119.613281 306.496094 118.789062 306.496094 " fill-opacity="1" fill-rule="nonzero"/><path fill="#000000" d="M 302.039062 426.003906 C 301.648438 426.003906 301.265625 425.851562 300.988281 425.566406 C 300.707031 425.285156 300.546875 424.90625 300.546875 424.507812 L 300.554688 409.003906 C 300.554688 408.183594 301.226562 407.511719 302.050781 407.511719 L 302.058594 407.511719 C 302.878906 407.511719 303.542969 408.183594 303.542969 409.007812 L 303.539062 423.011719 L 313.714844 423.007812 L 313.671875 340.324219 L 303.492188 340.328125 L 303.503906 360.554688 C 303.503906 361.382812 302.832031 362.046875 302.007812 362.046875 C 301.1875 362.046875 300.515625 361.382812 300.515625 360.554688 L 300.503906 338.835938 C 300.503906 338.4375 300.660156 338.054688 300.941406 337.777344 C 301.21875 337.496094 301.601562 337.335938 301.996094 337.335938 L 315.164062 337.332031 C 315.988281 337.332031 316.660156 338 316.660156 338.824219 L 316.699219 424.507812 C 316.699219 424.898438 316.546875 425.28125 316.265625 425.558594 C 315.988281 425.839844 315.605469 426 315.207031 426 L 302.039062 426.003906 " fill-opacity="1" fill-rule="nonzero"/><path fill="#000000" d="M 273.570312 413.121094 C 272.75 413.121094 272.078125 412.457031 272.078125 411.628906 L 272.054688 364.941406 C 272.054688 364.117188 272.71875 363.449219 273.546875 363.449219 L 286.714844 363.445312 C 287.539062 363.445312 288.210938 364.109375 288.210938 364.929688 L 288.234375 383.390625 C 288.234375 384.21875 287.566406 384.890625 286.75 384.890625 C 286.75 384.890625 286.742188 384.890625 286.738281 384.890625 C 285.917969 384.890625 285.246094 384.222656 285.246094 383.398438 L 285.222656 366.429688 L 275.042969 366.4375 L 275.0625 411.628906 C 275.0625 412.457031 274.394531 413.121094 273.570312 413.121094 " fill-opacity="1" fill-rule="nonzero"/><path fill="#ffc662" d="M 256.054688 385.136719 L 242.882812 385.140625 L 242.898438 424.570312 L 256.074219 424.5625 L 256.054688 385.136719 " fill-opacity="1" fill-rule="evenodd"/><path fill="#000000" d="M 244.378906 386.640625 L 244.398438 423.074219 L 254.574219 423.070312 L 254.558594 386.632812 Z M 242.898438 426.066406 C 242.078125 426.066406 241.40625 425.394531 241.40625 424.570312 L 241.390625 385.148438 C 241.390625 384.320312 242.058594 383.648438 242.882812 383.648438 L 256.050781 383.640625 L 256.054688 383.640625 C 256.449219 383.640625 256.832031 383.800781 257.109375 384.082031 C 257.390625 384.359375 257.546875 384.738281 257.546875 385.136719 L 257.566406 424.5625 C 257.566406 424.960938 257.410156 425.339844 257.132812 425.617188 C 256.851562 425.902344 256.472656 426.0625 256.074219 426.0625 L 242.898438 426.066406 " fill-opacity="1" fill-rule="nonzero"/><path fill="#000000" d="M 213.984375 396.621094 L 213.996094 423.03125 L 224.179688 423.023438 L 224.167969 396.617188 Z M 212.503906 426.023438 C 212.105469 426.023438 211.722656 425.863281 211.445312 425.578125 C 211.164062 425.296875 211.011719 424.921875 211.011719 424.523438 L 210.996094 395.128906 C 210.996094 394.730469 211.15625 394.355469 211.433594 394.074219 C 211.710938 393.789062 212.089844 393.636719 212.488281 393.636719 L 225.660156 393.628906 C 226.484375 393.628906 227.152344 394.296875 227.152344 395.125 L 227.167969 424.515625 C 227.167969 425.339844 226.503906 426.011719 225.671875 426.011719 L 212.503906 426.023438 " fill-opacity="1" fill-rule="nonzero"/><path fill="#000000" d="M 333.613281 426.054688 L 296.628906 426.054688 C 295.804688 426.054688 295.132812 425.382812 295.132812 424.5625 C 295.132812 423.738281 295.804688 423.066406 296.628906 423.066406 L 332.121094 423.066406 L 332.121094 327.222656 L 199.386719 327.222656 L 199.386719 423.066406 L 267.339844 423.066406 C 268.160156 423.066406 268.898438 423.738281 268.898438 424.5625 C 268.898438 425.382812 268.300781 426.054688 267.480469 426.054688 L 197.894531 426.054688 C 197.070312 426.054688 196.402344 425.382812 196.402344 424.5625 L 196.402344 325.730469 C 196.402344 324.898438 197.070312 324.234375 197.894531 324.234375 L 333.613281 324.234375 C 334.433594 324.234375 335.105469 324.898438 335.105469 325.730469 L 335.105469 424.5625 C 335.105469 425.382812 334.433594 426.054688 333.613281 426.054688 " fill-opacity="1" fill-rule="nonzero"/><path fill="#000000" d="M 417.796875 304.019531 L 362.828125 304.019531 C 362.007812 304.019531 361.335938 303.34375 361.335938 302.519531 C 361.335938 301.699219 362.007812 301.027344 362.828125 301.027344 L 417.796875 301.027344 C 418.625 301.027344 419.296875 301.699219 419.296875 302.519531 C 419.296875 303.34375 418.625 304.019531 417.796875 304.019531 " fill-opacity="1" fill-rule="nonzero"/><path fill="#000000" d="M 417.695312 295.152344 L 362.722656 295.152344 C 361.898438 295.152344 361.226562 294.480469 361.226562 293.652344 C 361.226562 292.828125 361.898438 292.160156 362.722656 292.160156 L 417.695312 292.160156 C 418.527344 292.160156 419.191406 292.828125 419.191406 293.652344 C 419.191406 294.480469 418.527344 295.152344 417.695312 295.152344 " fill-opacity="1" fill-rule="nonzero"/><path fill="#000000" d="M 417.59375 312.753906 L 362.621094 312.753906 C 361.796875 312.753906 361.128906 312.082031 361.128906 311.253906 C 361.128906 310.429688 361.796875 309.761719 362.621094 309.761719 L 417.59375 309.761719 C 418.421875 309.761719 419.089844 310.429688 419.089844 311.253906 C 419.089844 312.082031 418.421875 312.753906 417.59375 312.753906 " fill-opacity="1" fill-rule="nonzero"/><path fill="#000000" d="M 384.367188 361.015625 C 383.613281 361.015625 382.742188 362.355469 382.742188 364.082031 L 382.742188 390.871094 C 382.742188 392.59375 383.613281 393.933594 384.367188 393.933594 L 431.546875 393.933594 C 432.296875 393.933594 433.175781 392.59375 433.175781 390.871094 L 433.175781 364.082031 C 433.175781 362.355469 432.296875 361.015625 431.546875 361.015625 Z M 431.546875 396.921875 L 384.367188 396.921875 C 381.773438 396.921875 379.753906 394.261719 379.753906 390.871094 L 379.753906 364.082031 C 379.753906 360.6875 381.773438 358.027344 384.367188 358.027344 L 431.546875 358.027344 C 434.132812 358.027344 436.164062 360.6875 436.164062 364.082031 L 436.164062 390.871094 C 436.164062 394.261719 434.132812 396.921875 431.546875 396.921875 " fill-opacity="1" fill-rule="nonzero"/><path fill="#000000" d="M 427.097656 378.78125 L 388.671875 378.78125 C 387.84375 378.78125 387.171875 378.109375 387.171875 377.285156 C 387.171875 376.457031 387.84375 375.792969 388.671875 375.792969 L 427.097656 375.792969 C 427.921875 375.792969 428.589844 376.457031 428.589844 377.285156 C 428.589844 378.109375 427.921875 378.78125 427.097656 378.78125 " fill-opacity="1" fill-rule="nonzero"/><path fill="#000000" d="M 427.03125 369.917969 L 388.597656 369.917969 C 387.773438 369.917969 387.105469 369.246094 387.105469 368.417969 C 387.105469 367.59375 387.773438 366.925781 388.597656 366.925781 L 427.03125 366.925781 C 427.855469 366.925781 428.523438 367.59375 428.523438 368.417969 C 428.523438 369.246094 427.855469 369.917969 427.03125 369.917969 " fill-opacity="1" fill-rule="nonzero"/><path fill="#000000" d="M 426.949219 387.515625 L 388.523438 387.515625 C 387.699219 387.515625 387.03125 386.84375 387.03125 386.019531 C 387.03125 385.199219 387.699219 384.527344 388.523438 384.527344 L 426.949219 384.527344 C 427.78125 384.527344 428.449219 385.199219 428.449219 386.019531 C 428.449219 386.84375 427.78125 387.515625 426.949219 387.515625 " fill-opacity="1" fill-rule="nonzero"/><path fill="#76ceff" d="M 462.214844 292.9375 L 481.398438 292.9375 L 481.398438 381.8125 L 462.214844 381.8125 L 462.214844 292.9375 " fill-opacity="1" fill-rule="evenodd"/><path fill="#000000" d="M 463.707031 380.320312 L 479.90625 380.320312 L 479.90625 294.429688 L 463.707031 294.429688 Z M 481.398438 383.3125 L 462.214844 383.3125 C 461.390625 383.3125 460.71875 382.640625 460.71875 381.8125 L 460.71875 292.9375 C 460.71875 292.109375 461.390625 291.441406 462.214844 291.441406 L 481.398438 291.441406 C 482.222656 291.441406 482.894531 292.109375 482.894531 292.9375 L 482.894531 381.8125 C 482.894531 382.640625 482.222656 383.3125 481.398438 383.3125 " fill-opacity="1" fill-rule="nonzero"/><path fill="#ff7439" d="M 491.996094 270.761719 L 511.359375 270.761719 L 511.359375 381.8125 L 491.996094 381.8125 L 491.996094 270.761719 " fill-opacity="1" fill-rule="evenodd"/><path fill="#000000" d="M 493.492188 380.320312 L 509.855469 380.320312 L 509.855469 272.253906 L 493.492188 272.253906 Z M 511.359375 383.3125 L 491.996094 383.3125 C 491.171875 383.3125 490.503906 382.640625 490.503906 381.8125 L 490.503906 270.761719 C 490.503906 269.933594 491.171875 269.261719 491.996094 269.261719 L 511.359375 269.261719 C 512.179688 269.261719 512.851562 269.933594 512.851562 270.761719 L 512.851562 381.8125 C 512.851562 382.640625 512.179688 383.3125 511.359375 383.3125 " fill-opacity="1" fill-rule="nonzero"/><path fill="#bab6ff" d="M 541.910156 307.355469 L 521.566406 307.355469 L 521.566406 381.8125 L 541.910156 381.8125 L 541.910156 307.355469 " fill-opacity="1" fill-rule="evenodd"/><path fill="#000000" d="M 523.058594 380.320312 L 540.410156 380.320312 L 540.410156 308.855469 L 523.058594 308.855469 Z M 541.910156 383.3125 L 521.566406 383.3125 C 520.746094 383.3125 520.066406 382.640625 520.066406 381.8125 L 520.066406 307.355469 C 520.066406 306.53125 520.746094 305.863281 521.566406 305.863281 L 541.910156 305.863281 C 542.734375 305.863281 543.402344 306.53125 543.402344 307.355469 L 543.402344 381.8125 C 543.402344 382.640625 542.734375 383.3125 541.910156 383.3125 " fill-opacity="1" fill-rule="nonzero"/><path fill="#81ed97" d="M 569.640625 294.253906 L 551.1875 294.253906 L 551.1875 381.8125 L 569.640625 381.8125 L 569.640625 294.253906 " fill-opacity="1" fill-rule="evenodd"/><path fill="#000000" d="M 552.679688 380.320312 L 568.140625 380.320312 L 568.140625 295.746094 L 552.679688 295.746094 Z M 569.640625 383.3125 L 551.1875 383.3125 C 550.355469 383.3125 549.6875 382.640625 549.6875 381.8125 L 549.6875 294.253906 C 549.6875 293.425781 550.355469 292.753906 551.1875 292.753906 L 569.640625 292.753906 C 570.464844 292.753906 571.132812 293.425781 571.132812 294.253906 L 571.132812 381.8125 C 571.132812 382.640625 570.464844 383.3125 569.640625 383.3125 " fill-opacity="1" fill-rule="nonzero"/><path fill="#000000" d="M 357.363281 477.484375 C 357.109375 477.484375 356.859375 477.414062 356.613281 477.277344 C 355.902344 476.863281 355.660156 475.949219 356.070312 475.238281 L 361.5625 465.75 C 361.828125 465.289062 362.324219 465.003906 362.855469 465.003906 C 362.859375 465.003906 362.859375 465.003906 362.867188 465.003906 C 363.402344 465.011719 363.890625 465.300781 364.160156 465.769531 L 369.488281 475.214844 C 369.898438 475.9375 369.648438 476.851562 368.925781 477.25 C 368.207031 477.660156 367.296875 477.402344 366.886719 476.683594 L 362.84375 469.511719 L 358.65625 476.738281 C 358.382812 477.214844 357.882812 477.484375 357.363281 477.484375 " fill-opacity="1" fill-rule="nonzero"/><path fill="#000000" d="M 541.375 591.667969 L 541.363281 591.667969 L 362.296875 591.167969 C 361.898438 591.167969 361.523438 591.003906 361.238281 590.722656 C 360.957031 590.4375 360.804688 590.058594 360.804688 589.664062 L 361.367188 469.101562 C 361.375 468.28125 362.046875 467.613281 362.867188 467.613281 C 362.867188 467.613281 362.867188 467.613281 362.871094 467.613281 C 363.699219 467.621094 364.363281 468.285156 364.359375 469.113281 L 363.800781 588.183594 L 541.378906 588.679688 C 542.199219 588.679688 542.871094 589.355469 542.867188 590.183594 C 542.867188 591.003906 542.195312 591.667969 541.375 591.667969 " fill-opacity="1" fill-rule="nonzero"/><path fill="#000000" d="M 362.34375 564.828125 C 362.046875 564.828125 361.742188 564.742188 361.480469 564.558594 C 360.804688 564.082031 360.644531 563.148438 361.117188 562.472656 L 390.261719 521.007812 C 390.566406 520.574219 391.074219 520.328125 391.609375 520.375 C 392.132812 520.414062 392.601562 520.734375 392.828125 521.21875 L 405.460938 547.273438 L 419.800781 547.234375 C 420.296875 547.234375 420.753906 547.476562 421.039062 547.878906 L 429.597656 560.242188 L 437.359375 548.300781 C 437.640625 547.878906 438.105469 547.625 438.609375 547.621094 L 469.875 547.445312 L 476.515625 535.816406 C 476.785156 535.347656 477.273438 535.0625 477.808594 535.058594 C 477.816406 535.058594 477.816406 535.058594 477.816406 535.058594 C 478.34375 535.058594 478.839844 535.34375 479.113281 535.804688 L 483.503906 543.359375 L 494.609375 521.023438 C 494.859375 520.511719 495.378906 520.199219 495.941406 520.199219 L 520.785156 520.203125 L 541.390625 498.910156 C 541.964844 498.320312 542.917969 498.308594 543.503906 498.882812 C 544.101562 499.457031 544.113281 500.40625 543.539062 500.992188 L 522.488281 522.734375 C 522.203125 523.023438 521.820312 523.195312 521.414062 523.195312 L 496.871094 523.1875 L 484.945312 547.175781 C 484.695312 547.667969 484.203125 547.984375 483.652344 548.003906 C 483.105469 547.996094 482.585938 547.734375 482.308594 547.261719 L 477.824219 539.546875 L 472.046875 549.675781 C 471.785156 550.144531 471.289062 550.429688 470.757812 550.433594 L 439.433594 550.605469 L 430.898438 563.738281 C 430.625 564.160156 430.15625 564.417969 429.660156 564.421875 C 429.65625 564.421875 429.644531 564.421875 429.636719 564.421875 C 429.148438 564.421875 428.691406 564.183594 428.414062 563.78125 L 419.023438 550.230469 L 404.53125 550.269531 C 404.527344 550.269531 404.527344 550.269531 404.527344 550.269531 C 403.957031 550.269531 403.429688 549.933594 403.183594 549.425781 L 391.246094 524.800781 L 363.5625 564.195312 C 363.277344 564.605469 362.808594 564.828125 362.34375 564.828125 " fill-opacity="1" fill-rule="nonzero"/><path fill="#000000" d="M 444.484375 538.984375 C 443.921875 538.984375 443.410156 538.664062 443.152344 538.164062 L 431.925781 515.914062 L 410.285156 515.914062 C 409.710938 515.914062 409.191406 515.582031 408.941406 515.070312 L 390.441406 477.179688 L 363.917969 517.390625 C 363.464844 518.074219 362.535156 518.265625 361.851562 517.8125 C 361.164062 517.355469 360.976562 516.425781 361.425781 515.738281 L 389.394531 473.347656 C 389.683594 472.902344 390.191406 472.652344 390.734375 472.679688 C 391.273438 472.714844 391.746094 473.03125 391.980469 473.515625 L 411.214844 512.921875 L 432.839844 512.921875 C 433.40625 512.921875 433.925781 513.242188 434.175781 513.742188 L 444.492188 534.179688 L 454.980469 513.503906 C 455.234375 512.996094 455.75 512.683594 456.316406 512.683594 C 456.316406 512.683594 456.316406 512.683594 456.324219 512.683594 L 467.925781 512.738281 L 477.5 493.3125 C 477.757812 492.796875 478.277344 492.472656 478.84375 492.472656 L 511.125 492.496094 L 520.847656 481.722656 C 521.402344 481.113281 522.347656 481.0625 522.957031 481.613281 C 523.570312 482.167969 523.617188 483.113281 523.0625 483.722656 L 512.902344 494.996094 C 512.617188 495.3125 512.214844 495.492188 511.792969 495.492188 L 479.773438 495.46875 L 470.199219 514.90625 C 469.9375 515.417969 469.378906 515.757812 468.851562 515.742188 L 457.230469 515.679688 L 445.824219 538.164062 C 445.566406 538.667969 445.050781 538.984375 444.484375 538.984375 " fill-opacity="1" fill-rule="nonzero"/><path fill="#000000" d="M 363.140625 590.039062 C 362.84375 590.039062 362.542969 589.953125 362.285156 589.765625 C 361.605469 589.292969 361.449219 588.363281 361.921875 587.6875 L 410.324219 518.863281 C 410.617188 518.453125 411.109375 518.25 411.601562 518.230469 C 412.109375 518.25 412.570312 518.527344 412.832031 518.960938 L 445.15625 573.273438 L 458.359375 559.933594 C 458.636719 559.644531 459.015625 559.449219 459.429688 559.488281 C 459.835938 559.496094 460.222656 559.660156 460.5 559.949219 L 468.15625 567.945312 L 477.335938 560.136719 C 477.597656 559.910156 477.945312 559.785156 478.296875 559.78125 L 505.773438 559.75 L 543.300781 519.667969 C 543.863281 519.0625 544.808594 519.035156 545.414062 519.601562 C 546.015625 520.164062 546.050781 521.109375 545.484375 521.714844 L 507.511719 562.265625 C 507.230469 562.566406 506.835938 562.738281 506.421875 562.738281 L 478.851562 562.769531 L 469.019531 571.140625 C 468.417969 571.648438 467.515625 571.609375 466.96875 571.039062 L 459.40625 563.128906 L 445.933594 576.753906 C 445.609375 577.078125 445.152344 577.238281 444.683594 577.179688 C 444.222656 577.128906 443.820312 576.859375 443.585938 576.460938 L 411.441406 522.472656 L 364.371094 589.40625 C 364.074219 589.824219 363.613281 590.039062 363.140625 590.039062 " fill-opacity="1" fill-rule="nonzero"/><path fill="#000000" d="M 534.511719 597.152344 C 533.980469 597.152344 533.46875 596.867188 533.195312 596.371094 C 532.804688 595.652344 533.070312 594.742188 533.789062 594.335938 L 541.007812 590.375 L 533.839844 586.101562 C 533.128906 585.679688 532.898438 584.765625 533.316406 584.058594 C 533.738281 583.34375 534.660156 583.113281 535.367188 583.53125 L 544.785156 589.140625 C 545.234375 589.414062 545.515625 589.914062 545.507812 590.449219 C 545.503906 590.984375 545.207031 591.476562 544.738281 591.738281 L 535.230469 596.957031 C 535 597.085938 534.757812 597.152344 534.511719 597.152344 " fill-opacity="1" fill-rule="nonzero"/><path fill="#000000" d="M 541.964844 509.761719 C 541.863281 509.761719 541.753906 509.75 541.652344 509.730469 C 540.84375 509.550781 540.328125 508.757812 540.503906 507.949219 L 542.1875 500.1875 L 534.25 502.769531 C 533.457031 503.03125 532.621094 502.597656 532.371094 501.8125 C 532.109375 501.027344 532.539062 500.183594 533.328125 499.929688 L 543.742188 496.542969 C 544.25 496.371094 544.808594 496.496094 545.207031 496.855469 C 545.605469 497.207031 545.78125 497.753906 545.667969 498.277344 L 543.429688 508.582031 C 543.277344 509.28125 542.65625 509.761719 541.964844 509.761719 " fill-opacity="1" fill-rule="nonzero"/><path fill="#000000" d="M 521.417969 492.472656 C 521.308594 492.472656 521.191406 492.460938 521.082031 492.4375 C 520.277344 492.257812 519.773438 491.453125 519.960938 490.648438 L 521.71875 482.914062 L 513.808594 485.480469 C 513.011719 485.738281 512.175781 485.304688 511.921875 484.523438 C 511.667969 483.738281 512.09375 482.894531 512.878906 482.640625 L 523.296875 479.253906 C 523.808594 479.082031 524.367188 479.210938 524.765625 479.566406 C 525.160156 479.933594 525.335938 480.480469 525.222656 481.003906 L 522.871094 491.3125 C 522.714844 492.007812 522.101562 492.472656 521.417969 492.472656 " fill-opacity="1" fill-rule="nonzero"/><path fill="#000000" d="M 543.65625 530.480469 C 543.550781 530.480469 543.441406 530.472656 543.339844 530.449219 C 542.523438 530.273438 542.011719 529.480469 542.1875 528.671875 L 543.878906 520.882812 L 535.941406 523.46875 C 535.148438 523.726562 534.3125 523.292969 534.054688 522.503906 C 533.800781 521.71875 534.230469 520.875 535.011719 520.625 L 545.433594 517.234375 C 545.9375 517.070312 546.496094 517.191406 546.898438 517.546875 C 547.292969 517.90625 547.46875 518.449219 547.355469 518.972656 L 545.117188 529.304688 C 544.957031 530.003906 544.339844 530.480469 543.65625 530.480469 " fill-opacity="1" fill-rule="nonzero"/><path fill="#ffc662" d="M 366.894531 441.355469 C 366.894531 428.921875 380.363281 418.847656 396.980469 418.847656 C 413.601562 418.847656 427.070312 428.921875 427.070312 441.355469 C 427.070312 453.785156 413.601562 463.867188 396.980469 463.867188 C 380.363281 463.867188 366.894531 453.785156 366.894531 441.355469 " fill-opacity="1" fill-rule="evenodd"/><path fill="#000000" d="M 396.980469 420.339844 C 381.210938 420.339844 368.390625 429.769531 368.390625 441.355469 C 368.390625 452.941406 381.210938 462.371094 396.980469 462.371094 C 412.75 462.371094 425.578125 452.941406 425.578125 441.355469 C 425.578125 429.769531 412.75 420.339844 396.980469 420.339844 Z M 396.980469 465.363281 C 379.566406 465.363281 365.402344 454.59375 365.402344 441.355469 C 365.402344 428.117188 379.566406 417.351562 396.980469 417.351562 C 414.398438 417.351562 428.566406 428.117188 428.566406 441.355469 C 428.566406 454.59375 414.398438 465.363281 396.980469 465.363281 " fill-opacity="1" fill-rule="nonzero"/><path fill="#000000" d="M 413.304688 442.898438 L 379.929688 442.898438 C 379.097656 442.898438 378.429688 442.230469 378.429688 441.40625 C 378.429688 440.578125 379.097656 439.90625 379.929688 439.90625 L 413.304688 439.90625 C 414.128906 439.90625 414.796875 440.578125 414.796875 441.40625 C 414.796875 442.230469 414.128906 442.898438 413.304688 442.898438 " fill-opacity="1" fill-rule="nonzero"/><path fill="#000000" d="M 413.234375 435.199219 L 379.867188 435.199219 C 379.039062 435.199219 378.367188 434.535156 378.367188 433.707031 C 378.367188 432.882812 379.039062 432.210938 379.867188 432.210938 L 413.234375 432.210938 C 414.066406 432.210938 414.738281 432.882812 414.738281 433.707031 C 414.738281 434.535156 414.066406 435.199219 413.234375 435.199219 " fill-opacity="1" fill-rule="nonzero"/><path fill="#000000" d="M 413.179688 450.488281 L 379.796875 450.488281 C 378.972656 450.488281 378.304688 449.816406 378.304688 448.996094 C 378.304688 448.167969 378.972656 447.496094 379.796875 447.496094 L 413.179688 447.496094 C 414.003906 447.496094 414.671875 448.167969 414.671875 448.996094 C 414.671875 449.816406 414.003906 450.488281 413.179688 450.488281 " fill-opacity="1" fill-rule="nonzero"/><path fill="#84d3ff" d="M 461.367188 457.511719 C 461.367188 447.480469 472.246094 439.34375 485.664062 439.34375 C 499.070312 439.34375 509.949219 447.480469 509.949219 457.511719 C 509.949219 467.550781 499.070312 475.6875 485.664062 475.6875 C 472.246094 475.6875 461.367188 467.550781 461.367188 457.511719 " fill-opacity="1" fill-rule="evenodd"/><path fill="#000000" d="M 485.664062 440.835938 C 473.085938 440.835938 462.863281 448.316406 462.863281 457.511719 C 462.863281 466.707031 473.085938 474.191406 485.664062 474.191406 C 498.226562 474.191406 508.457031 466.707031 508.457031 457.511719 C 508.457031 448.316406 498.226562 440.835938 485.664062 440.835938 Z M 485.664062 477.179688 C 471.4375 477.179688 459.875 468.355469 459.875 457.511719 C 459.875 446.671875 471.4375 437.84375 485.664062 437.84375 C 499.878906 437.84375 511.449219 446.671875 511.449219 457.511719 C 511.449219 468.355469 499.878906 477.179688 485.664062 477.179688 " fill-opacity="1" fill-rule="nonzero"/><path fill="#000000" d="M 498.832031 459.050781 L 471.886719 459.050781 C 471.058594 459.050781 470.394531 458.378906 470.394531 457.558594 C 470.394531 456.730469 471.058594 456.058594 471.886719 456.058594 L 498.832031 456.058594 C 499.660156 456.058594 500.328125 456.730469 500.328125 457.558594 C 500.328125 458.378906 499.660156 459.050781 498.832031 459.050781 " fill-opacity="1" fill-rule="nonzero"/><path fill="#000000" d="M 498.785156 452.835938 L 471.839844 452.835938 C 471.015625 452.835938 470.34375 452.164062 470.34375 451.335938 C 470.34375 450.511719 471.015625 449.84375 471.839844 449.84375 L 498.785156 449.84375 C 499.609375 449.84375 500.277344 450.511719 500.277344 451.335938 C 500.277344 452.164062 499.609375 452.835938 498.785156 452.835938 " fill-opacity="1" fill-rule="nonzero"/><path fill="#000000" d="M 498.734375 465.175781 L 471.789062 465.175781 C 470.957031 465.175781 470.292969 464.503906 470.292969 463.675781 C 470.292969 462.855469 470.957031 462.183594 471.789062 462.183594 L 498.734375 462.183594 C 499.558594 462.183594 500.230469 462.855469 500.230469 463.675781 C 500.230469 464.503906 499.558594 465.175781 498.734375 465.175781 " fill-opacity="1" fill-rule="nonzero"/><path fill="#ff5c56" d="M 553.351562 438.199219 C 553.351562 429.917969 562.308594 423.21875 573.371094 423.21875 C 584.425781 423.21875 593.390625 429.917969 593.390625 438.199219 C 593.390625 446.464844 584.425781 453.171875 573.371094 453.171875 C 562.308594 453.171875 553.351562 446.464844 553.351562 438.199219 " fill-opacity="1" fill-rule="evenodd"/><path fill="#000000" d="M 573.371094 424.710938 C 563.152344 424.710938 554.84375 430.761719 554.84375 438.199219 C 554.84375 445.628906 563.152344 451.671875 573.371094 451.671875 C 583.585938 451.671875 591.898438 445.628906 591.898438 438.199219 C 591.898438 430.761719 583.585938 424.710938 573.371094 424.710938 Z M 573.371094 454.667969 C 561.507812 454.667969 551.855469 447.273438 551.855469 438.199219 C 551.855469 429.109375 561.507812 421.726562 573.371094 421.726562 C 585.234375 421.726562 594.886719 429.109375 594.886719 438.199219 C 594.886719 447.273438 585.234375 454.667969 573.371094 454.667969 " fill-opacity="1" fill-rule="nonzero"/><path fill="#000000" d="M 584.140625 442.902344 L 561.929688 442.902344 C 561.101562 442.902344 560.4375 442.238281 560.4375 441.40625 C 560.4375 440.585938 561.101562 439.914062 561.929688 439.914062 L 584.140625 439.914062 C 584.960938 439.914062 585.632812 440.585938 585.632812 441.40625 C 585.632812 442.238281 584.960938 442.902344 584.140625 442.902344 " fill-opacity="1" fill-rule="nonzero"/><path fill="#000000" d="M 584.28125 436.324219 L 562.070312 436.324219 C 561.246094 436.324219 560.574219 435.65625 560.574219 434.832031 C 560.574219 434.003906 561.246094 433.335938 562.070312 433.335938 L 584.28125 433.335938 C 585.109375 433.335938 585.773438 434.003906 585.773438 434.832031 C 585.773438 435.65625 585.109375 436.324219 584.28125 436.324219 " fill-opacity="1" fill-rule="nonzero"/><path fill="#b9b5ff" d="M 553.328125 492.046875 C 553.328125 483.773438 562.289062 477.074219 573.347656 477.074219 C 584.398438 477.074219 593.359375 483.773438 593.359375 492.046875 C 593.359375 500.320312 584.398438 507.019531 573.347656 507.019531 C 562.289062 507.019531 553.328125 500.320312 553.328125 492.046875 " fill-opacity="1" fill-rule="evenodd"/><path fill="#000000" d="M 573.347656 478.566406 C 563.128906 478.566406 554.820312 484.617188 554.820312 492.046875 C 554.820312 499.480469 563.128906 505.527344 573.347656 505.527344 C 583.558594 505.527344 591.867188 499.480469 591.867188 492.046875 C 591.867188 484.617188 583.558594 478.566406 573.347656 478.566406 Z M 573.347656 508.523438 C 561.480469 508.523438 551.832031 501.128906 551.832031 492.046875 C 551.832031 482.964844 561.480469 475.574219 573.347656 475.574219 C 585.210938 475.574219 594.863281 482.964844 594.863281 492.046875 C 594.863281 501.128906 585.210938 508.523438 573.347656 508.523438 " fill-opacity="1" fill-rule="nonzero"/><path fill="#000000" d="M 573.324219 477.398438 C 572.492188 477.398438 571.828125 476.730469 571.828125 475.90625 L 571.828125 453.609375 C 571.828125 452.789062 572.492188 452.117188 573.324219 452.117188 C 574.152344 452.117188 574.816406 452.789062 574.816406 453.609375 L 574.816406 475.90625 C 574.816406 476.730469 574.152344 477.398438 573.324219 477.398438 " fill-opacity="1" fill-rule="nonzero"/><path fill="#000000" d="M 460.730469 457.332031 C 460.582031 457.332031 460.433594 457.308594 460.277344 457.261719 L 426.976562 446.828125 C 426.191406 446.578125 425.753906 445.742188 426 444.953125 C 426.242188 444.167969 427.085938 443.730469 427.867188 443.976562 L 461.171875 454.40625 C 461.957031 454.65625 462.402344 455.488281 462.152344 456.28125 C 461.953125 456.921875 461.367188 457.332031 460.730469 457.332031 " fill-opacity="1" fill-rule="nonzero"/><path fill="#000000" d="M 510.476562 457.425781 C 509.832031 457.425781 509.242188 457.011719 509.046875 456.367188 C 508.800781 455.582031 509.246094 454.742188 510.039062 454.5 L 552.464844 441.53125 C 553.253906 441.285156 554.09375 441.734375 554.332031 442.523438 C 554.570312 443.3125 554.132812 444.152344 553.339844 444.390625 L 510.910156 457.359375 C 510.769531 457.40625 510.621094 457.425781 510.476562 457.425781 " fill-opacity="1" fill-rule="nonzero"/><path fill="#000000" d="M 571.597656 498.671875 C 571.597656 498.234375 571.746094 497.863281 572.054688 497.566406 C 572.363281 497.257812 572.726562 497.109375 573.164062 497.109375 C 573.597656 497.109375 573.96875 497.257812 574.28125 497.566406 C 574.589844 497.863281 574.75 498.234375 574.75 498.671875 C 574.75 499.105469 574.589844 499.476562 574.28125 499.792969 C 573.96875 500.101562 573.597656 500.261719 573.164062 500.261719 C 572.726562 500.261719 572.363281 500.101562 572.054688 499.792969 C 571.746094 499.476562 571.597656 499.105469 571.597656 498.671875 Z M 573.980469 493.511719 C 574.382812 493.625 574.65625 493.816406 574.816406 494.089844 C 574.980469 494.359375 575.035156 494.632812 574.972656 494.902344 C 574.917969 495.164062 574.761719 495.386719 574.503906 495.578125 C 574.253906 495.765625 573.917969 495.835938 573.5 495.777344 C 572.9375 495.664062 572.464844 495.441406 572.082031 495.109375 C 571.703125 494.78125 571.433594 494.398438 571.261719 493.960938 C 571.085938 493.523438 571.042969 493.054688 571.121094 492.542969 C 571.1875 492.027344 571.410156 491.539062 571.777344 491.070312 C 571.996094 490.769531 572.304688 490.457031 572.691406 490.148438 C 573.078125 489.835938 573.472656 489.523438 573.871094 489.207031 C 574.265625 488.894531 574.636719 488.582031 574.972656 488.261719 C 575.316406 487.9375 575.558594 487.601562 575.699219 487.253906 C 575.84375 486.90625 575.847656 486.542969 575.726562 486.171875 C 575.601562 485.808594 575.273438 485.425781 574.71875 485.027344 C 574.664062 485.003906 574.605469 484.992188 574.550781 484.96875 C 574.492188 484.953125 574.429688 484.933594 574.351562 484.914062 C 573.542969 484.953125 572.796875 485.199219 572.113281 485.648438 C 571.433594 486.101562 570.847656 486.648438 570.359375 487.292969 C 570.089844 487.617188 569.804688 487.796875 569.484375 487.835938 C 569.179688 487.871094 568.910156 487.8125 568.683594 487.652344 C 568.457031 487.488281 568.308594 487.253906 568.238281 486.941406 C 568.175781 486.632812 568.257812 486.296875 568.476562 485.933594 C 568.867188 485.441406 569.308594 484.96875 569.828125 484.515625 C 570.347656 484.0625 570.90625 483.683594 571.503906 483.378906 C 572.101562 483.078125 572.710938 482.863281 573.332031 482.730469 C 573.957031 482.59375 574.550781 482.589844 575.117188 482.714844 C 575.6875 482.839844 576.207031 483.113281 576.691406 483.523438 C 577.175781 483.9375 577.574219 484.542969 577.898438 485.339844 C 578.109375 485.851562 578.1875 486.34375 578.15625 486.816406 C 578.113281 487.289062 577.996094 487.746094 577.808594 488.175781 C 577.621094 488.609375 577.367188 489.015625 577.042969 489.378906 C 576.726562 489.75 576.367188 490.097656 575.96875 490.417969 C 575.835938 490.53125 575.601562 490.695312 575.273438 490.917969 C 574.941406 491.128906 574.625 491.375 574.328125 491.648438 C 574.019531 491.925781 573.78125 492.207031 573.605469 492.5 C 573.421875 492.792969 573.398438 493.082031 573.535156 493.363281 C 573.5625 493.402344 573.597656 493.425781 573.617188 493.425781 C 573.671875 493.460938 573.734375 493.476562 573.796875 493.476562 C 573.867188 493.476562 573.929688 493.488281 573.980469 493.511719 " fill-opacity="1" fill-rule="evenodd"/><path fill="#000000" d="M 250.757812 457.867188 L 236.007812 457.867188 C 235.183594 457.867188 234.511719 457.195312 234.511719 456.367188 C 234.511719 455.542969 235.183594 454.867188 236.007812 454.867188 L 250.621094 454.867188 C 251.441406 454.867188 252.183594 455.542969 252.183594 456.367188 C 252.183594 457.195312 251.578125 457.867188 250.757812 457.867188 " fill-opacity="1" fill-rule="nonzero"/><path fill="#000000" d="M 329.652344 516.726562 L 264.996094 516.726562 C 264.171875 516.726562 263.4375 516.0625 263.4375 515.234375 C 263.4375 514.410156 264.039062 513.742188 264.871094 513.742188 L 329.652344 513.742188 C 332.554688 513.742188 334.917969 511.378906 334.917969 508.476562 L 334.917969 463.125 C 334.917969 460.226562 332.554688 457.867188 329.652344 457.867188 L 284.28125 457.867188 C 283.457031 457.867188 282.789062 457.195312 282.789062 456.367188 C 282.789062 455.542969 283.457031 454.867188 284.28125 454.867188 L 329.652344 454.867188 C 334.203125 454.867188 337.910156 458.574219 337.910156 463.125 L 337.910156 508.476562 C 337.910156 513.023438 334.203125 516.726562 329.652344 516.726562 " fill-opacity="1" fill-rule="nonzero"/><path fill="#000000" d="M 324.570312 481.851562 L 275.105469 481.851562 C 274.285156 481.851562 273.613281 481.179688 273.613281 480.355469 C 273.613281 479.527344 274.285156 478.863281 275.105469 478.863281 L 324.570312 478.863281 C 325.390625 478.863281 326.0625 479.527344 326.0625 480.355469 C 326.0625 481.179688 325.390625 481.851562 324.570312 481.851562 " fill-opacity="1" fill-rule="nonzero"/><path fill="#000000" d="M 324.394531 469.824219 L 279.960938 469.824219 C 279.140625 469.824219 278.46875 469.152344 278.46875 468.328125 C 278.46875 467.5 279.140625 466.832031 279.960938 466.832031 L 324.394531 466.832031 C 325.21875 466.832031 325.890625 467.5 325.890625 468.328125 C 325.890625 469.152344 325.21875 469.824219 324.394531 469.824219 " fill-opacity="1" fill-rule="nonzero"/><path fill="#000000" d="M 324.230469 493.699219 L 270.710938 493.699219 C 269.882812 493.699219 269.21875 493.03125 269.21875 492.207031 C 269.21875 491.378906 269.882812 490.707031 270.710938 490.707031 L 324.230469 490.707031 C 325.050781 490.707031 325.714844 491.378906 325.714844 492.207031 C 325.714844 493.03125 325.050781 493.699219 324.230469 493.699219 " fill-opacity="1" fill-rule="nonzero"/><path fill="#000000" d="M 324.097656 505.382812 L 266.007812 505.382812 C 265.1875 505.382812 264.515625 504.71875 264.515625 503.898438 C 264.515625 503.066406 265.1875 502.394531 266.007812 502.394531 L 324.097656 502.394531 C 324.925781 502.394531 325.597656 503.066406 325.597656 503.898438 C 325.597656 504.71875 324.925781 505.382812 324.097656 505.382812 " fill-opacity="1" fill-rule="nonzero"/><path fill="#000000" d="M 308.21875 334.808594 C 307.617188 334.808594 307.070312 334.445312 306.835938 333.878906 L 300.492188 318.386719 C 300.179688 317.628906 300.546875 316.753906 301.3125 316.4375 C 302.074219 316.132812 302.945312 316.496094 303.257812 317.257812 L 308.082031 329.035156 L 315.8125 306.09375 C 316.078125 305.3125 316.921875 304.894531 317.707031 305.152344 C 318.488281 305.414062 318.910156 306.261719 318.648438 307.050781 L 309.636719 333.789062 C 309.4375 334.378906 308.890625 334.785156 308.269531 334.808594 C 308.246094 334.808594 308.238281 334.808594 308.21875 334.808594 " fill-opacity="1" fill-rule="nonzero"/><path fill="#000000" d="M 570.09375 404.1875 L 461.914062 404.1875 C 461.09375 404.1875 460.421875 403.523438 460.421875 402.695312 C 460.421875 401.871094 461.09375 401.203125 461.914062 401.203125 L 570.09375 401.203125 C 570.925781 401.203125 571.59375 401.871094 571.59375 402.695312 C 571.59375 403.523438 570.925781 404.1875 570.09375 404.1875 " fill-opacity="1" fill-rule="nonzero"/><path fill="#000000" d="M 570.238281 393.609375 L 462.054688 393.609375 C 461.230469 393.609375 460.558594 392.933594 460.558594 392.113281 C 460.558594 391.289062 461.230469 390.617188 462.054688 390.617188 L 570.238281 390.617188 C 571.0625 390.617188 571.730469 391.289062 571.730469 392.113281 C 571.730469 392.933594 571.0625 393.609375 570.238281 393.609375 " fill-opacity="1" fill-rule="nonzero"/><path fill="#000000" d="M 569.90625 414.550781 L 461.726562 414.550781 C 460.90625 414.550781 460.234375 413.878906 460.234375 413.054688 C 460.234375 412.234375 460.90625 411.5625 461.726562 411.5625 L 569.90625 411.5625 C 570.738281 411.5625 571.40625 412.234375 571.40625 413.054688 C 571.40625 413.878906 570.738281 414.550781 569.90625 414.550781 " fill-opacity="1" fill-rule="nonzero"/></svg>