<svg xmlns="http://www.w3.org/2000/svg" xmlns:xlink="http://www.w3.org/1999/xlink" width="1080" zoomAndPan="magnify" viewBox="0 0 810 809.999993" height="1080" preserveAspectRatio="xMidYMid meet" version="1.0"><defs><clipPath id="875d85fa3b"><path d="M 29 52.214844 L 780 52.214844 L 780 757.964844 L 29 757.964844 Z M 29 52.214844 " clip-rule="nonzero"/></clipPath></defs><g clip-path="url(#875d85fa3b)"><path fill="#ededee" d="M 778.871094 444.84375 L 728.476562 352.253906 C 730.820312 337.015625 733.164062 321.78125 733.164062 306.542969 C 733.164062 165.898438 619.476562 52.214844 478.832031 52.214844 C 416.714844 52.214844 356.941406 74.480469 311.234375 115.503906 L 186.996094 115.503906 C 183.480469 115.503906 181.136719 116.675781 179.964844 119.019531 L 104.957031 236.222656 L 39.320312 236.222656 C 33.460938 236.222656 29.945312 240.910156 29.945312 245.597656 C 29.945312 250.285156 33.460938 254.972656 39.320312 254.972656 L 109.644531 254.972656 C 113.160156 254.972656 115.503906 253.800781 116.675781 251.457031 L 191.683594 134.253906 L 417.886719 134.253906 L 469.457031 156.523438 C 469.457031 157.695312 469.457031 160.039062 469.457031 161.210938 C 469.457031 179.964844 484.691406 194.027344 502.273438 194.027344 C 521.027344 194.027344 535.089844 178.792969 535.089844 161.210938 C 535.089844 143.632812 519.855469 128.394531 502.273438 128.394531 C 491.726562 128.394531 482.347656 133.082031 476.488281 141.289062 L 422.574219 117.847656 C 421.402344 117.847656 420.230469 116.675781 419.058594 116.675781 L 338.1875 116.675781 C 378.039062 87.375 427.261719 70.964844 477.660156 70.964844 C 607.757812 70.964844 714.410156 177.621094 714.410156 307.714844 C 714.410156 322.953125 713.238281 338.1875 709.722656 353.425781 C 709.722656 355.769531 709.722656 359.285156 712.066406 360.457031 L 757.777344 443.671875 L 694.488281 468.285156 C 690.96875 469.457031 688.625 472.972656 688.625 476.488281 L 688.625 599.550781 L 592.519531 599.550781 C 587.832031 599.550781 583.144531 603.066406 583.144531 608.929688 L 583.144531 686.28125 L 363.972656 686.28125 L 363.972656 518.679688 C 363.972656 515.164062 362.800781 512.820312 359.285156 511.648438 C 339.359375 499.929688 324.125 488.207031 308.886719 471.800781 L 380.382812 471.800781 L 441.328125 564.390625 C 442.5 566.734375 446.015625 567.90625 448.359375 567.90625 L 495.242188 567.90625 C 498.757812 581.972656 511.648438 592.519531 526.886719 592.519531 C 545.636719 592.519531 559.703125 577.28125 559.703125 559.703125 C 559.703125 542.121094 544.464844 526.886719 526.886719 526.886719 C 511.648438 526.886719 498.757812 537.433594 495.242188 551.5 L 453.046875 551.5 L 400.308594 472.972656 L 481.175781 472.972656 C 484.691406 487.035156 497.585938 497.585938 512.820312 497.585938 C 531.574219 497.585938 545.636719 482.347656 545.636719 464.769531 C 545.636719 446.015625 530.402344 431.953125 512.820312 431.953125 C 497.585938 431.953125 484.691406 442.5 481.175781 456.5625 L 185.824219 456.5625 L 104.957031 340.53125 C 103.78125 335.84375 101.4375 334.671875 97.921875 334.671875 L 39.320312 334.671875 C 33.460938 334.671875 29.945312 338.1875 29.945312 342.875 C 29.945312 347.566406 33.460938 352.253906 39.320312 352.253906 L 94.40625 352.253906 L 175.277344 468.285156 C 176.449219 470.628906 179.964844 471.800781 182.308594 471.800781 L 286.621094 471.800781 C 305.371094 494.070312 324.125 510.476562 347.566406 524.542969 L 347.566406 686.28125 C 328.8125 686.28125 312.40625 702.691406 312.40625 721.441406 C 312.40625 741.367188 328.8125 757.777344 348.738281 757.777344 L 601.894531 757.777344 C 621.820312 757.777344 638.230469 741.367188 638.230469 721.441406 C 638.230469 701.519531 622.992188 686.28125 603.066406 686.28125 L 603.066406 618.304688 L 698.003906 618.304688 C 702.691406 618.304688 707.378906 614.789062 707.378906 608.929688 L 707.378906 483.519531 L 774.183594 457.734375 C 776.527344 456.5625 778.871094 455.390625 778.871094 453.046875 C 780.042969 449.53125 780.042969 447.1875 778.871094 444.84375 Z M 502.273438 144.804688 C 510.476562 144.804688 517.511719 151.835938 517.511719 160.039062 C 517.511719 168.246094 510.476562 175.277344 502.273438 175.277344 C 494.070312 175.277344 487.039062 168.246094 487.039062 160.039062 C 487.039062 151.835938 494.070312 144.804688 502.273438 144.804688 Z M 528.058594 542.121094 C 536.261719 542.121094 543.292969 549.152344 543.292969 557.359375 C 543.292969 565.5625 536.261719 572.59375 528.058594 572.59375 C 519.855469 572.59375 512.820312 565.5625 512.820312 557.359375 C 512.820312 549.152344 519.855469 542.121094 528.058594 542.121094 Z M 513.992188 447.1875 C 522.199219 447.1875 529.230469 454.21875 529.230469 462.425781 C 529.230469 470.628906 522.199219 477.660156 513.992188 477.660156 C 505.789062 477.660156 498.757812 470.628906 498.757812 462.425781 C 498.757812 454.21875 505.789062 447.1875 513.992188 447.1875 Z M 618.304688 721.441406 C 618.304688 731.992188 610.101562 740.195312 599.550781 740.195312 L 347.566406 740.195312 C 337.015625 740.195312 328.8125 731.992188 328.8125 721.441406 C 328.8125 710.894531 337.015625 702.691406 347.566406 702.691406 L 600.722656 702.691406 C 610.101562 703.863281 618.304688 712.066406 618.304688 721.441406 Z M 618.304688 721.441406 " fill-opacity="1" fill-rule="nonzero"/></g><path fill="#ededee" d="M 672.21875 306.542969 C 672.21875 311.230469 675.734375 315.921875 681.59375 315.921875 C 686.28125 315.921875 690.96875 312.402344 690.96875 306.542969 C 690.96875 232.707031 651.121094 162.382812 586.660156 124.878906 C 581.972656 122.535156 577.285156 123.707031 574.9375 128.394531 C 572.59375 133.082031 573.765625 137.773438 578.457031 140.117188 C 634.714844 174.105469 672.21875 238.566406 672.21875 306.542969 Z M 672.21875 306.542969 " fill-opacity="1" fill-rule="nonzero"/><path fill="#ededee" d="M 567.90625 124.878906 C 570.25 120.191406 567.90625 115.503906 563.21875 113.160156 C 544.464844 104.953125 525.714844 100.265625 505.789062 96.75 C 501.101562 96.75 496.414062 99.09375 496.414062 103.78125 C 495.242188 108.472656 498.757812 113.160156 503.445312 113.160156 C 522.199219 115.503906 539.777344 120.191406 556.1875 128.394531 C 560.875 131.910156 565.5625 129.566406 567.90625 124.878906 Z M 567.90625 124.878906 " fill-opacity="1" fill-rule="nonzero"/><path fill="#ededee" d="M 189.339844 555.015625 C 157.695312 555.015625 131.910156 581.972656 131.910156 614.789062 C 131.910156 647.605469 157.695312 674.5625 189.339844 674.5625 C 220.984375 674.5625 246.769531 647.605469 246.769531 614.789062 C 246.769531 581.972656 220.984375 555.015625 189.339844 555.015625 Z M 189.339844 656.980469 C 167.074219 656.980469 149.492188 638.230469 149.492188 614.789062 C 149.492188 591.347656 167.074219 572.59375 189.339844 572.59375 C 211.609375 572.59375 229.191406 591.347656 229.191406 614.789062 C 229.191406 638.230469 211.609375 656.980469 189.339844 656.980469 Z M 189.339844 656.980469 " fill-opacity="1" fill-rule="nonzero"/><path fill="#ededee" d="M 307.714844 642.917969 C 312.40625 641.746094 314.75 638.230469 314.75 634.710938 L 314.75 597.207031 C 314.75 592.519531 311.234375 589.003906 307.714844 589.003906 L 290.136719 585.488281 C 287.792969 578.453125 285.449219 571.421875 281.933594 564.390625 L 292.480469 547.980469 C 294.824219 544.464844 294.824219 539.777344 291.308594 537.433594 L 265.523438 510.476562 C 262.007812 506.960938 257.320312 506.960938 253.804688 509.304688 L 238.566406 519.851562 C 232.707031 516.335938 225.675781 513.992188 218.640625 511.648438 L 215.125 492.898438 C 213.953125 488.207031 210.4375 485.863281 206.921875 485.863281 L 170.589844 485.863281 C 165.902344 485.863281 162.382812 489.378906 162.382812 492.898438 L 158.867188 510.476562 C 151.835938 512.820312 145.976562 515.164062 138.945312 518.679688 L 123.707031 508.132812 C 120.191406 505.789062 115.503906 505.789062 111.988281 509.304688 L 86.203125 536.261719 C 83.859375 539.777344 82.6875 543.292969 85.03125 546.808594 L 95.578125 563.21875 C 92.0625 570.25 89.71875 577.28125 87.375 584.316406 L 69.792969 587.832031 C 65.105469 589.003906 62.761719 592.519531 62.761719 596.035156 L 62.761719 633.539062 C 62.761719 638.230469 66.277344 641.746094 69.792969 641.746094 L 88.546875 646.433594 C 90.890625 653.464844 93.234375 660.496094 96.75 667.53125 L 86.203125 683.9375 C 83.859375 687.453125 83.859375 692.140625 87.375 694.484375 L 113.160156 721.441406 C 116.675781 724.957031 121.363281 724.957031 124.878906 722.613281 L 140.117188 712.066406 C 145.976562 715.582031 153.007812 717.925781 160.039062 720.269531 L 163.558594 739.023438 C 164.730469 743.710938 168.246094 746.054688 171.761719 746.054688 L 208.09375 746.054688 C 212.78125 746.054688 216.296875 742.539062 216.296875 739.023438 L 219.8125 720.269531 C 226.847656 717.925781 232.707031 715.582031 239.738281 712.066406 L 254.976562 722.613281 C 258.492188 724.957031 263.179688 724.957031 266.695312 721.441406 L 292.480469 694.484375 C 294.824219 690.96875 295.996094 687.453125 293.652344 683.9375 L 283.105469 667.53125 C 286.621094 660.496094 288.964844 653.464844 291.308594 646.433594 Z M 280.757812 630.023438 C 277.242188 631.195312 274.898438 633.539062 273.726562 637.054688 C 271.382812 646.433594 267.867188 654.636719 263.179688 664.011719 C 262.007812 666.355469 262.007812 671.046875 263.179688 673.390625 L 272.554688 687.453125 L 257.320312 703.863281 L 243.253906 694.484375 C 239.738281 692.140625 236.222656 692.140625 233.878906 694.484375 C 225.675781 699.175781 217.46875 702.691406 209.265625 705.035156 C 205.75 706.207031 203.40625 708.550781 202.234375 712.066406 L 198.71875 729.648438 L 177.621094 729.648438 L 174.105469 712.066406 C 172.933594 708.550781 170.589844 706.207031 167.074219 705.035156 C 157.695312 702.691406 149.492188 699.175781 141.289062 694.484375 C 137.773438 692.140625 134.257812 692.140625 131.910156 694.484375 L 119.019531 703.863281 L 103.78125 687.453125 L 113.160156 672.21875 C 115.503906 669.875 115.503906 665.183594 113.160156 662.839844 C 108.472656 654.636719 104.957031 645.261719 102.609375 635.882812 C 101.4375 632.367188 99.09375 630.023438 95.578125 628.851562 L 79.171875 625.335938 L 79.171875 601.894531 L 95.578125 598.378906 C 99.09375 597.207031 101.4375 594.863281 102.609375 591.347656 C 104.957031 581.972656 108.472656 573.765625 113.160156 564.390625 C 114.332031 562.046875 114.332031 557.359375 113.160156 555.015625 L 103.78125 539.777344 L 119.019531 523.371094 L 133.082031 532.746094 C 136.601562 535.089844 140.117188 535.089844 142.460938 532.746094 C 150.664062 528.058594 158.867188 524.542969 168.246094 522.199219 C 171.761719 521.027344 174.105469 518.679688 175.277344 515.164062 L 178.792969 497.585938 L 199.890625 497.585938 L 203.40625 515.164062 C 204.578125 518.679688 206.921875 521.027344 210.4375 522.199219 C 219.8125 524.542969 228.019531 528.058594 235.050781 532.746094 C 238.566406 535.089844 242.082031 535.089844 244.425781 532.746094 L 258.492188 523.371094 L 273.726562 539.777344 L 264.351562 557.359375 C 262.007812 559.703125 262.007812 563.21875 264.351562 566.734375 C 269.039062 574.9375 272.554688 584.316406 274.898438 593.691406 C 276.070312 597.207031 278.414062 599.550781 281.933594 600.722656 L 298.339844 604.238281 L 298.339844 627.679688 Z M 280.757812 630.023438 " fill-opacity="1" fill-rule="nonzero"/><path fill="#ededee" d="M 322.953125 209.265625 C 326.46875 223.328125 339.359375 233.878906 354.597656 233.878906 C 373.351562 233.878906 387.414062 218.640625 387.414062 201.0625 C 387.414062 183.480469 372.179688 168.246094 354.597656 168.246094 C 339.359375 168.246094 326.46875 178.792969 322.953125 192.855469 L 218.640625 192.855469 C 216.296875 192.855469 212.78125 194.027344 211.609375 196.371094 L 144.804688 291.308594 C 144.804688 291.308594 144.804688 292.480469 144.804688 292.480469 C 144.804688 292.480469 144.804688 293.652344 144.804688 293.652344 C 144.804688 294.824219 143.632812 295.996094 143.632812 297.167969 C 143.632812 298.339844 143.632812 299.511719 144.804688 300.683594 C 144.804688 300.683594 144.804688 301.855469 144.804688 301.855469 C 144.804688 301.855469 144.804688 303.027344 144.804688 303.027344 L 211.609375 397.960938 C 212.78125 400.304688 216.296875 401.476562 218.640625 401.476562 L 545.636719 401.476562 C 549.15625 415.542969 562.046875 426.089844 577.285156 426.089844 C 596.035156 426.089844 610.101562 410.855469 610.101562 393.273438 C 610.101562 374.523438 594.863281 360.457031 577.285156 360.457031 C 562.046875 360.457031 549.15625 371.003906 545.636719 385.070312 L 395.617188 385.070312 L 447.1875 307.714844 L 489.382812 307.714844 C 492.898438 321.78125 505.789062 332.328125 521.027344 332.328125 C 539.777344 332.328125 553.84375 317.09375 553.84375 299.511719 C 553.84375 281.929688 538.605469 266.695312 521.027344 266.695312 C 505.789062 266.695312 492.898438 277.242188 489.382812 291.308594 L 442.5 291.308594 C 438.984375 291.308594 436.640625 292.480469 435.46875 294.824219 L 374.523438 381.554688 L 223.332031 381.554688 L 169.417969 304.199219 L 298.339844 304.199219 C 301.855469 318.265625 314.75 328.8125 329.984375 328.8125 C 348.738281 328.8125 362.800781 313.574219 362.800781 295.996094 C 362.800781 278.414062 347.566406 263.179688 329.984375 263.179688 C 314.75 263.179688 301.855469 273.726562 298.339844 287.792969 L 169.417969 287.792969 L 223.332031 210.4375 L 322.953125 210.4375 Z M 354.597656 185.824219 C 362.800781 185.824219 369.835938 192.855469 369.835938 201.0625 C 369.835938 209.265625 362.800781 216.296875 354.597656 216.296875 C 346.394531 216.296875 339.359375 209.265625 339.359375 201.0625 C 339.359375 192.855469 346.394531 185.824219 354.597656 185.824219 Z M 522.199219 279.585938 C 530.402344 279.585938 537.433594 286.621094 537.433594 294.824219 C 537.433594 303.027344 530.402344 310.058594 522.199219 310.058594 C 513.992188 310.058594 506.960938 303.027344 506.960938 294.824219 C 505.789062 286.621094 512.820312 279.585938 522.199219 279.585938 Z M 577.285156 374.523438 C 585.488281 374.523438 592.519531 381.554688 592.519531 389.757812 C 592.519531 397.960938 585.488281 404.996094 577.285156 404.996094 C 569.078125 404.996094 562.046875 397.960938 562.046875 389.757812 C 560.875 381.554688 567.90625 374.523438 577.285156 374.523438 Z M 329.984375 279.585938 C 338.1875 279.585938 345.222656 286.621094 345.222656 294.824219 C 345.222656 303.027344 338.1875 310.058594 329.984375 310.058594 C 321.78125 310.058594 314.75 303.027344 314.75 294.824219 C 314.75 286.621094 321.78125 279.585938 329.984375 279.585938 Z M 329.984375 279.585938 " fill-opacity="1" fill-rule="nonzero"/><path fill="#ededee" d="M 120.191406 304.199219 C 124.878906 304.199219 129.566406 300.683594 129.566406 294.824219 C 129.566406 290.136719 126.050781 285.449219 120.191406 285.449219 L 85.03125 285.449219 C 80.34375 285.449219 75.65625 288.964844 75.65625 294.824219 C 75.65625 299.511719 79.171875 304.199219 85.03125 304.199219 Z M 120.191406 304.199219 " fill-opacity="1" fill-rule="nonzero"/></svg>