<svg xmlns="http://www.w3.org/2000/svg" xmlns:xlink="http://www.w3.org/1999/xlink" width="1080" zoomAndPan="magnify" viewBox="0 0 810 809.999993" height="1080" preserveAspectRatio="xMidYMid meet" version="1.0"><defs><g/><clipPath id="ce729c3aa5"><path d="M 159.667969 76.671875 L 650.167969 76.671875 L 650.167969 542 L 159.667969 542 Z M 159.667969 76.671875 " clip-rule="nonzero"/></clipPath></defs><g fill="#ededee" fill-opacity="1"><g transform="translate(155.675576, 688.252982)"><g><path d="M 113.03125 -100.359375 C 113.351562 -100.359375 113.515625 -100.035156 113.515625 -99.390625 C 113.515625 -98.742188 113.351562 -98.421875 113.03125 -98.421875 C 108.539062 -98.421875 105.273438 -97.1875 103.234375 -94.71875 C 101.203125 -92.257812 100.1875 -88.25 100.1875 -82.6875 L 100.1875 1.921875 C 100.1875 2.140625 99.914062 2.300781 99.375 2.40625 C 98.84375 2.507812 98.472656 2.457031 98.265625 2.25 L 24.40625 -87.1875 L 22.953125 -88.796875 L 22.953125 -17.5 C 22.953125 -11.9375 23.941406 -7.945312 25.921875 -5.53125 C 27.910156 -3.125 31.097656 -1.921875 35.484375 -1.921875 C 35.804688 -1.921875 35.96875 -1.597656 35.96875 -0.953125 C 35.96875 -0.316406 35.804688 0 35.484375 0 C 32.804688 0 30.773438 -0.0507812 29.390625 -0.15625 L 21.359375 -0.328125 L 13.171875 -0.15625 C 11.671875 -0.0507812 9.472656 0 6.578125 0 C 6.367188 0 6.265625 -0.316406 6.265625 -0.953125 C 6.265625 -1.597656 6.367188 -1.921875 6.578125 -1.921875 C 11.179688 -1.921875 14.445312 -3.125 16.375 -5.53125 C 18.300781 -7.945312 19.265625 -11.9375 19.265625 -17.5 L 19.265625 -92.640625 C 15.085938 -96.492188 10.859375 -98.421875 6.578125 -98.421875 C 6.253906 -98.421875 6.09375 -98.742188 6.09375 -99.390625 C 6.09375 -100.035156 6.253906 -100.359375 6.578125 -100.359375 L 12.53125 -100.1875 C 13.8125 -100.082031 15.578125 -100.03125 17.828125 -100.03125 C 20.179688 -100.03125 22.101562 -100.082031 23.59375 -100.1875 C 25.09375 -100.300781 26.273438 -100.359375 27.140625 -100.359375 C 27.992188 -100.359375 28.609375 -100.171875 28.984375 -99.796875 C 29.359375 -99.421875 29.972656 -98.585938 30.828125 -97.296875 C 32.109375 -95.367188 33.394531 -93.601562 34.6875 -92 L 96.5 -16.0625 L 96.5 -82.6875 C 96.5 -88.25 95.5625 -92.257812 93.6875 -94.71875 C 91.8125 -97.1875 88.679688 -98.421875 84.296875 -98.421875 C 84.078125 -98.421875 83.96875 -98.742188 83.96875 -99.390625 C 83.96875 -100.035156 84.078125 -100.359375 84.296875 -100.359375 L 90.5625 -100.1875 C 93.769531 -99.976562 96.390625 -99.875 98.421875 -99.875 C 100.347656 -99.875 103.023438 -99.976562 106.453125 -100.1875 Z M 113.03125 -100.359375 "/></g></g></g><g fill="#ededee" fill-opacity="1"><g transform="translate(272.405065, 688.252982)"><g><path d="M 76.265625 -23.921875 C 76.265625 -24.140625 76.476562 -24.25 76.90625 -24.25 C 77.226562 -24.25 77.519531 -24.191406 77.78125 -24.078125 C 78.050781 -23.972656 78.1875 -23.816406 78.1875 -23.609375 C 77.226562 -16.859375 76.75 -9.789062 76.75 -2.40625 C 76.75 -1.550781 76.5625 -0.9375 76.1875 -0.5625 C 75.8125 -0.1875 75.144531 0 74.1875 0 L 6.90625 0 C 6.6875 0 6.578125 -0.316406 6.578125 -0.953125 C 6.578125 -1.597656 6.6875 -1.921875 6.90625 -1.921875 C 10.96875 -1.921875 13.9375 -2.1875 15.8125 -2.71875 C 17.6875 -3.257812 18.972656 -4.304688 19.671875 -5.859375 C 20.367188 -7.410156 20.71875 -9.789062 20.71875 -13 L 20.71875 -87.34375 C 20.71875 -90.550781 20.367188 -92.90625 19.671875 -94.40625 C 18.972656 -95.90625 17.6875 -96.945312 15.8125 -97.53125 C 13.9375 -98.125 10.96875 -98.421875 6.90625 -98.421875 C 6.6875 -98.421875 6.578125 -98.742188 6.578125 -99.390625 C 6.578125 -100.035156 6.6875 -100.359375 6.90625 -100.359375 L 71.453125 -100.359375 C 72.410156 -100.359375 72.890625 -99.875 72.890625 -98.90625 L 73.21875 -79.15625 C 73.21875 -78.832031 72.945312 -78.644531 72.40625 -78.59375 C 71.875 -78.539062 71.554688 -78.675781 71.453125 -79 C 71.128906 -84.664062 69.414062 -89.078125 66.3125 -92.234375 C 63.207031 -95.398438 59.085938 -96.984375 53.953125 -96.984375 L 44.15625 -96.984375 C 40.40625 -96.984375 37.644531 -96.6875 35.875 -96.09375 C 34.113281 -95.507812 32.882812 -94.492188 32.1875 -93.046875 C 31.5 -91.597656 31.15625 -89.429688 31.15625 -86.546875 L 31.15625 -53.953125 L 50.734375 -53.953125 C 55.867188 -53.953125 59.535156 -54.804688 61.734375 -56.515625 C 63.929688 -58.234375 65.03125 -61.125 65.03125 -65.1875 C 65.03125 -65.40625 65.347656 -65.515625 65.984375 -65.515625 C 66.628906 -65.515625 66.953125 -65.40625 66.953125 -65.1875 L 66.796875 -52.1875 C 66.796875 -49.082031 66.847656 -46.726562 66.953125 -45.125 L 67.109375 -37.40625 C 67.109375 -37.195312 66.785156 -37.09375 66.140625 -37.09375 C 65.503906 -37.09375 65.1875 -37.195312 65.1875 -37.40625 C 65.1875 -42.113281 64.035156 -45.484375 61.734375 -47.515625 C 59.429688 -49.554688 55.601562 -50.578125 50.25 -50.578125 L 31.15625 -50.578125 L 31.15625 -13.640625 C 31.15625 -10.648438 31.472656 -8.457031 32.109375 -7.0625 C 32.753906 -5.675781 33.929688 -4.710938 35.640625 -4.171875 C 37.359375 -3.640625 40.035156 -3.375 43.671875 -3.375 L 56.515625 -3.375 C 61.648438 -3.375 65.929688 -5.191406 69.359375 -8.828125 C 72.785156 -12.472656 75.085938 -17.503906 76.265625 -23.921875 Z M 76.265625 -23.921875 "/></g></g></g><g fill="#ededee" fill-opacity="1"><g transform="translate(358.627532, 688.252982)"><g><path d="M 101.953125 -1.921875 C 102.171875 -1.921875 102.28125 -1.597656 102.28125 -0.953125 C 102.28125 -0.316406 102.171875 0 101.953125 0 C 99.171875 0 96.976562 -0.0507812 95.375 -0.15625 L 86.546875 -0.328125 L 74.1875 -0.15625 C 72.257812 -0.0507812 69.632812 0 66.3125 0 C 66.09375 0 65.984375 -0.316406 65.984375 -0.953125 C 65.984375 -1.597656 66.09375 -1.921875 66.3125 -1.921875 C 69.195312 -1.921875 71.28125 -2.132812 72.5625 -2.5625 C 73.851562 -3 74.5 -3.695312 74.5 -4.65625 C 74.5 -5.613281 74.019531 -6.789062 73.0625 -8.1875 L 48.65625 -45.125 L 28.265625 -16.375 C 25.691406 -12.738281 24.40625 -9.796875 24.40625 -7.546875 C 24.40625 -3.796875 27.5625 -1.921875 33.875 -1.921875 C 34.195312 -1.921875 34.359375 -1.597656 34.359375 -0.953125 C 34.359375 -0.316406 34.195312 0 33.875 0 C 30.664062 0 28.207031 -0.0507812 26.5 -0.15625 L 15.40625 -0.328125 L 8.671875 -0.15625 C 7.492188 -0.0507812 5.515625 0 2.734375 0 C 2.410156 0 2.25 -0.316406 2.25 -0.953125 C 2.25 -1.597656 2.410156 -1.921875 2.734375 -1.921875 C 6.265625 -1.921875 9.898438 -3.148438 13.640625 -5.609375 C 17.390625 -8.078125 21.03125 -11.71875 24.5625 -16.53125 L 47.203125 -47.53125 L 21.359375 -86.703125 C 18.460938 -90.984375 15.648438 -94.003906 12.921875 -95.765625 C 10.191406 -97.535156 7.007812 -98.421875 3.375 -98.421875 C 3.15625 -98.421875 3.046875 -98.742188 3.046875 -99.390625 C 3.046875 -100.035156 3.15625 -100.359375 3.375 -100.359375 L 9.46875 -100.1875 C 12.25 -99.976562 14.285156 -99.875 15.578125 -99.875 C 19.210938 -99.875 23.597656 -99.976562 28.734375 -100.1875 L 37.09375 -100.359375 C 37.414062 -100.359375 37.578125 -100.035156 37.578125 -99.390625 C 37.578125 -98.742188 37.414062 -98.421875 37.09375 -98.421875 C 34.3125 -98.421875 32.25 -98.207031 30.90625 -97.78125 C 29.570312 -97.351562 28.90625 -96.601562 28.90625 -95.53125 C 28.90625 -94.675781 29.382812 -93.5 30.34375 -92 L 54.109375 -56.203125 L 72.890625 -82.84375 C 75.785156 -86.914062 77.234375 -90.238281 77.234375 -92.8125 C 77.234375 -96.550781 74.234375 -98.421875 68.234375 -98.421875 C 67.910156 -98.421875 67.75 -98.742188 67.75 -99.390625 C 67.75 -100.035156 67.910156 -100.359375 68.234375 -100.359375 L 75.46875 -100.1875 C 79.53125 -99.976562 83.222656 -99.875 86.546875 -99.875 C 88.472656 -99.875 90.71875 -99.976562 93.28125 -100.1875 L 99.234375 -100.359375 C 99.546875 -100.359375 99.703125 -100.035156 99.703125 -99.390625 C 99.703125 -98.742188 99.546875 -98.421875 99.234375 -98.421875 C 95.691406 -98.421875 91.992188 -97.082031 88.140625 -94.40625 C 84.296875 -91.726562 80.445312 -87.769531 76.59375 -82.53125 L 55.546875 -53.78125 L 82.375 -13.328125 C 85.15625 -9.148438 88.015625 -6.203125 90.953125 -4.484375 C 93.898438 -2.773438 97.566406 -1.921875 101.953125 -1.921875 Z M 101.953125 -1.921875 "/></g></g></g><g fill="#ededee" fill-opacity="1"><g transform="translate(463.314784, 688.252982)"><g><path d="M 91.84375 -82.6875 C 91.84375 -93.175781 87.1875 -98.421875 77.875 -98.421875 C 77.550781 -98.421875 77.390625 -98.742188 77.390625 -99.390625 C 77.390625 -100.035156 77.550781 -100.359375 77.875 -100.359375 L 84.78125 -100.1875 C 88.632812 -99.976562 91.679688 -99.875 93.921875 -99.875 C 95.742188 -99.875 98.367188 -99.976562 101.796875 -100.1875 L 108.546875 -100.359375 C 108.753906 -100.359375 108.859375 -100.035156 108.859375 -99.390625 C 108.859375 -98.742188 108.753906 -98.421875 108.546875 -98.421875 C 99.972656 -98.421875 95.6875 -93.175781 95.6875 -82.6875 L 95.6875 -37.09375 C 95.6875 -24.78125 92.257812 -15.171875 85.40625 -8.265625 C 78.5625 -1.359375 69.359375 2.09375 57.796875 2.09375 C 49.878906 2.09375 42.945312 0.539062 37 -2.5625 C 31.0625 -5.664062 26.457031 -10.082031 23.1875 -15.8125 C 19.925781 -21.539062 18.296875 -28.257812 18.296875 -35.96875 L 18.296875 -87.34375 C 18.296875 -90.550781 17.972656 -92.90625 17.328125 -94.40625 C 16.691406 -95.90625 15.4375 -96.945312 13.5625 -97.53125 C 11.6875 -98.125 8.71875 -98.421875 4.65625 -98.421875 C 4.4375 -98.421875 4.328125 -98.742188 4.328125 -99.390625 C 4.328125 -100.035156 4.4375 -100.359375 4.65625 -100.359375 L 12.53125 -100.1875 C 17.019531 -99.976562 20.65625 -99.875 23.4375 -99.875 C 26.4375 -99.875 30.1875 -99.976562 34.6875 -100.1875 L 42.390625 -100.359375 C 42.710938 -100.359375 42.875 -100.035156 42.875 -99.390625 C 42.875 -98.742188 42.710938 -98.421875 42.390625 -98.421875 C 38.429688 -98.421875 35.488281 -98.097656 33.5625 -97.453125 C 31.632812 -96.816406 30.347656 -95.722656 29.703125 -94.171875 C 29.054688 -92.617188 28.734375 -90.238281 28.734375 -87.03125 L 28.734375 -41.578125 C 28.734375 -29.054688 31.597656 -19.453125 37.328125 -12.765625 C 43.054688 -6.078125 51.054688 -2.734375 61.328125 -2.734375 C 70.960938 -2.734375 78.457031 -5.753906 83.8125 -11.796875 C 89.164062 -17.847656 91.84375 -26.222656 91.84375 -36.921875 Z M 91.84375 -82.6875 "/></g></g></g><g fill="#ededee" fill-opacity="1"><g transform="translate(575.387952, 688.252982)"><g><path d="M 23.28125 -81.5625 C 23.28125 -77.382812 24.296875 -73.742188 26.328125 -70.640625 C 28.367188 -67.535156 30.859375 -64.941406 33.796875 -62.859375 C 36.742188 -60.773438 40.785156 -58.179688 45.921875 -55.078125 C 51.597656 -51.648438 55.957031 -48.8125 59 -46.5625 C 62.050781 -44.3125 64.675781 -41.445312 66.875 -37.96875 C 69.070312 -34.488281 70.171875 -30.34375 70.171875 -25.53125 C 70.171875 -20.394531 68.882812 -15.738281 66.3125 -11.5625 C 63.738281 -7.382812 59.960938 -4.09375 54.984375 -1.6875 C 50.015625 0.71875 44.050781 1.921875 37.09375 1.921875 C 28.851562 1.921875 21.304688 0.0507812 14.453125 -3.6875 C 13.910156 -4.007812 13.5625 -4.382812 13.40625 -4.8125 C 13.25 -5.238281 13.113281 -5.882812 13 -6.75 L 10.921875 -28.578125 C 10.804688 -29.003906 11.046875 -29.269531 11.640625 -29.375 C 12.234375 -29.488281 12.582031 -29.332031 12.6875 -28.90625 C 14.394531 -21.195312 17.578125 -14.554688 22.234375 -8.984375 C 26.890625 -3.421875 33.070312 -0.640625 40.78125 -0.640625 C 46.132812 -0.640625 50.65625 -2.109375 54.34375 -5.046875 C 58.039062 -7.992188 59.890625 -12.679688 59.890625 -19.109375 C 59.890625 -23.921875 58.816406 -28.09375 56.671875 -31.625 C 54.535156 -35.15625 51.941406 -38.070312 48.890625 -40.375 C 45.835938 -42.675781 41.691406 -45.378906 36.453125 -48.484375 C 31.304688 -51.585938 27.257812 -54.265625 24.3125 -56.515625 C 21.375 -58.765625 18.890625 -61.601562 16.859375 -65.03125 C 14.828125 -68.457031 13.8125 -72.46875 13.8125 -77.0625 C 13.8125 -82.414062 15.226562 -86.992188 18.0625 -90.796875 C 20.894531 -94.597656 24.585938 -97.4375 29.140625 -99.3125 C 33.691406 -101.1875 38.535156 -102.125 43.671875 -102.125 C 49.984375 -102.125 56.242188 -100.835938 62.453125 -98.265625 C 64.066406 -97.734375 64.875 -96.820312 64.875 -95.53125 L 65.984375 -77.0625 C 65.984375 -76.632812 65.71875 -76.421875 65.1875 -76.421875 C 64.65625 -76.421875 64.332031 -76.632812 64.21875 -77.0625 C 63.363281 -82.632812 61.0625 -87.800781 57.3125 -92.5625 C 53.570312 -97.320312 48.171875 -99.703125 41.109375 -99.703125 C 35.109375 -99.703125 30.632812 -97.960938 27.6875 -94.484375 C 24.75 -91.003906 23.28125 -86.695312 23.28125 -81.5625 Z M 23.28125 -81.5625 "/></g></g></g><g clip-path="url(#ce729c3aa5)"><path fill="#ededee" d="M 394.398438 225.4375 C 393.613281 224.164062 392.53125 223.28125 391.160156 222.691406 L 302.347656 171.367188 L 302.347656 83.441406 C 302.449219 79.714844 299.40625 76.671875 295.773438 76.671875 C 295.675781 76.671875 295.675781 76.671875 295.578125 76.671875 C 291.847656 76.769531 288.90625 79.8125 289.003906 83.441406 L 289.003906 174.214844 C 288.710938 175.882812 289.101562 177.453125 289.984375 178.824219 C 290.769531 180.101562 291.847656 180.984375 293.222656 181.574219 L 382.128906 232.894531 L 382.128906 252.71875 L 270.261719 188.148438 L 270.261719 115.726562 C 270.359375 112 267.316406 108.957031 263.6875 108.957031 C 263.585938 108.957031 263.585938 108.957031 263.488281 108.957031 C 259.761719 109.054688 256.816406 112.097656 256.914062 115.726562 L 256.914062 190.996094 C 256.621094 192.5625 257.011719 194.234375 257.894531 195.605469 C 258.679688 196.882812 259.761719 197.765625 261.132812 198.355469 L 382.226562 268.320312 L 382.226562 534.945312 C 382.226562 535.042969 382.226562 535.042969 382.226562 535.140625 C 382.226562 538.871094 385.367188 541.816406 389 541.816406 C 392.730469 541.816406 395.671875 538.675781 395.671875 535.042969 L 395.671875 265.476562 C 395.769531 264.789062 395.769531 264.101562 395.671875 263.414062 L 395.671875 230.246094 C 395.671875 228.578125 395.28125 226.8125 394.398438 225.4375 Z M 363.191406 373.8125 L 363.191406 342.507812 C 363.386719 340.9375 363.09375 339.269531 362.210938 337.898438 C 361.425781 336.621094 360.246094 335.640625 358.875 335.050781 L 266.726562 281.863281 C 265.648438 281.175781 264.371094 280.882812 263.097656 280.882812 C 260.742188 280.980469 258.582031 282.257812 257.40625 284.316406 C 255.640625 287.554688 256.71875 291.675781 259.957031 293.445312 L 349.648438 345.257812 L 349.648438 363.019531 L 205.589844 279.902344 L 205.589844 180.199219 C 205.691406 176.472656 202.648438 173.429688 199.015625 173.429688 C 198.917969 173.429688 198.917969 173.429688 198.820312 173.429688 C 195.089844 173.527344 192.148438 176.570312 192.246094 180.199219 L 192.246094 282.746094 C 191.953125 284.414062 192.34375 285.984375 193.226562 287.359375 C 194.011719 288.636719 195.089844 289.519531 196.464844 290.105469 L 349.84375 378.621094 L 349.84375 395.402344 L 173.207031 293.445312 L 173.207031 212.78125 C 173.304688 209.050781 170.265625 206.007812 166.632812 206.007812 C 166.535156 206.007812 166.535156 206.007812 166.4375 206.007812 C 162.707031 206.105469 159.765625 209.148438 159.863281 212.78125 L 159.863281 296.289062 C 159.765625 296.976562 159.765625 297.761719 159.863281 298.449219 C 160.058594 301.785156 162.609375 304.433594 165.945312 304.730469 L 349.941406 411.003906 L 349.941406 498.929688 L 297.441406 529.253906 C 297.441406 529.253906 297.34375 529.253906 297.34375 529.351562 C 294.105469 531.214844 293.125 535.339844 294.988281 538.578125 C 296.855469 541.816406 300.976562 542.796875 304.214844 540.929688 L 359.167969 509.234375 C 359.953125 508.941406 360.738281 508.449219 361.328125 507.859375 C 361.328125 507.859375 361.328125 507.859375 361.425781 507.859375 C 361.425781 507.859375 361.523438 507.761719 361.523438 507.664062 C 362.601562 506.585938 363.289062 505.113281 363.484375 503.542969 C 363.484375 503.542969 363.484375 503.445312 363.484375 503.445312 C 363.484375 503.25 363.484375 503.152344 363.484375 502.953125 C 363.484375 502.855469 363.484375 502.660156 363.484375 502.5625 C 363.484375 502.464844 363.484375 502.464844 363.484375 502.367188 C 363.484375 502.265625 363.484375 502.070312 363.386719 501.972656 L 363.386719 408.453125 C 363.484375 407.765625 363.484375 407.078125 363.386719 406.394531 L 363.386719 376.167969 C 363.289062 375.1875 363.289062 374.5 363.191406 373.8125 Z M 650.128906 296.191406 L 650.128906 212.679688 C 650.226562 208.953125 647.183594 205.910156 643.554688 205.910156 C 643.453125 205.910156 643.453125 205.910156 643.355469 205.910156 C 639.628906 206.007812 636.683594 209.050781 636.78125 212.679688 L 636.78125 293.34375 L 460.144531 395.304688 L 460.144531 378.523438 L 613.523438 290.007812 C 614.898438 289.519531 615.976562 288.535156 616.761719 287.261719 C 617.644531 285.886719 618.039062 284.21875 617.746094 282.648438 L 617.746094 180.199219 C 617.84375 176.472656 614.800781 173.429688 611.167969 173.429688 C 611.070312 173.429688 611.070312 173.429688 610.972656 173.429688 C 607.242188 173.527344 604.300781 176.570312 604.398438 180.199219 L 604.398438 279.902344 L 460.242188 363.117188 L 460.242188 345.355469 L 549.933594 293.542969 C 553.171875 291.773438 554.351562 287.652344 552.488281 284.414062 C 551.308594 282.355469 549.148438 281.078125 546.796875 280.980469 C 545.519531 280.980469 544.242188 281.273438 543.164062 281.960938 L 451.019531 335.148438 C 449.644531 335.738281 448.46875 336.71875 447.683594 337.996094 C 446.800781 339.371094 446.503906 340.9375 446.699219 342.609375 L 446.699219 373.910156 C 446.601562 374.597656 446.601562 375.285156 446.699219 375.972656 L 446.699219 406.195312 C 446.601562 406.882812 446.601562 407.570312 446.699219 408.257812 L 446.699219 501.777344 C 446.699219 501.875 446.699219 502.070312 446.601562 502.167969 C 446.601562 502.265625 446.601562 502.265625 446.601562 502.367188 C 446.601562 502.464844 446.601562 502.660156 446.601562 502.757812 C 446.601562 502.953125 446.601562 503.050781 446.601562 503.25 C 446.601562 503.25 446.601562 503.347656 446.601562 503.347656 C 446.699219 504.917969 447.386719 506.390625 448.566406 507.46875 C 448.566406 507.566406 448.664062 507.566406 448.664062 507.664062 C 448.664062 507.664062 448.664062 507.664062 448.761719 507.664062 C 449.351562 508.253906 450.136719 508.746094 450.921875 509.039062 L 505.875 540.734375 C 509.113281 542.601562 513.234375 541.519531 515.097656 538.378906 C 516.964844 535.140625 515.882812 531.019531 512.742188 529.15625 C 512.742188 529.15625 512.644531 529.15625 512.644531 529.058594 L 460.144531 498.734375 L 460.144531 410.808594 L 644.140625 304.53125 C 647.476562 304.238281 650.03125 301.492188 650.226562 298.253906 C 650.226562 297.664062 650.226562 296.878906 650.128906 296.191406 Z M 552.191406 195.605469 C 553.074219 194.234375 553.46875 192.5625 553.171875 190.996094 L 553.171875 115.726562 C 553.273438 112 550.230469 108.957031 546.597656 108.957031 C 546.5 108.957031 546.5 108.957031 546.402344 108.957031 C 542.671875 109.054688 539.730469 112.097656 539.828125 115.726562 L 539.828125 188.148438 L 427.957031 252.71875 L 427.957031 232.894531 L 516.863281 181.574219 C 518.238281 181.082031 519.316406 180.101562 520.101562 178.824219 C 520.988281 177.453125 521.378906 175.785156 521.085938 174.214844 L 521.085938 83.441406 C 521.183594 79.714844 518.140625 76.671875 514.511719 76.671875 C 514.410156 76.671875 514.410156 76.671875 514.3125 76.671875 C 510.585938 76.769531 507.640625 79.8125 507.738281 83.441406 L 507.738281 171.367188 L 418.636719 222.691406 C 417.261719 223.179688 416.183594 224.164062 415.398438 225.4375 C 414.414062 226.910156 414.121094 228.578125 414.414062 230.246094 L 414.414062 263.414062 C 414.316406 264.101562 414.316406 264.789062 414.414062 265.476562 L 414.414062 534.945312 C 414.414062 538.675781 417.359375 541.714844 421.089844 541.714844 C 424.816406 541.714844 427.859375 538.773438 427.859375 535.042969 C 427.859375 534.945312 427.859375 534.945312 427.859375 534.847656 L 427.859375 268.320312 L 548.953125 198.355469 C 550.328125 197.765625 551.40625 196.882812 552.191406 195.605469 Z M 552.191406 195.605469 " fill-opacity="1" fill-rule="nonzero"/></g></svg>