<svg xmlns="http://www.w3.org/2000/svg" xmlns:xlink="http://www.w3.org/1999/xlink" width="250" zoomAndPan="magnify" viewBox="0 0 187.5 60" height="80" preserveAspectRatio="xMidYMid meet" version="1.0"><defs><g/><clipPath id="e4c5a3c04c"><path d="M 0.226562 5.207031 L 52.304688 5.207031 L 52.304688 54.660156 L 0.226562 54.660156 Z M 0.226562 5.207031 " clip-rule="nonzero"/></clipPath></defs><g fill="#ededee" fill-opacity="1"><g transform="translate(57.196901, 41.22008)"><g><path d="M 28.34375 -24.5 C 28.394531 -24.5 28.421875 -24.421875 28.421875 -24.265625 C 28.421875 -24.109375 28.394531 -24.03125 28.34375 -24.03125 C 27.300781 -24.03125 26.476562 -23.617188 25.875 -22.796875 C 25.269531 -21.972656 24.96875 -20.867188 24.96875 -19.484375 L 24.96875 0.59375 C 24.96875 0.664062 24.910156 0.710938 24.796875 0.734375 C 24.679688 0.765625 24.597656 0.753906 24.546875 0.703125 L 6.15625 -20.234375 L 6.15625 -4.984375 C 6.15625 -3.597656 6.441406 -2.5 7.015625 -1.6875 C 7.585938 -0.875 8.382812 -0.46875 9.40625 -0.46875 C 9.457031 -0.46875 9.484375 -0.390625 9.484375 -0.234375 C 9.484375 -0.078125 9.457031 0 9.40625 0 C 8.675781 0 8.113281 -0.015625 7.71875 -0.046875 L 5.609375 -0.078125 L 3.171875 -0.046875 C 2.734375 -0.015625 2.09375 0 1.25 0 C 1.175781 0 1.140625 -0.078125 1.140625 -0.234375 C 1.140625 -0.390625 1.175781 -0.46875 1.25 -0.46875 C 2.40625 -0.46875 3.316406 -0.875 3.984375 -1.6875 C 4.648438 -2.5 4.984375 -3.597656 4.984375 -4.984375 L 4.984375 -21.5625 C 4.117188 -22.5 3.378906 -23.144531 2.765625 -23.5 C 2.148438 -23.851562 1.515625 -24.03125 0.859375 -24.03125 C 0.804688 -24.03125 0.78125 -24.109375 0.78125 -24.265625 C 0.78125 -24.421875 0.804688 -24.5 0.859375 -24.5 L 2.515625 -24.46875 C 2.847656 -24.4375 3.34375 -24.421875 4 -24.421875 L 6.984375 -24.46875 C 7.347656 -24.488281 7.789062 -24.5 8.3125 -24.5 C 8.519531 -24.5 8.675781 -24.445312 8.78125 -24.34375 C 8.882812 -24.238281 9.066406 -24.015625 9.328125 -23.671875 C 9.773438 -23.078125 10.085938 -22.675781 10.265625 -22.46875 L 23.828125 -6.828125 L 23.828125 -19.484375 C 23.828125 -20.890625 23.539062 -22 22.96875 -22.8125 C 22.394531 -23.625 21.597656 -24.03125 20.578125 -24.03125 C 20.523438 -24.03125 20.5 -24.109375 20.5 -24.265625 C 20.5 -24.421875 20.523438 -24.5 20.578125 -24.5 L 22.265625 -24.46875 C 23.097656 -24.414062 23.804688 -24.390625 24.390625 -24.390625 C 24.910156 -24.390625 25.640625 -24.414062 26.578125 -24.46875 Z M 28.34375 -24.5 "/></g></g></g><g fill="#ededee" fill-opacity="1"><g transform="translate(86.009051, 41.22008)"><g><path d="M 19.4375 -6.234375 C 19.4375 -6.285156 19.492188 -6.3125 19.609375 -6.3125 C 19.679688 -6.3125 19.75 -6.289062 19.8125 -6.25 C 19.882812 -6.207031 19.921875 -6.175781 19.921875 -6.15625 C 19.648438 -4.113281 19.515625 -2.257812 19.515625 -0.59375 C 19.515625 -0.382812 19.472656 -0.234375 19.390625 -0.140625 C 19.316406 -0.046875 19.164062 0 18.9375 0 L 1.609375 0 C 1.523438 0 1.484375 -0.078125 1.484375 -0.234375 C 1.484375 -0.390625 1.523438 -0.46875 1.609375 -0.46875 C 2.441406 -0.46875 3.046875 -0.53125 3.421875 -0.65625 C 3.804688 -0.789062 4.0625 -1.046875 4.1875 -1.421875 C 4.320312 -1.804688 4.390625 -2.390625 4.390625 -3.171875 L 4.390625 -21.328125 C 4.390625 -22.109375 4.320312 -22.679688 4.1875 -23.046875 C 4.0625 -23.410156 3.800781 -23.664062 3.40625 -23.8125 C 3.019531 -23.957031 2.421875 -24.03125 1.609375 -24.03125 C 1.523438 -24.03125 1.484375 -24.109375 1.484375 -24.265625 C 1.484375 -24.421875 1.523438 -24.5 1.609375 -24.5 L 18.234375 -24.5 C 18.492188 -24.5 18.625 -24.382812 18.625 -24.15625 L 18.703125 -18.9375 C 18.703125 -18.882812 18.628906 -18.84375 18.484375 -18.8125 C 18.335938 -18.789062 18.253906 -18.816406 18.234375 -18.890625 C 17.816406 -20.410156 17.109375 -21.535156 16.109375 -22.265625 C 15.117188 -22.992188 13.8125 -23.359375 12.1875 -23.359375 L 11.015625 -23.359375 C 10.234375 -23.359375 9.660156 -23.1875 9.296875 -22.84375 C 8.929688 -22.507812 8.75 -21.988281 8.75 -21.28125 L 8.75 -13.296875 L 12 -13.296875 C 13.507812 -13.296875 14.671875 -13.554688 15.484375 -14.078125 C 16.296875 -14.597656 16.703125 -15.328125 16.703125 -16.265625 C 16.703125 -16.347656 16.769531 -16.390625 16.90625 -16.390625 C 17.050781 -16.390625 17.125 -16.347656 17.125 -16.265625 L 17.09375 -12.734375 L 17.125 -10.859375 C 17.175781 -9.972656 17.203125 -9.269531 17.203125 -8.75 C 17.203125 -8.6875 17.125 -8.65625 16.96875 -8.65625 C 16.8125 -8.65625 16.734375 -8.6875 16.734375 -8.75 C 16.734375 -9.8125 16.320312 -10.648438 15.5 -11.265625 C 14.675781 -11.878906 13.492188 -12.1875 11.953125 -12.1875 L 8.75 -12.1875 L 8.75 -3.328125 C 8.75 -2.578125 8.890625 -2.015625 9.171875 -1.640625 C 9.460938 -1.273438 9.921875 -1.09375 10.546875 -1.09375 L 11.84375 -1.09375 C 13.875 -1.09375 15.503906 -1.507812 16.734375 -2.34375 C 17.960938 -3.1875 18.863281 -4.484375 19.4375 -6.234375 Z M 19.4375 -6.234375 "/></g></g></g><g fill="#ededee" fill-opacity="1"><g transform="translate(107.647561, 41.22008)"><g><path d="M 25.25 -0.46875 C 25.320312 -0.46875 25.359375 -0.390625 25.359375 -0.234375 C 25.359375 -0.078125 25.320312 0 25.25 0 C 24.488281 0 23.898438 -0.015625 23.484375 -0.046875 L 21.125 -0.078125 L 17.921875 -0.046875 C 17.421875 -0.015625 16.726562 0 15.84375 0 C 15.757812 0 15.71875 -0.078125 15.71875 -0.234375 C 15.71875 -0.390625 15.757812 -0.46875 15.84375 -0.46875 C 16.695312 -0.46875 17.125 -0.691406 17.125 -1.140625 C 17.125 -1.367188 17.007812 -1.65625 16.78125 -2 L 11.40625 -10.3125 L 8.03125 -5.484375 C 7.007812 -4.046875 6.5 -2.882812 6.5 -2 C 6.5 -0.976562 7.179688 -0.46875 8.546875 -0.46875 C 8.597656 -0.46875 8.625 -0.390625 8.625 -0.234375 C 8.625 -0.078125 8.597656 0 8.546875 0 C 7.679688 0 7.03125 -0.015625 6.59375 -0.046875 L 3.6875 -0.078125 L 1.84375 -0.046875 C 1.5 -0.015625 0.953125 0 0.203125 0 C 0.117188 0 0.078125 -0.078125 0.078125 -0.234375 C 0.078125 -0.390625 0.117188 -0.46875 0.203125 -0.46875 C 1.003906 -0.46875 1.992188 -0.898438 3.171875 -1.765625 C 4.347656 -2.628906 5.578125 -3.945312 6.859375 -5.71875 L 10.859375 -11.140625 L 4.59375 -20.890625 C 3.882812 -22.015625 3.203125 -22.816406 2.546875 -23.296875 C 1.890625 -23.785156 1.195312 -24.03125 0.46875 -24.03125 C 0.394531 -24.03125 0.359375 -24.109375 0.359375 -24.265625 C 0.359375 -24.421875 0.394531 -24.5 0.46875 -24.5 L 2.15625 -24.46875 C 2.882812 -24.414062 3.429688 -24.390625 3.796875 -24.390625 C 4.710938 -24.390625 5.851562 -24.414062 7.21875 -24.46875 L 9.453125 -24.5 C 9.503906 -24.5 9.53125 -24.421875 9.53125 -24.265625 C 9.53125 -24.109375 9.503906 -24.03125 9.453125 -24.03125 C 8.554688 -24.03125 8.109375 -23.804688 8.109375 -23.359375 C 8.109375 -23.148438 8.226562 -22.851562 8.46875 -22.46875 L 13.640625 -14.5 L 16.78125 -18.96875 C 17.800781 -20.4375 18.3125 -21.613281 18.3125 -22.5 C 18.3125 -23.519531 17.628906 -24.03125 16.265625 -24.03125 C 16.210938 -24.03125 16.1875 -24.109375 16.1875 -24.265625 C 16.1875 -24.421875 16.210938 -24.5 16.265625 -24.5 L 18.234375 -24.46875 C 19.273438 -24.414062 20.238281 -24.390625 21.125 -24.390625 C 21.675781 -24.390625 22.289062 -24.414062 22.96875 -24.46875 L 24.625 -24.5 C 24.695312 -24.5 24.734375 -24.421875 24.734375 -24.265625 C 24.734375 -24.109375 24.695312 -24.03125 24.625 -24.03125 C 23.78125 -24.03125 22.773438 -23.59375 21.609375 -22.71875 C 20.453125 -21.84375 19.222656 -20.515625 17.921875 -18.734375 L 14.1875 -13.640625 L 20.890625 -3.25 C 21.546875 -2.28125 22.210938 -1.570312 22.890625 -1.125 C 23.566406 -0.6875 24.351562 -0.46875 25.25 -0.46875 Z M 25.25 -0.46875 "/></g></g></g><g fill="#ededee" fill-opacity="1"><g transform="translate(133.010095, 41.22008)"><g><path d="M 22.390625 -19.484375 C 22.390625 -20.890625 22.066406 -22 21.421875 -22.8125 C 20.785156 -23.625 19.890625 -24.03125 18.734375 -24.03125 C 18.679688 -24.03125 18.65625 -24.109375 18.65625 -24.265625 C 18.65625 -24.421875 18.679688 -24.5 18.734375 -24.5 L 20.625 -24.46875 C 21.613281 -24.414062 22.410156 -24.390625 23.015625 -24.390625 C 23.503906 -24.390625 24.222656 -24.414062 25.171875 -24.46875 L 26.96875 -24.5 C 27.019531 -24.5 27.046875 -24.421875 27.046875 -24.265625 C 27.046875 -24.109375 27.019531 -24.03125 26.96875 -24.03125 C 25.945312 -24.03125 25.148438 -23.625 24.578125 -22.8125 C 24.003906 -22 23.71875 -20.890625 23.71875 -19.484375 L 23.71875 -8.578125 C 23.71875 -6.753906 23.3125 -5.148438 22.5 -3.765625 C 21.6875 -2.378906 20.539062 -1.3125 19.0625 -0.5625 C 17.59375 0.175781 15.890625 0.546875 13.953125 0.546875 C 12.023438 0.546875 10.316406 0.179688 8.828125 -0.546875 C 7.335938 -1.273438 6.164062 -2.335938 5.3125 -3.734375 C 4.457031 -5.140625 4.03125 -6.78125 4.03125 -8.65625 L 4.03125 -21.328125 C 4.03125 -22.109375 3.957031 -22.679688 3.8125 -23.046875 C 3.675781 -23.410156 3.414062 -23.664062 3.03125 -23.8125 C 2.65625 -23.957031 2.0625 -24.03125 1.25 -24.03125 C 1.175781 -24.03125 1.140625 -24.109375 1.140625 -24.265625 C 1.140625 -24.421875 1.175781 -24.5 1.25 -24.5 L 3.328125 -24.46875 C 4.535156 -24.414062 5.488281 -24.390625 6.1875 -24.390625 C 6.976562 -24.390625 7.972656 -24.414062 9.171875 -24.46875 L 11.171875 -24.5 C 11.253906 -24.5 11.296875 -24.421875 11.296875 -24.265625 C 11.296875 -24.109375 11.253906 -24.03125 11.171875 -24.03125 C 10.359375 -24.03125 9.765625 -23.953125 9.390625 -23.796875 C 9.015625 -23.640625 8.753906 -23.367188 8.609375 -22.984375 C 8.460938 -22.609375 8.390625 -22.03125 8.390625 -21.25 L 8.390625 -10.03125 C 8.390625 -6.925781 9.003906 -4.628906 10.234375 -3.140625 C 11.460938 -1.648438 13.203125 -0.90625 15.453125 -0.90625 C 17.617188 -0.90625 19.316406 -1.5625 20.546875 -2.875 C 21.773438 -4.195312 22.390625 -6.085938 22.390625 -8.546875 Z M 22.390625 -19.484375 "/></g></g></g><g fill="#ededee" fill-opacity="1"><g transform="translate(160.567839, 41.22008)"><g><path d="M 6.828125 -20.546875 C 6.828125 -19.597656 7.066406 -18.757812 7.546875 -18.03125 C 8.023438 -17.300781 8.617188 -16.660156 9.328125 -16.109375 C 10.035156 -15.566406 10.988281 -14.898438 12.1875 -14.109375 C 13.5 -13.273438 14.546875 -12.546875 15.328125 -11.921875 C 16.109375 -11.296875 16.773438 -10.53125 17.328125 -9.625 C 17.878906 -8.71875 18.15625 -7.675781 18.15625 -6.5 C 18.15625 -5.144531 17.785156 -3.9375 17.046875 -2.875 C 16.316406 -1.820312 15.304688 -1 14.015625 -0.40625 C 12.722656 0.175781 11.28125 0.46875 9.6875 0.46875 C 8.507812 0.46875 7.28125 0.304688 6 -0.015625 C 4.71875 -0.347656 3.851562 -0.707031 3.40625 -1.09375 C 3.28125 -1.195312 3.179688 -1.296875 3.109375 -1.390625 C 3.046875 -1.484375 3.015625 -1.632812 3.015625 -1.84375 L 2.90625 -8.078125 L 2.90625 -8.109375 C 2.90625 -8.210938 2.96875 -8.269531 3.09375 -8.28125 C 3.226562 -8.300781 3.304688 -8.257812 3.328125 -8.15625 C 4.117188 -6.5625 4.804688 -5.265625 5.390625 -4.265625 C 5.972656 -3.273438 6.71875 -2.398438 7.625 -1.640625 C 8.53125 -0.890625 9.554688 -0.515625 10.703125 -0.515625 C 11.742188 -0.515625 12.601562 -0.796875 13.28125 -1.359375 C 13.96875 -1.921875 14.3125 -2.878906 14.3125 -4.234375 C 14.3125 -5.378906 14.054688 -6.382812 13.546875 -7.25 C 13.035156 -8.113281 12.410156 -8.84375 11.671875 -9.4375 C 10.941406 -10.039062 9.9375 -10.765625 8.65625 -11.609375 C 7.40625 -12.410156 6.429688 -13.097656 5.734375 -13.671875 C 5.046875 -14.253906 4.453125 -14.945312 3.953125 -15.75 C 3.460938 -16.5625 3.21875 -17.519531 3.21875 -18.625 C 3.21875 -20.007812 3.613281 -21.175781 4.40625 -22.125 C 5.207031 -23.082031 6.234375 -23.789062 7.484375 -24.25 C 8.742188 -24.707031 10.066406 -24.9375 11.453125 -24.9375 C 12.359375 -24.9375 13.28125 -24.847656 14.21875 -24.671875 C 15.164062 -24.503906 15.925781 -24.304688 16.5 -24.078125 C 16.738281 -23.960938 16.894531 -23.847656 16.96875 -23.734375 C 17.050781 -23.617188 17.09375 -23.46875 17.09375 -23.28125 L 17.09375 -17.53125 C 17.09375 -17.445312 17.023438 -17.382812 16.890625 -17.34375 C 16.765625 -17.300781 16.6875 -17.320312 16.65625 -17.40625 L 16.34375 -18.15625 C 15.695312 -19.800781 14.929688 -21.195312 14.046875 -22.34375 C 13.171875 -23.5 11.953125 -24.078125 10.390625 -24.078125 C 9.347656 -24.078125 8.492188 -23.773438 7.828125 -23.171875 C 7.160156 -22.566406 6.828125 -21.691406 6.828125 -20.546875 Z M 6.828125 -20.546875 "/></g></g></g><g clip-path="url(#e4c5a3c04c)"><path fill="#ededee" d="M 25.195312 21.03125 C 25.113281 20.894531 24.996094 20.800781 24.851562 20.738281 L 15.402344 15.28125 L 15.402344 5.925781 C 15.414062 5.53125 15.089844 5.207031 14.703125 5.207031 C 14.695312 5.207031 14.695312 5.207031 14.683594 5.207031 C 14.285156 5.21875 13.972656 5.539062 13.984375 5.925781 L 13.984375 15.582031 C 13.953125 15.761719 13.996094 15.925781 14.089844 16.074219 C 14.171875 16.207031 14.285156 16.300781 14.433594 16.367188 L 23.890625 21.824219 L 23.890625 23.933594 L 11.992188 17.066406 L 11.992188 9.359375 C 12 8.964844 11.675781 8.640625 11.292969 8.640625 C 11.28125 8.640625 11.28125 8.640625 11.269531 8.640625 C 10.875 8.652344 10.558594 8.976562 10.570312 9.359375 L 10.570312 17.367188 C 10.539062 17.535156 10.582031 17.710938 10.675781 17.859375 C 10.757812 17.992188 10.875 18.085938 11.019531 18.148438 L 23.902344 25.59375 L 23.902344 53.953125 C 23.902344 53.964844 23.902344 53.964844 23.902344 53.976562 C 23.902344 54.371094 24.234375 54.683594 24.621094 54.683594 C 25.019531 54.683594 25.332031 54.351562 25.332031 53.964844 L 25.332031 25.289062 C 25.339844 25.21875 25.339844 25.144531 25.332031 25.070312 L 25.332031 21.542969 C 25.332031 21.367188 25.289062 21.175781 25.195312 21.03125 Z M 21.875 36.816406 L 21.875 33.484375 C 21.898438 33.316406 21.867188 33.140625 21.773438 32.992188 C 21.6875 32.859375 21.5625 32.753906 21.417969 32.691406 L 11.613281 27.035156 C 11.5 26.960938 11.363281 26.929688 11.230469 26.929688 C 10.976562 26.941406 10.75 27.074219 10.625 27.292969 C 10.433594 27.640625 10.550781 28.078125 10.894531 28.265625 L 20.433594 33.777344 L 20.433594 35.667969 L 5.113281 26.824219 L 5.113281 16.21875 C 5.121094 15.824219 4.796875 15.5 4.414062 15.5 C 4.402344 15.5 4.402344 15.5 4.390625 15.5 C 3.996094 15.507812 3.679688 15.832031 3.691406 16.21875 L 3.691406 27.128906 C 3.660156 27.304688 3.703125 27.472656 3.796875 27.617188 C 3.878906 27.753906 3.996094 27.847656 4.140625 27.910156 L 20.457031 37.324219 L 20.457031 39.109375 L 1.667969 28.265625 L 1.667969 19.683594 C 1.675781 19.289062 1.355469 18.964844 0.96875 18.964844 C 0.957031 18.964844 0.957031 18.964844 0.945312 18.964844 C 0.550781 18.976562 0.238281 19.296875 0.246094 19.683594 L 0.246094 28.566406 C 0.238281 28.640625 0.238281 28.726562 0.246094 28.796875 C 0.269531 29.152344 0.539062 29.433594 0.894531 29.464844 L 20.464844 40.769531 L 20.464844 50.125 L 14.882812 53.347656 C 14.882812 53.347656 14.871094 53.347656 14.871094 53.359375 C 14.527344 53.558594 14.421875 53.996094 14.621094 54.339844 C 14.820312 54.683594 15.257812 54.789062 15.601562 54.589844 L 21.449219 51.21875 C 21.53125 51.1875 21.613281 51.136719 21.675781 51.074219 C 21.675781 51.074219 21.675781 51.074219 21.6875 51.074219 C 21.6875 51.074219 21.699219 51.0625 21.699219 51.054688 C 21.8125 50.9375 21.886719 50.78125 21.90625 50.613281 C 21.90625 50.613281 21.90625 50.605469 21.90625 50.605469 C 21.90625 50.582031 21.90625 50.574219 21.90625 50.550781 C 21.90625 50.542969 21.90625 50.519531 21.90625 50.511719 C 21.90625 50.5 21.90625 50.5 21.90625 50.488281 C 21.90625 50.480469 21.90625 50.457031 21.898438 50.449219 L 21.898438 40.5 C 21.90625 40.425781 21.90625 40.351562 21.898438 40.28125 L 21.898438 37.066406 C 21.886719 36.960938 21.886719 36.886719 21.875 36.816406 Z M 52.398438 28.558594 L 52.398438 19.675781 C 52.410156 19.277344 52.085938 18.953125 51.699219 18.953125 C 51.6875 18.953125 51.6875 18.953125 51.679688 18.953125 C 51.28125 18.964844 50.96875 19.289062 50.980469 19.675781 L 50.980469 28.253906 L 32.1875 39.101562 L 32.1875 37.316406 L 48.503906 27.898438 C 48.652344 27.847656 48.765625 27.742188 48.847656 27.609375 C 48.941406 27.460938 48.984375 27.285156 48.953125 27.117188 L 48.953125 16.21875 C 48.964844 15.824219 48.640625 15.5 48.253906 15.5 C 48.242188 15.5 48.242188 15.5 48.234375 15.5 C 47.835938 15.507812 47.523438 15.832031 47.535156 16.21875 L 47.535156 26.824219 L 32.199219 35.675781 L 32.199219 33.789062 L 41.742188 28.277344 C 42.085938 28.085938 42.210938 27.648438 42.011719 27.304688 C 41.886719 27.085938 41.65625 26.949219 41.40625 26.941406 C 41.269531 26.941406 41.136719 26.972656 41.019531 27.042969 L 31.21875 32.703125 C 31.074219 32.765625 30.945312 32.867188 30.863281 33.003906 C 30.769531 33.152344 30.738281 33.316406 30.757812 33.496094 L 30.757812 36.824219 C 30.75 36.898438 30.75 36.972656 30.757812 37.042969 L 30.757812 40.257812 C 30.75 40.332031 30.75 40.40625 30.757812 40.476562 L 30.757812 50.425781 C 30.757812 50.4375 30.757812 50.457031 30.75 50.46875 C 30.75 50.480469 30.75 50.480469 30.75 50.488281 C 30.75 50.5 30.75 50.519531 30.75 50.53125 C 30.75 50.550781 30.75 50.5625 30.75 50.582031 C 30.75 50.582031 30.75 50.59375 30.75 50.59375 C 30.757812 50.761719 30.832031 50.917969 30.957031 51.03125 C 30.957031 51.042969 30.96875 51.042969 30.96875 51.054688 C 30.96875 51.054688 30.96875 51.054688 30.976562 51.054688 C 31.039062 51.117188 31.125 51.167969 31.207031 51.199219 L 37.054688 54.570312 C 37.398438 54.769531 37.835938 54.652344 38.035156 54.320312 C 38.234375 53.976562 38.117188 53.539062 37.785156 53.339844 C 37.785156 53.339844 37.773438 53.339844 37.773438 53.328125 L 32.1875 50.101562 L 32.1875 40.75 L 51.761719 29.445312 C 52.117188 29.414062 52.386719 29.121094 52.410156 28.777344 C 52.410156 28.714844 52.410156 28.628906 52.398438 28.558594 Z M 41.980469 17.859375 C 42.074219 17.710938 42.117188 17.535156 42.085938 17.367188 L 42.085938 9.359375 C 42.09375 8.964844 41.773438 8.640625 41.386719 8.640625 C 41.375 8.640625 41.375 8.640625 41.363281 8.640625 C 40.96875 8.652344 40.65625 8.976562 40.664062 9.359375 L 40.664062 17.066406 L 28.765625 23.933594 L 28.765625 21.824219 L 38.222656 16.367188 C 38.367188 16.3125 38.484375 16.207031 38.566406 16.074219 C 38.660156 15.925781 38.703125 15.75 38.671875 15.582031 L 38.671875 5.925781 C 38.683594 5.53125 38.359375 5.207031 37.972656 5.207031 C 37.960938 5.207031 37.960938 5.207031 37.953125 5.207031 C 37.554688 5.21875 37.242188 5.539062 37.25 5.925781 L 37.25 15.28125 L 27.773438 20.738281 C 27.628906 20.792969 27.511719 20.894531 27.429688 21.03125 C 27.324219 21.1875 27.292969 21.367188 27.324219 21.542969 L 27.324219 25.070312 C 27.3125 25.144531 27.3125 25.21875 27.324219 25.289062 L 27.324219 53.953125 C 27.324219 54.351562 27.636719 54.675781 28.035156 54.675781 C 28.429688 54.675781 28.753906 54.363281 28.753906 53.964844 C 28.753906 53.953125 28.753906 53.953125 28.753906 53.945312 L 28.753906 25.59375 L 41.636719 18.148438 C 41.78125 18.085938 41.898438 17.992188 41.980469 17.859375 Z M 41.980469 17.859375 " fill-opacity="1" fill-rule="nonzero"/></g></svg>