<svg xmlns="http://www.w3.org/2000/svg" xmlns:xlink="http://www.w3.org/1999/xlink" width="1080" zoomAndPan="magnify" viewBox="0 0 810 809.999993" height="1080" preserveAspectRatio="xMidYMid meet" version="1.0"><defs><clipPath id="2c0297ec83"><path d="M 555 193 L 791.746094 193 L 791.746094 429 L 555 429 Z M 555 193 " clip-rule="nonzero"/></clipPath><clipPath id="d5ecb165f3"><path d="M 148 26.710938 L 388 26.710938 L 388 270 L 148 270 Z M 148 26.710938 " clip-rule="nonzero"/></clipPath><clipPath id="a9800bc7cc"><path d="M 221 440 L 545 440 L 545 783.460938 L 221 783.460938 Z M 221 440 " clip-rule="nonzero"/></clipPath></defs><path fill="#3c3470" d="M 228.386719 719.964844 C 227.804688 719.964844 227.214844 719.828125 226.660156 719.539062 C 214.453125 713.175781 202.476562 706.027344 191.0625 698.289062 C 189.351562 697.128906 188.902344 694.800781 190.0625 693.089844 C 191.226562 691.378906 193.550781 690.933594 195.265625 692.09375 C 206.441406 699.667969 218.167969 706.667969 230.121094 712.898438 C 231.953125 713.855469 232.667969 716.117188 231.710938 717.949219 C 231.042969 719.230469 229.738281 719.964844 228.386719 719.964844 Z M 160.578125 674.007812 C 159.714844 674.007812 158.847656 673.710938 158.140625 673.101562 C 147.699219 664.121094 137.664062 654.4375 128.3125 644.320312 C 126.910156 642.800781 127 640.433594 128.519531 639.03125 C 130.039062 637.625 132.40625 637.71875 133.8125 639.238281 C 142.96875 649.148438 152.796875 658.628906 163.023438 667.425781 C 164.589844 668.773438 164.769531 671.136719 163.417969 672.707031 C 162.679688 673.566406 161.632812 674.007812 160.578125 674.007812 Z M 104.992188 613.855469 C 103.839844 613.855469 102.699219 613.324219 101.96875 612.320312 C 93.828125 601.195312 86.253906 589.488281 79.457031 577.519531 C 78.4375 575.722656 79.066406 573.4375 80.863281 572.414062 C 82.660156 571.394531 84.945312 572.023438 85.96875 573.820312 C 92.625 585.539062 100.042969 597.007812 108.011719 607.902344 C 109.230469 609.570312 108.867188 611.910156 107.199219 613.132812 C 106.53125 613.621094 105.757812 613.855469 104.992188 613.855469 Z M 64.546875 542.648438 C 63.089844 542.648438 61.703125 541.789062 61.097656 540.363281 C 55.792969 527.859375 51.15625 514.917969 47.3125 501.894531 C 46.726562 499.914062 47.859375 497.832031 49.84375 497.246094 C 51.828125 496.660156 53.910156 497.792969 54.496094 499.777344 C 58.257812 512.523438 62.796875 525.195312 67.992188 537.441406 C 68.796875 539.34375 67.910156 541.542969 66.007812 542.347656 C 65.527344 542.550781 65.035156 542.648438 64.546875 542.648438 Z M 64.546875 542.648438 " fill-opacity="1" fill-rule="nonzero"/><path fill="#3c3470" d="M 558.210938 719.863281 C 556.859375 719.863281 555.554688 719.132812 554.886719 717.851562 C 553.929688 716.019531 554.640625 713.757812 556.472656 712.800781 C 567.804688 706.882812 578.945312 700.265625 589.585938 693.136719 C 591.300781 691.984375 593.628906 692.445312 594.777344 694.160156 C 595.929688 695.878906 595.472656 698.203125 593.753906 699.355469 C 582.890625 706.636719 571.511719 713.394531 559.941406 719.4375 C 559.386719 719.726562 558.792969 719.863281 558.210938 719.863281 Z M 622.773438 676.597656 C 621.707031 676.597656 620.644531 676.144531 619.90625 675.261719 C 618.574219 673.679688 618.777344 671.320312 620.359375 669.988281 C 630.152344 661.753906 639.601562 652.890625 648.445312 643.644531 C 649.875 642.148438 652.246094 642.097656 653.738281 643.523438 C 655.234375 644.953125 655.285156 647.324219 653.855469 648.816406 C 644.824219 658.261719 635.175781 667.3125 625.179688 675.71875 C 624.476562 676.308594 623.625 676.597656 622.773438 676.597656 Z M 676.480469 620.4375 C 675.683594 620.4375 674.882812 620.1875 674.203125 619.664062 C 672.5625 618.40625 672.253906 616.054688 673.511719 614.414062 C 681.304688 604.257812 688.621094 593.570312 695.253906 582.644531 C 696.328125 580.875 698.632812 580.3125 700.398438 581.386719 C 702.164062 582.460938 702.730469 584.761719 701.65625 586.53125 C 694.882812 597.6875 687.410156 608.601562 679.453125 618.972656 C 678.714844 619.933594 677.601562 620.4375 676.480469 620.4375 Z M 716.796875 554.027344 C 716.265625 554.027344 715.730469 553.914062 715.214844 553.675781 C 713.34375 552.800781 712.53125 550.574219 713.40625 548.699219 C 718.8125 537.101562 723.632812 525.085938 727.730469 512.980469 C 728.394531 511.019531 730.519531 509.972656 732.476562 510.632812 C 734.4375 511.296875 735.488281 513.421875 734.824219 515.378906 C 730.636719 527.746094 725.714844 540.019531 720.191406 551.863281 C 719.558594 553.226562 718.207031 554.027344 716.796875 554.027344 Z M 741.710938 480.460938 C 741.445312 480.460938 741.171875 480.433594 740.902344 480.371094 C 738.882812 479.929688 737.605469 477.929688 738.050781 475.910156 C 740.796875 463.4375 742.882812 450.65625 744.253906 437.917969 C 744.476562 435.859375 746.316406 434.375 748.378906 434.59375 C 750.433594 434.816406 751.921875 436.664062 751.699219 438.71875 C 750.296875 451.726562 748.167969 464.78125 745.363281 477.519531 C 744.976562 479.269531 743.429688 480.460938 741.710938 480.460938 Z M 741.710938 480.460938 " fill-opacity="1" fill-rule="nonzero"/><path fill="#dcd6ff" d="M 655.230469 399.640625 C 655.230469 403.929688 655.125 408.214844 654.914062 412.496094 C 654.703125 416.78125 654.386719 421.054688 653.96875 425.320312 C 653.546875 429.589844 653.023438 433.84375 652.394531 438.085938 C 651.765625 442.324219 651.03125 446.550781 650.195312 450.753906 C 649.359375 454.960938 648.417969 459.140625 647.375 463.300781 C 646.335938 467.460938 645.191406 471.59375 643.945312 475.695312 C 642.703125 479.796875 641.355469 483.867188 639.914062 487.90625 C 638.46875 491.941406 636.925781 495.941406 635.285156 499.902344 C 633.644531 503.863281 631.90625 507.785156 630.074219 511.660156 C 628.238281 515.535156 626.3125 519.363281 624.289062 523.144531 C 622.269531 526.925781 620.15625 530.65625 617.953125 534.335938 C 615.746094 538.011719 613.453125 541.632812 611.070312 545.199219 C 608.6875 548.765625 606.21875 552.269531 603.664062 555.710938 C 601.109375 559.15625 598.472656 562.535156 595.753906 565.851562 C 593.03125 569.164062 590.234375 572.410156 587.351562 575.585938 C 584.472656 578.765625 581.519531 581.871094 578.484375 584.902344 C 575.453125 587.933594 572.347656 590.890625 569.171875 593.769531 C 565.992188 596.648438 562.746094 599.449219 559.433594 602.167969 C 556.117188 604.886719 552.738281 607.523438 549.292969 610.078125 C 545.851562 612.632812 542.34375 615.101562 538.78125 617.484375 C 535.214844 619.867188 531.59375 622.160156 527.914062 624.363281 C 524.238281 626.566406 520.507812 628.679688 516.726562 630.703125 C 512.941406 632.722656 509.113281 634.652344 505.238281 636.484375 C 501.359375 638.316406 497.441406 640.054688 493.480469 641.695312 C 489.519531 643.335938 485.519531 644.878906 481.480469 646.324219 C 477.445312 647.769531 473.375 649.113281 469.269531 650.355469 C 465.167969 651.601562 461.035156 652.746094 456.875 653.785156 C 452.714844 654.828125 448.53125 655.769531 444.328125 656.605469 C 440.121094 657.441406 435.898438 658.171875 431.65625 658.800781 C 427.414062 659.433594 423.160156 659.957031 418.890625 660.375 C 414.625 660.796875 410.347656 661.113281 406.066406 661.324219 C 401.785156 661.53125 397.496094 661.636719 393.210938 661.636719 C 388.921875 661.636719 384.636719 661.53125 380.351562 661.324219 C 376.070312 661.113281 371.792969 660.796875 367.527344 660.375 C 363.261719 659.957031 359.003906 659.433594 354.761719 658.800781 C 350.523438 658.171875 346.296875 657.441406 342.09375 656.605469 C 337.886719 655.765625 333.703125 654.828125 329.542969 653.785156 C 325.382812 652.746094 321.253906 651.601562 317.148438 650.355469 C 313.046875 649.113281 308.976562 647.765625 304.9375 646.324219 C 300.902344 644.878906 296.902344 643.335938 292.9375 641.695312 C 288.976562 640.054688 285.058594 638.316406 281.183594 636.484375 C 277.304688 634.652344 273.476562 632.722656 269.695312 630.703125 C 265.914062 628.679688 262.183594 626.566406 258.503906 624.363281 C 254.828125 622.160156 251.203125 619.867188 247.640625 617.484375 C 244.074219 615.101562 240.570312 612.632812 237.125 610.078125 C 233.679688 607.523438 230.300781 604.886719 226.988281 602.167969 C 223.671875 599.449219 220.425781 596.648438 217.25 593.769531 C 214.070312 590.890625 210.964844 587.933594 207.933594 584.902344 C 204.902344 581.871094 201.945312 578.765625 199.066406 575.585938 C 196.1875 572.410156 193.386719 569.164062 190.664062 565.851562 C 187.945312 562.535156 185.308594 559.15625 182.753906 555.710938 C 180.199219 552.269531 177.730469 548.765625 175.347656 545.199219 C 172.964844 541.632812 170.671875 538.011719 168.46875 534.335938 C 166.261719 530.65625 164.152344 526.925781 162.128906 523.144531 C 160.109375 519.363281 158.179688 515.535156 156.347656 511.660156 C 154.511719 507.785156 152.777344 503.863281 151.136719 499.902344 C 149.496094 495.941406 147.953125 491.941406 146.507812 487.90625 C 145.0625 483.867188 143.71875 479.796875 142.472656 475.695312 C 141.226562 471.59375 140.085938 467.460938 139.042969 463.300781 C 138 459.140625 137.0625 454.960938 136.226562 450.753906 C 135.386719 446.550781 134.65625 442.324219 134.027344 438.085938 C 133.398438 433.84375 132.871094 429.589844 132.453125 425.320312 C 132.03125 421.054688 131.714844 416.78125 131.507812 412.496094 C 131.296875 408.214844 131.191406 403.929688 131.191406 399.640625 C 131.191406 395.355469 131.296875 391.070312 131.507812 386.785156 C 131.714844 382.503906 132.03125 378.226562 132.453125 373.960938 C 132.871094 369.695312 133.398438 365.441406 134.027344 361.199219 C 134.65625 356.957031 135.386719 352.734375 136.226562 348.527344 C 137.0625 344.324219 138 340.140625 139.042969 335.980469 C 140.085938 331.820312 141.226562 327.691406 142.472656 323.585938 C 143.71875 319.484375 145.0625 315.414062 146.507812 311.378906 C 147.953125 307.339844 149.496094 303.339844 151.136719 299.378906 C 152.777344 295.417969 154.511719 291.5 156.347656 287.625 C 158.179688 283.746094 160.109375 279.917969 162.128906 276.136719 C 164.152344 272.355469 166.261719 268.625 168.46875 264.949219 C 170.671875 261.269531 172.964844 257.648438 175.347656 254.082031 C 177.730469 250.519531 180.199219 247.015625 182.753906 243.570312 C 185.308594 240.125 187.945312 236.746094 190.664062 233.433594 C 193.386719 230.117188 196.1875 226.871094 199.066406 223.695312 C 201.945312 220.519531 204.902344 217.414062 207.933594 214.382812 C 210.964844 211.351562 214.070312 208.394531 217.25 205.515625 C 220.425781 202.636719 223.671875 199.835938 226.988281 197.113281 C 230.300781 194.394531 233.679688 191.757812 237.125 189.203125 C 240.570312 186.648438 244.074219 184.179688 247.640625 181.800781 C 251.203125 179.417969 254.828125 177.125 258.503906 174.917969 C 262.183594 172.714844 265.914062 170.601562 269.695312 168.582031 C 273.476562 166.558594 277.304688 164.632812 281.183594 162.800781 C 285.058594 160.964844 288.976562 159.230469 292.9375 157.585938 C 296.902344 155.945312 300.902344 154.402344 304.9375 152.960938 C 308.976562 151.515625 313.046875 150.171875 317.148438 148.925781 C 321.253906 147.679688 325.382812 146.539062 329.542969 145.496094 C 333.703125 144.453125 337.886719 143.515625 342.09375 142.679688 C 346.296875 141.84375 350.523438 141.109375 354.761719 140.480469 C 359.003906 139.851562 363.261719 139.328125 367.527344 138.90625 C 371.792969 138.484375 376.070312 138.171875 380.351562 137.960938 C 384.636719 137.75 388.921875 137.644531 393.210938 137.644531 C 397.496094 137.644531 401.785156 137.75 406.066406 137.960938 C 410.347656 138.171875 414.625 138.484375 418.890625 138.90625 C 423.160156 139.328125 427.414062 139.851562 431.65625 140.480469 C 435.898438 141.109375 440.121094 141.84375 444.328125 142.679688 C 448.53125 143.515625 452.714844 144.453125 456.875 145.496094 C 461.035156 146.539062 465.167969 147.679688 469.269531 148.925781 C 473.375 150.171875 477.445312 151.515625 481.480469 152.960938 C 485.519531 154.402344 489.519531 155.945312 493.480469 157.585938 C 497.441406 159.230469 501.359375 160.964844 505.238281 162.800781 C 509.113281 164.632812 512.941406 166.558594 516.726562 168.582031 C 520.507812 170.601562 524.238281 172.714844 527.914062 174.917969 C 531.59375 177.125 535.214844 179.417969 538.78125 181.800781 C 542.34375 184.179688 545.851562 186.648438 549.292969 189.203125 C 552.738281 191.757812 556.117188 194.394531 559.433594 197.113281 C 562.746094 199.835938 565.992188 202.636719 569.171875 205.515625 C 572.347656 208.394531 575.453125 211.351562 578.484375 214.382812 C 581.519531 217.414062 584.472656 220.519531 587.351562 223.695312 C 590.234375 226.871094 593.03125 230.117188 595.753906 233.433594 C 598.472656 236.746094 601.109375 240.125 603.664062 243.570312 C 606.21875 247.015625 608.6875 250.519531 611.070312 254.082031 C 613.453125 257.648438 615.746094 261.269531 617.953125 264.949219 C 620.15625 268.625 622.269531 272.355469 624.289062 276.136719 C 626.3125 279.917969 628.238281 283.746094 630.074219 287.625 C 631.90625 291.5 633.644531 295.417969 635.285156 299.378906 C 636.925781 303.339844 638.46875 307.339844 639.914062 311.378906 C 641.355469 315.414062 642.703125 319.484375 643.945312 323.585938 C 645.191406 327.691406 646.335938 331.820312 647.375 335.980469 C 648.417969 340.140625 649.359375 344.324219 650.195312 348.527344 C 651.03125 352.734375 651.765625 356.957031 652.394531 361.199219 C 653.023438 365.441406 653.546875 369.695312 653.96875 373.960938 C 654.386719 378.226562 654.703125 382.503906 654.914062 386.785156 C 655.125 391.070312 655.230469 395.355469 655.230469 399.640625 Z M 655.230469 399.640625 " fill-opacity="1" fill-rule="nonzero"/><path fill="#ffffff" d="M 569.089844 262.824219 L 559.964844 292.90625 C 558.65625 297.222656 561.089844 301.777344 565.402344 303.085938 L 581.527344 307.976562 C 583.359375 308.53125 584.570312 310.222656 584.597656 312.136719 C 584.664062 317.210938 585.164062 322.226562 586.078125 327.140625 C 586.425781 329.023438 585.566406 330.921875 583.878906 331.824219 L 569.019531 339.769531 C 565.042969 341.890625 563.542969 346.835938 565.667969 350.8125 L 580.488281 378.539062 C 582.613281 382.511719 587.558594 384.011719 591.535156 381.886719 L 606.394531 373.945312 C 608.082031 373.042969 610.140625 373.378906 611.511719 374.71875 C 615.089844 378.207031 618.984375 381.410156 623.164062 384.285156 C 624.742188 385.367188 625.476562 387.316406 624.921875 389.148438 L 620.03125 405.269531 C 618.722656 409.582031 621.15625 414.140625 625.46875 415.445312 L 655.558594 424.574219 C 659.871094 425.882812 664.429688 423.445312 665.738281 419.132812 L 670.625 403.011719 C 671.183594 401.179688 672.875 399.96875 674.789062 399.941406 C 679.863281 399.875 684.878906 399.375 689.792969 398.460938 C 691.675781 398.109375 693.574219 398.972656 694.480469 400.660156 L 702.421875 415.519531 C 704.546875 419.492188 709.492188 420.992188 713.464844 418.871094 L 741.195312 404.046875 C 745.171875 401.925781 746.667969 396.980469 744.546875 393.003906 L 736.601562 378.144531 C 735.699219 376.457031 736.039062 374.402344 737.375 373.03125 C 740.863281 369.449219 744.070312 365.558594 746.941406 361.378906 C 748.027344 359.800781 749.976562 359.066406 751.808594 359.621094 L 767.929688 364.511719 C 772.242188 365.820312 776.800781 363.382812 778.109375 359.070312 L 787.234375 328.984375 C 788.542969 324.671875 786.109375 320.117188 781.792969 318.808594 L 765.671875 313.917969 C 763.839844 313.363281 762.628906 311.671875 762.601562 309.753906 C 762.535156 304.683594 762.035156 299.667969 761.121094 294.753906 C 760.769531 292.871094 761.632812 290.972656 763.320312 290.070312 L 778.179688 282.125 C 782.15625 280 783.65625 275.058594 781.53125 271.082031 L 766.707031 243.355469 C 764.585938 239.382812 759.640625 237.882812 755.664062 240.007812 L 740.804688 247.949219 C 739.117188 248.851562 737.058594 248.511719 735.6875 247.175781 C 732.109375 243.6875 728.214844 240.484375 724.035156 237.609375 C 722.457031 236.527344 721.722656 234.578125 722.277344 232.746094 L 727.167969 216.625 C 728.476562 212.3125 726.042969 207.753906 721.730469 206.445312 L 691.640625 197.320312 C 687.328125 196.011719 682.769531 198.449219 681.460938 202.761719 L 676.570312 218.882812 C 676.015625 220.714844 674.324219 221.925781 672.410156 221.953125 C 667.335938 222.019531 662.320312 222.519531 657.40625 223.433594 C 655.519531 223.78125 653.621094 222.921875 652.71875 221.234375 L 644.777344 206.375 C 642.652344 202.398438 637.707031 200.898438 633.730469 203.023438 L 606.003906 217.84375 C 602.027344 219.96875 600.527344 224.914062 602.652344 228.886719 L 610.597656 243.746094 C 611.5 245.4375 611.160156 247.492188 609.824219 248.863281 C 606.332031 252.441406 603.128906 256.335938 600.257812 260.515625 C 599.171875 262.09375 597.222656 262.828125 595.390625 262.273438 L 579.269531 257.382812 C 574.953125 256.074219 570.398438 258.511719 569.089844 262.824219 Z M 569.089844 262.824219 " fill-opacity="1" fill-rule="nonzero"/><g clip-path="url(#2c0297ec83)"><path fill="#3c3470" d="M 657.921875 428.667969 C 656.78125 428.667969 655.621094 428.503906 654.472656 428.15625 L 624.382812 419.03125 C 618.101562 417.125 614.542969 410.464844 616.445312 404.183594 L 621.335938 388.0625 C 621.429688 387.761719 621.234375 387.5 621.042969 387.367188 C 616.730469 384.40625 612.644531 381.050781 608.898438 377.398438 C 608.730469 377.234375 608.4375 377.097656 608.160156 377.246094 L 593.296875 385.1875 C 590.492188 386.6875 587.273438 387.003906 584.230469 386.082031 C 581.1875 385.160156 578.6875 383.105469 577.1875 380.300781 L 562.363281 352.574219 C 560.867188 349.773438 560.550781 346.550781 561.472656 343.507812 C 562.394531 340.464844 564.449219 337.964844 567.253906 336.464844 L 582.113281 328.523438 C 582.390625 328.375 582.4375 328.054688 582.394531 327.824219 C 581.441406 322.679688 580.921875 317.417969 580.851562 312.1875 C 580.847656 311.953125 580.738281 311.648438 580.4375 311.558594 L 564.316406 306.667969 C 561.273438 305.746094 558.773438 303.691406 557.273438 300.886719 C 555.773438 298.085938 555.457031 294.863281 556.378906 291.820312 L 565.507812 261.738281 C 566.429688 258.695312 568.480469 256.191406 571.285156 254.695312 C 574.089844 253.195312 577.3125 252.878906 580.355469 253.800781 L 596.476562 258.691406 C 596.777344 258.78125 597.039062 258.589844 597.167969 258.398438 C 600.132812 254.085938 603.488281 250 607.140625 246.253906 C 607.304688 246.085938 607.441406 245.789062 607.292969 245.511719 L 599.351562 230.652344 C 596.257812 224.863281 598.449219 217.640625 604.238281 214.542969 L 631.964844 199.722656 C 634.769531 198.222656 637.992188 197.90625 641.035156 198.832031 C 644.078125 199.753906 646.578125 201.804688 648.078125 204.609375 L 656.019531 219.46875 C 656.167969 219.746094 656.488281 219.796875 656.71875 219.753906 C 661.867188 218.796875 667.128906 218.277344 672.359375 218.207031 C 672.59375 218.207031 672.898438 218.09375 672.988281 217.796875 L 677.878906 201.675781 C 679.785156 195.394531 686.445312 191.832031 692.726562 193.738281 L 722.8125 202.863281 C 729.09375 204.769531 732.65625 211.429688 730.75 217.710938 L 725.859375 233.832031 C 725.769531 234.132812 725.960938 234.390625 726.152344 234.523438 C 730.464844 237.488281 734.550781 240.84375 738.300781 244.496094 C 738.46875 244.660156 738.761719 244.796875 739.039062 244.648438 L 753.898438 236.707031 C 756.703125 235.207031 759.921875 234.890625 762.964844 235.8125 C 766.007812 236.734375 768.511719 238.789062 770.011719 241.59375 L 784.832031 269.320312 C 787.925781 275.105469 785.734375 282.332031 779.945312 285.425781 L 765.085938 293.371094 C 764.808594 293.519531 764.757812 293.839844 764.800781 294.070312 C 765.757812 299.214844 766.277344 304.472656 766.34375 309.707031 C 766.347656 309.941406 766.457031 310.246094 766.757812 310.335938 L 782.878906 315.226562 C 785.921875 316.148438 788.425781 318.203125 789.921875 321.003906 C 791.421875 323.808594 791.738281 327.03125 790.816406 330.074219 L 781.691406 360.15625 C 780.765625 363.199219 778.714844 365.703125 775.910156 367.199219 C 773.105469 368.699219 769.886719 369.015625 766.84375 368.09375 L 750.722656 363.203125 C 750.417969 363.113281 750.160156 363.304688 750.027344 363.496094 C 747.0625 367.808594 743.707031 371.894531 740.054688 375.644531 C 739.890625 375.808594 739.753906 376.105469 739.902344 376.382812 L 747.847656 391.242188 C 750.941406 397.03125 748.75 404.257812 742.960938 407.351562 L 715.230469 422.171875 C 709.441406 425.265625 702.214844 423.074219 699.121094 417.285156 L 691.175781 402.425781 C 691.027344 402.148438 690.707031 402.097656 690.476562 402.140625 C 685.332031 403.097656 680.070312 403.617188 674.839844 403.6875 C 674.605469 403.6875 674.300781 403.800781 674.207031 404.101562 L 669.320312 420.21875 C 667.761719 425.351562 663.027344 428.667969 657.921875 428.667969 Z M 608.414062 369.691406 C 610.488281 369.691406 612.542969 370.496094 614.125 372.039062 C 617.566406 375.394531 621.320312 378.476562 625.285156 381.199219 C 628.234375 383.226562 629.527344 386.859375 628.503906 390.234375 L 623.613281 406.355469 C 622.90625 408.6875 624.226562 411.15625 626.558594 411.863281 L 656.644531 420.992188 C 658.976562 421.699219 661.445312 420.378906 662.152344 418.046875 L 667.042969 401.925781 C 668.070312 398.546875 671.164062 396.246094 674.742188 396.199219 C 679.550781 396.136719 684.382812 395.660156 689.109375 394.78125 C 692.632812 394.125 696.117188 395.78125 697.78125 398.898438 L 705.722656 413.753906 C 706.871094 415.902344 709.554688 416.714844 711.703125 415.566406 L 739.429688 400.746094 C 741.578125 399.597656 742.390625 396.917969 741.242188 394.769531 L 733.300781 379.910156 C 731.632812 376.796875 732.195312 372.980469 734.695312 370.417969 C 738.050781 366.972656 741.132812 363.21875 743.855469 359.257812 C 745.882812 356.308594 749.519531 355.015625 752.894531 356.039062 L 769.015625 360.929688 C 770.144531 361.273438 771.339844 361.152344 772.382812 360.597656 C 773.421875 360.042969 774.183594 359.113281 774.527344 357.984375 L 783.652344 327.898438 C 783.996094 326.769531 783.878906 325.574219 783.320312 324.535156 C 782.765625 323.496094 781.835938 322.734375 780.707031 322.390625 L 764.585938 317.5 C 761.207031 316.476562 758.90625 313.382812 758.859375 309.804688 C 758.796875 304.996094 758.320312 300.164062 757.441406 295.4375 C 756.785156 291.917969 758.441406 288.433594 761.554688 286.765625 L 776.417969 278.824219 C 778.5625 277.675781 779.378906 274.996094 778.230469 272.847656 L 763.40625 245.121094 C 762.851562 244.082031 761.921875 243.320312 760.792969 242.976562 C 759.667969 242.636719 758.472656 242.753906 757.429688 243.308594 L 742.570312 251.25 C 739.453125 252.917969 735.636719 252.355469 733.074219 249.855469 C 729.628906 246.5 725.875 243.417969 721.914062 240.695312 C 718.964844 238.667969 717.671875 235.035156 718.695312 231.65625 L 723.585938 215.539062 C 724.292969 213.207031 722.972656 210.734375 720.640625 210.027344 L 690.554688 200.902344 C 688.222656 200.195312 685.75 201.515625 685.042969 203.847656 L 680.15625 219.96875 C 679.128906 223.347656 676.035156 225.648438 672.457031 225.695312 C 667.648438 225.757812 662.816406 226.234375 658.089844 227.113281 C 654.566406 227.769531 651.082031 226.113281 649.417969 223 L 641.472656 208.140625 C 640.917969 207.097656 639.992188 206.335938 638.863281 205.996094 C 637.734375 205.652344 636.539062 205.769531 635.496094 206.328125 L 607.769531 221.148438 C 605.621094 222.296875 604.808594 224.976562 605.953125 227.125 L 613.898438 241.984375 C 615.5625 245.101562 615.003906 248.914062 612.503906 251.480469 C 609.148438 254.921875 606.0625 258.675781 603.339844 262.636719 C 601.316406 265.585938 597.683594 266.878906 594.304688 265.855469 L 578.179688 260.964844 C 577.050781 260.621094 575.855469 260.742188 574.816406 261.296875 C 573.777344 261.851562 573.015625 262.78125 572.671875 263.910156 L 563.546875 293.996094 C 563.203125 295.125 563.320312 296.320312 563.878906 297.359375 C 564.433594 298.398438 565.363281 299.160156 566.492188 299.503906 L 582.613281 304.394531 C 585.992188 305.417969 588.292969 308.511719 588.339844 312.089844 C 588.402344 316.898438 588.878906 321.730469 589.757812 326.457031 C 590.414062 329.976562 588.757812 333.460938 585.644531 335.128906 L 570.78125 343.070312 C 569.742188 343.625 568.980469 344.554688 568.636719 345.683594 C 568.292969 346.8125 568.414062 348.007812 568.96875 349.046875 L 583.792969 376.773438 C 584.347656 377.8125 585.277344 378.574219 586.402344 378.917969 C 587.53125 379.261719 588.726562 379.140625 589.769531 378.585938 L 604.628906 370.644531 C 605.824219 370.003906 607.121094 369.691406 608.414062 369.691406 Z M 608.414062 369.691406 " fill-opacity="1" fill-rule="nonzero"/></g><path fill="#b4a8ff" d="M 470.199219 200.054688 L 486.71875 215.453125 C 489.089844 217.660156 492.796875 217.53125 495.003906 215.164062 L 503.257812 206.3125 C 504.195312 205.304688 505.671875 205.058594 506.914062 205.648438 C 510.207031 207.210938 513.601562 208.472656 517.058594 209.4375 C 518.386719 209.804688 519.339844 210.960938 519.386719 212.335938 L 519.8125 224.433594 C 519.925781 227.667969 522.640625 230.199219 525.875 230.085938 L 548.449219 229.292969 C 551.683594 229.179688 554.214844 226.464844 554.101562 223.230469 L 553.675781 211.132812 C 553.628906 209.757812 554.496094 208.539062 555.792969 208.078125 C 559.175781 206.871094 562.472656 205.375 565.648438 203.585938 C 566.847656 202.910156 568.335938 203.054688 569.34375 203.992188 L 578.195312 212.242188 C 580.5625 214.453125 584.273438 214.320312 586.480469 211.953125 L 601.882812 195.433594 C 604.089844 193.066406 603.960938 189.355469 601.589844 187.148438 L 592.738281 178.898438 C 591.734375 177.960938 591.484375 176.484375 592.074219 175.242188 C 593.636719 171.949219 594.898438 168.554688 595.863281 165.097656 C 596.234375 163.769531 597.386719 162.816406 598.765625 162.769531 L 610.859375 162.34375 C 614.097656 162.230469 616.628906 159.515625 616.515625 156.28125 L 615.722656 133.710938 C 615.609375 130.476562 612.894531 127.945312 609.65625 128.058594 L 597.558594 128.484375 C 596.183594 128.53125 594.964844 127.664062 594.503906 126.367188 C 593.300781 122.984375 591.800781 119.6875 590.011719 116.511719 C 589.339844 115.3125 589.480469 113.824219 590.417969 112.816406 L 598.671875 103.964844 C 600.878906 101.597656 600.75 97.890625 598.378906 95.679688 L 581.859375 80.28125 C 579.492188 78.074219 575.78125 78.203125 573.574219 80.574219 L 565.320312 89.425781 C 564.382812 90.429688 562.90625 90.679688 561.664062 90.089844 C 558.371094 88.527344 554.976562 87.265625 551.519531 86.300781 C 550.191406 85.929688 549.242188 84.773438 549.191406 83.398438 L 548.769531 71.304688 C 548.65625 68.070312 545.941406 65.539062 542.703125 65.652344 L 520.132812 66.445312 C 516.894531 66.558594 514.363281 69.273438 514.476562 72.507812 L 514.902344 84.601562 C 514.953125 85.980469 514.082031 87.199219 512.785156 87.660156 C 509.402344 88.863281 506.105469 90.363281 502.929688 92.148438 C 501.730469 92.824219 500.242188 92.683594 499.234375 91.746094 L 490.382812 83.492188 C 488.015625 81.285156 484.304688 81.414062 482.097656 83.785156 L 466.699219 100.304688 C 464.488281 102.671875 464.621094 106.382812 466.988281 108.589844 L 475.839844 116.839844 C 476.847656 117.777344 477.09375 119.253906 476.503906 120.496094 C 474.941406 123.789062 473.679688 127.183594 472.714844 130.640625 C 472.347656 131.964844 471.191406 132.917969 469.816406 132.96875 L 457.71875 133.390625 C 454.484375 133.503906 451.953125 136.21875 452.066406 139.457031 L 452.859375 162.027344 C 452.972656 165.261719 455.6875 167.792969 458.921875 167.679688 L 471.019531 167.253906 C 472.394531 167.207031 473.613281 168.074219 474.074219 169.371094 C 475.28125 172.753906 476.777344 176.050781 478.566406 179.226562 C 479.242188 180.425781 479.097656 181.914062 478.160156 182.917969 L 469.910156 191.769531 C 467.699219 194.136719 467.832031 197.847656 470.199219 200.054688 Z M 470.199219 200.054688 " fill-opacity="1" fill-rule="nonzero"/><path fill="#3c3470" d="M 525.664062 233.832031 C 520.523438 233.832031 516.25 229.742188 516.070312 224.5625 L 515.660156 212.929688 C 512.25 211.957031 508.894531 210.703125 505.679688 209.203125 L 497.742188 217.714844 C 495.996094 219.59375 493.617188 220.675781 491.054688 220.765625 C 488.488281 220.859375 486.042969 219.941406 484.167969 218.191406 L 467.644531 202.792969 C 463.769531 199.183594 463.558594 193.09375 467.167969 189.21875 L 475.105469 180.707031 C 473.382812 177.605469 471.898438 174.347656 470.6875 171.011719 L 459.054688 171.417969 C 456.488281 171.511719 454.042969 170.597656 452.167969 168.847656 C 450.289062 167.097656 449.207031 164.722656 449.117188 162.15625 L 448.324219 139.585938 C 448.234375 137.023438 449.148438 134.578125 450.898438 132.699219 C 452.648438 130.824219 455.023438 129.738281 457.585938 129.648438 L 469.21875 129.242188 C 470.195312 125.828125 471.445312 122.476562 472.949219 119.261719 L 464.433594 111.324219 C 460.558594 107.714844 460.347656 101.625 463.957031 97.75 L 479.359375 81.230469 C 481.109375 79.355469 483.484375 78.269531 486.046875 78.179688 C 488.609375 78.089844 491.058594 79.003906 492.9375 80.753906 L 501.449219 88.6875 C 504.550781 86.96875 507.808594 85.480469 511.144531 84.269531 L 510.734375 72.640625 C 510.644531 70.074219 511.558594 67.628906 513.308594 65.753906 C 515.058594 63.875 517.433594 62.792969 520 62.703125 L 542.570312 61.910156 C 545.136719 61.820312 547.582031 62.734375 549.460938 64.484375 C 551.335938 66.234375 552.417969 68.609375 552.507812 71.171875 L 552.917969 82.804688 C 556.328125 83.78125 559.683594 85.03125 562.898438 86.53125 L 570.835938 78.019531 C 572.585938 76.144531 574.960938 75.058594 577.523438 74.96875 C 580.09375 74.878906 582.535156 75.792969 584.410156 77.542969 L 600.933594 92.941406 C 604.808594 96.554688 605.019531 102.644531 601.410156 106.519531 L 593.472656 115.03125 C 595.195312 118.132812 596.679688 121.390625 597.890625 124.726562 L 609.527344 124.316406 C 614.816406 124.128906 619.277344 128.285156 619.460938 133.578125 L 620.253906 156.148438 C 620.34375 158.714844 619.429688 161.160156 617.679688 163.035156 C 615.933594 164.914062 613.554688 165.996094 610.992188 166.085938 L 599.359375 166.496094 C 598.382812 169.90625 597.132812 173.261719 595.632812 176.476562 L 604.144531 184.410156 C 606.019531 186.160156 607.105469 188.535156 607.195312 191.097656 C 607.285156 193.664062 606.371094 196.109375 604.621094 197.984375 L 589.21875 214.503906 C 585.609375 218.378906 579.515625 218.59375 575.640625 214.980469 L 567.128906 207.046875 C 564.027344 208.769531 560.769531 210.253906 557.433594 211.464844 L 557.84375 223.097656 C 557.933594 225.660156 557.019531 228.105469 555.269531 229.984375 C 553.519531 231.859375 551.144531 232.945312 548.578125 233.035156 L 526.007812 233.828125 C 525.890625 233.832031 525.777344 233.832031 525.664062 233.832031 Z M 505.519531 201.585938 C 506.53125 201.585938 507.554688 201.808594 508.519531 202.265625 C 511.585938 203.71875 514.796875 204.917969 518.066406 205.832031 C 520.988281 206.644531 523.023438 209.207031 523.128906 212.207031 L 523.550781 224.300781 C 523.59375 225.46875 524.589844 226.378906 525.746094 226.34375 L 548.316406 225.550781 C 548.882812 225.53125 549.40625 225.292969 549.792969 224.878906 C 550.175781 224.464844 550.378906 223.925781 550.359375 223.359375 L 549.933594 211.265625 C 549.828125 208.265625 551.679688 205.566406 554.539062 204.550781 C 557.734375 203.410156 560.855469 201.988281 563.8125 200.324219 C 566.453125 198.835938 569.703125 199.210938 571.894531 201.253906 L 580.75 209.503906 C 581.601562 210.300781 582.945312 210.253906 583.742188 209.398438 L 599.144531 192.878906 C 599.527344 192.464844 599.730469 191.925781 599.710938 191.359375 C 599.691406 190.796875 599.453125 190.273438 599.039062 189.886719 L 590.1875 181.632812 C 587.992188 179.589844 587.390625 176.378906 588.691406 173.636719 C 590.144531 170.570312 591.34375 167.359375 592.257812 164.089844 C 593.074219 161.167969 595.636719 159.132812 598.632812 159.027344 L 610.730469 158.601562 C 611.292969 158.582031 611.820312 158.34375 612.203125 157.929688 C 612.589844 157.515625 612.792969 156.976562 612.773438 156.410156 L 611.980469 133.839844 C 611.9375 132.675781 610.949219 131.761719 609.789062 131.796875 L 597.691406 132.222656 C 594.679688 132.328125 591.996094 130.480469 590.976562 127.621094 C 589.839844 124.425781 588.414062 121.304688 586.75 118.347656 C 585.261719 115.707031 585.636719 112.457031 587.679688 110.265625 L 595.933594 101.414062 C 596.730469 100.558594 596.679688 99.214844 595.828125 98.417969 L 579.304688 83.019531 C 578.890625 82.632812 578.355469 82.429688 577.785156 82.453125 C 577.222656 82.472656 576.699219 82.710938 576.3125 83.125 L 568.058594 91.976562 C 566.015625 94.167969 562.800781 94.769531 560.0625 93.46875 C 556.996094 92.015625 553.78125 90.816406 550.511719 89.90625 C 547.589844 89.089844 545.558594 86.527344 545.449219 83.53125 L 545.027344 71.433594 C 545.007812 70.867188 544.765625 70.34375 544.355469 69.960938 C 543.941406 69.574219 543.402344 69.371094 542.835938 69.390625 L 520.261719 70.183594 C 519.695312 70.203125 519.171875 70.441406 518.789062 70.855469 C 518.402344 71.269531 518.199219 71.808594 518.21875 72.375 L 518.644531 84.46875 C 518.75 87.46875 516.902344 90.164062 514.042969 91.183594 C 510.84375 92.324219 507.722656 93.746094 504.765625 95.410156 C 502.125 96.898438 498.875 96.523438 496.683594 94.480469 L 487.832031 86.230469 C 487.417969 85.84375 486.875 85.640625 486.3125 85.664062 C 485.746094 85.683594 485.222656 85.921875 484.835938 86.335938 L 469.433594 102.855469 C 468.640625 103.707031 468.6875 105.050781 469.539062 105.847656 L 478.394531 114.101562 C 480.585938 116.144531 481.1875 119.359375 479.886719 122.097656 C 478.433594 125.164062 477.234375 128.378906 476.320312 131.644531 C 475.507812 134.566406 472.945312 136.601562 469.945312 136.707031 L 457.851562 137.132812 C 457.285156 137.152344 456.761719 137.390625 456.375 137.804688 C 455.988281 138.21875 455.789062 138.757812 455.808594 139.324219 L 456.601562 161.894531 C 456.621094 162.457031 456.859375 162.984375 457.273438 163.367188 C 457.6875 163.753906 458.226562 163.953125 458.792969 163.9375 L 470.886719 163.511719 C 473.890625 163.402344 476.582031 165.253906 477.601562 168.113281 C 478.742188 171.3125 480.164062 174.429688 481.828125 177.386719 C 483.316406 180.027344 482.941406 183.277344 480.898438 185.46875 L 472.648438 194.320312 C 471.851562 195.175781 471.898438 196.519531 472.75 197.316406 L 489.273438 212.714844 C 489.6875 213.101562 490.222656 213.304688 490.792969 213.28125 C 491.359375 213.261719 491.882812 213.023438 492.265625 212.609375 L 500.519531 203.757812 C 501.84375 202.339844 503.660156 201.585938 505.519531 201.585938 Z M 505.519531 201.585938 " fill-opacity="1" fill-rule="nonzero"/><path fill="#b4a8ff" d="M 557.925781 147.867188 C 557.925781 148.660156 557.886719 149.449219 557.808594 150.234375 C 557.734375 151.023438 557.617188 151.804688 557.460938 152.582031 C 557.308594 153.355469 557.117188 154.121094 556.886719 154.878906 C 556.65625 155.636719 556.390625 156.382812 556.085938 157.113281 C 555.785156 157.84375 555.445312 158.558594 555.074219 159.253906 C 554.699219 159.953125 554.292969 160.628906 553.855469 161.289062 C 553.414062 161.945312 552.945312 162.582031 552.441406 163.191406 C 551.941406 163.804688 551.410156 164.390625 550.851562 164.949219 C 550.292969 165.507812 549.707031 166.039062 549.09375 166.539062 C 548.484375 167.042969 547.847656 167.511719 547.191406 167.953125 C 546.53125 168.390625 545.855469 168.796875 545.15625 169.171875 C 544.457031 169.542969 543.746094 169.882812 543.011719 170.183594 C 542.28125 170.488281 541.539062 170.753906 540.78125 170.984375 C 540.023438 171.214844 539.257812 171.40625 538.480469 171.558594 C 537.707031 171.714844 536.921875 171.832031 536.136719 171.90625 C 535.347656 171.984375 534.558594 172.023438 533.769531 172.023438 C 532.976562 172.023438 532.1875 171.984375 531.398438 171.90625 C 530.613281 171.832031 529.832031 171.714844 529.054688 171.558594 C 528.277344 171.40625 527.511719 171.214844 526.753906 170.984375 C 526 170.753906 525.253906 170.488281 524.523438 170.183594 C 523.792969 169.882812 523.078125 169.542969 522.378906 169.171875 C 521.683594 168.796875 521.003906 168.390625 520.347656 167.953125 C 519.6875 167.511719 519.054688 167.042969 518.441406 166.539062 C 517.832031 166.039062 517.246094 165.507812 516.6875 164.949219 C 516.125 164.390625 515.59375 163.804688 515.09375 163.191406 C 514.589844 162.582031 514.121094 161.945312 513.679688 161.289062 C 513.242188 160.628906 512.835938 159.953125 512.460938 159.253906 C 512.089844 158.558594 511.75 157.84375 511.449219 157.113281 C 511.144531 156.382812 510.878906 155.636719 510.648438 154.878906 C 510.421875 154.121094 510.230469 153.355469 510.074219 152.582031 C 509.917969 151.804688 509.804688 151.023438 509.726562 150.234375 C 509.648438 149.449219 509.609375 148.660156 509.609375 147.867188 C 509.609375 147.078125 509.648438 146.289062 509.726562 145.5 C 509.804688 144.710938 509.917969 143.929688 510.074219 143.15625 C 510.226562 142.378906 510.421875 141.613281 510.648438 140.855469 C 510.878906 140.097656 511.144531 139.355469 511.449219 138.625 C 511.75 137.894531 512.089844 137.179688 512.460938 136.480469 C 512.835938 135.78125 513.242188 135.105469 513.679688 134.449219 C 514.121094 133.789062 514.589844 133.15625 515.09375 132.542969 C 515.59375 131.933594 516.125 131.347656 516.6875 130.785156 C 517.246094 130.226562 517.832031 129.695312 518.441406 129.195312 C 519.054688 128.691406 519.6875 128.222656 520.347656 127.78125 C 521.003906 127.34375 521.683594 126.9375 522.378906 126.5625 C 523.078125 126.191406 523.792969 125.851562 524.523438 125.550781 C 525.253906 125.246094 526 124.980469 526.753906 124.75 C 527.511719 124.523438 528.277344 124.332031 529.054688 124.175781 C 529.832031 124.023438 530.613281 123.90625 531.402344 123.828125 C 532.1875 123.75 532.976562 123.710938 533.769531 123.710938 C 534.558594 123.710938 535.347656 123.75 536.136719 123.828125 C 536.921875 123.90625 537.707031 124.023438 538.480469 124.175781 C 539.257812 124.332031 540.023438 124.523438 540.78125 124.75 C 541.539062 124.980469 542.28125 125.246094 543.011719 125.550781 C 543.746094 125.851562 544.457031 126.191406 545.15625 126.5625 C 545.855469 126.9375 546.53125 127.34375 547.191406 127.78125 C 547.847656 128.222656 548.484375 128.691406 549.09375 129.195312 C 549.707031 129.695312 550.292969 130.226562 550.851562 130.785156 C 551.410156 131.347656 551.941406 131.933594 552.441406 132.542969 C 552.945312 133.15625 553.414062 133.789062 553.855469 134.449219 C 554.292969 135.105469 554.699219 135.78125 555.074219 136.480469 C 555.445312 137.179688 555.785156 137.894531 556.085938 138.625 C 556.390625 139.355469 556.65625 140.097656 556.886719 140.855469 C 557.117188 141.613281 557.308594 142.378906 557.460938 143.15625 C 557.617188 143.929688 557.734375 144.710938 557.808594 145.5 C 557.886719 146.289062 557.925781 147.078125 557.925781 147.867188 Z M 557.925781 147.867188 " fill-opacity="1" fill-rule="nonzero"/><path fill="#3c3470" d="M 533.769531 175.769531 C 518.382812 175.769531 505.867188 163.253906 505.867188 147.867188 C 505.867188 132.484375 518.382812 119.96875 533.769531 119.96875 C 549.152344 119.96875 561.671875 132.484375 561.671875 147.867188 C 561.671875 163.253906 549.152344 175.769531 533.769531 175.769531 Z M 533.769531 127.457031 C 522.511719 127.457031 513.355469 136.613281 513.355469 147.867188 C 513.355469 159.125 522.511719 168.28125 533.769531 168.28125 C 545.023438 168.28125 554.183594 159.125 554.183594 147.867188 C 554.183594 136.613281 545.023438 127.457031 533.769531 127.457031 Z M 533.769531 127.457031 " fill-opacity="1" fill-rule="nonzero"/><path fill="#ffc180" d="M 431.890625 344.875 L 444.507812 356.636719 C 446.316406 358.320312 449.152344 358.222656 450.835938 356.414062 L 457.140625 349.652344 C 457.855469 348.882812 458.984375 348.695312 459.933594 349.144531 C 462.449219 350.339844 465.039062 351.300781 467.683594 352.039062 C 468.695312 352.320312 469.421875 353.203125 469.460938 354.253906 L 469.785156 363.492188 C 469.871094 365.964844 471.945312 367.898438 474.414062 367.808594 L 491.65625 367.207031 C 494.128906 367.117188 496.0625 365.046875 495.972656 362.574219 L 495.648438 353.335938 C 495.613281 352.285156 496.277344 351.355469 497.265625 351 C 499.851562 350.082031 502.367188 348.9375 504.792969 347.570312 C 505.710938 347.054688 506.847656 347.164062 507.617188 347.882812 L 514.375 354.183594 C 516.1875 355.871094 519.019531 355.769531 520.707031 353.960938 L 532.46875 341.34375 C 534.15625 339.535156 534.054688 336.703125 532.246094 335.015625 L 525.484375 328.714844 C 524.714844 327.996094 524.527344 326.871094 524.976562 325.921875 C 526.171875 323.40625 527.132812 320.8125 527.871094 318.171875 C 528.152344 317.160156 529.035156 316.433594 530.085938 316.394531 L 539.328125 316.070312 C 541.796875 315.984375 543.730469 313.910156 543.644531 311.4375 L 543.039062 294.199219 C 542.953125 291.730469 540.878906 289.796875 538.40625 289.882812 L 529.167969 290.207031 C 528.117188 290.242188 527.1875 289.578125 526.832031 288.589844 C 525.914062 286.007812 524.769531 283.488281 523.402344 281.0625 C 522.886719 280.148438 522.996094 279.011719 523.714844 278.242188 L 530.015625 271.480469 C 531.703125 269.671875 531.601562 266.839844 529.792969 265.152344 L 517.175781 253.390625 C 515.367188 251.703125 512.53125 251.804688 510.847656 253.613281 L 504.542969 260.375 C 503.828125 261.140625 502.699219 261.332031 501.75 260.878906 C 499.234375 259.6875 496.644531 258.722656 494 257.988281 C 492.988281 257.703125 492.261719 256.820312 492.222656 255.769531 L 491.898438 246.53125 C 491.8125 244.0625 489.738281 242.128906 487.269531 242.214844 L 470.027344 242.820312 C 467.554688 242.90625 465.621094 244.980469 465.710938 247.453125 L 466.035156 256.691406 C 466.070312 257.742188 465.40625 258.671875 464.417969 259.023438 C 461.832031 259.945312 459.3125 261.089844 456.890625 262.453125 C 455.972656 262.96875 454.835938 262.859375 454.066406 262.144531 L 447.304688 255.84375 C 445.496094 254.15625 442.664062 254.253906 440.976562 256.0625 L 429.214844 268.683594 C 427.527344 270.492188 427.628906 273.324219 429.4375 275.011719 L 436.199219 281.3125 C 436.96875 282.027344 437.15625 283.15625 436.707031 284.105469 C 435.511719 286.621094 434.546875 289.210938 433.8125 291.855469 C 433.527344 292.867188 432.648438 293.59375 431.597656 293.632812 L 422.355469 293.957031 C 419.886719 294.042969 417.953125 296.117188 418.039062 298.585938 L 418.644531 315.828125 C 418.730469 318.296875 420.804688 320.230469 423.277344 320.144531 L 432.515625 319.820312 C 433.566406 319.78125 434.496094 320.445312 434.851562 321.4375 C 435.769531 324.019531 436.914062 326.539062 438.28125 328.964844 C 438.796875 329.878906 438.6875 331.015625 437.96875 331.785156 L 431.667969 338.546875 C 429.980469 340.355469 430.082031 343.1875 431.890625 344.875 Z M 431.890625 344.875 " fill-opacity="1" fill-rule="nonzero"/><path fill="#3c3470" d="M 474.253906 371.558594 C 469.851562 371.558594 466.199219 368.058594 466.042969 363.625 L 465.753906 355.378906 C 463.519531 354.710938 461.324219 353.890625 459.203125 352.933594 L 453.574219 358.964844 C 450.484375 362.28125 445.273438 362.464844 441.957031 359.375 L 429.335938 347.613281 C 426.019531 344.523438 425.835938 339.308594 428.929688 335.992188 L 434.554688 329.960938 C 433.449219 327.910156 432.476562 325.777344 431.65625 323.597656 L 423.40625 323.886719 C 418.863281 324.046875 415.0625 320.488281 414.902344 315.957031 L 414.296875 298.71875 C 414.21875 296.523438 415.003906 294.433594 416.5 292.824219 C 417.996094 291.21875 420.03125 290.292969 422.226562 290.214844 L 430.472656 289.925781 C 431.140625 287.695312 431.960938 285.496094 432.917969 283.375 L 426.882812 277.75 C 423.566406 274.660156 423.386719 269.445312 426.476562 266.128906 L 438.238281 253.511719 C 439.738281 251.90625 441.769531 250.980469 443.964844 250.902344 C 446.15625 250.824219 448.253906 251.609375 449.859375 253.105469 L 455.894531 258.730469 C 457.945312 257.625 460.078125 256.652344 462.257812 255.832031 L 461.96875 247.585938 C 461.890625 245.390625 462.671875 243.296875 464.171875 241.691406 C 465.667969 240.085938 467.703125 239.15625 469.894531 239.082031 L 487.136719 238.476562 C 491.683594 238.3125 495.480469 241.871094 495.640625 246.402344 L 495.929688 254.648438 C 498.164062 255.316406 500.359375 256.136719 502.484375 257.09375 L 508.109375 251.0625 C 509.605469 249.453125 511.636719 248.527344 513.832031 248.449219 C 516.035156 248.375 518.121094 249.15625 519.726562 250.652344 L 532.347656 262.414062 C 533.953125 263.914062 534.878906 265.945312 534.957031 268.140625 C 535.035156 270.335938 534.253906 272.429688 532.753906 274.035156 L 527.128906 280.070312 C 528.234375 282.117188 529.207031 284.25 530.03125 286.429688 L 538.277344 286.140625 C 540.476562 286.066406 542.566406 286.847656 544.171875 288.34375 C 545.777344 289.839844 546.703125 291.875 546.78125 294.070312 L 547.386719 311.308594 C 547.546875 315.839844 543.988281 319.652344 539.457031 319.8125 L 531.210938 320.101562 C 530.542969 322.332031 529.722656 324.527344 528.765625 326.652344 L 534.800781 332.277344 C 538.117188 335.367188 538.300781 340.582031 535.207031 343.898438 L 523.445312 356.515625 C 521.945312 358.121094 519.914062 359.046875 517.71875 359.125 C 515.527344 359.203125 513.429688 358.417969 511.824219 356.921875 L 505.789062 351.296875 C 503.738281 352.402344 501.605469 353.375 499.425781 354.195312 L 499.714844 362.441406 C 499.792969 364.636719 499.011719 366.730469 497.511719 368.335938 C 496.015625 369.945312 493.984375 370.871094 491.789062 370.949219 L 474.546875 371.550781 C 474.449219 371.554688 474.351562 371.558594 474.253906 371.558594 Z M 458.867188 345.160156 C 459.765625 345.160156 460.679688 345.355469 461.535156 345.761719 C 463.832031 346.851562 466.238281 347.75 468.6875 348.433594 C 471.292969 349.160156 473.105469 351.445312 473.199219 354.125 L 473.523438 363.363281 C 473.539062 363.765625 473.878906 364.082031 474.285156 364.070312 L 491.523438 363.464844 C 491.777344 363.457031 491.941406 363.332031 492.035156 363.230469 C 492.128906 363.128906 492.242188 362.957031 492.230469 362.707031 L 491.90625 353.464844 C 491.8125 350.789062 493.460938 348.382812 496.007812 347.476562 C 498.402344 346.621094 500.742188 345.558594 502.957031 344.308594 C 505.3125 342.984375 508.210938 343.316406 510.167969 345.144531 L 516.929688 351.445312 C 517.113281 351.617188 517.320312 351.648438 517.457031 351.640625 C 517.59375 351.636719 517.796875 351.59375 517.964844 351.410156 L 529.730469 338.789062 C 530.003906 338.496094 529.988281 338.03125 529.691406 337.753906 L 522.933594 331.453125 C 520.972656 329.625 520.4375 326.761719 521.59375 324.316406 C 522.683594 322.019531 523.582031 319.613281 524.265625 317.164062 C 524.992188 314.5625 527.277344 312.746094 529.957031 312.652344 L 539.195312 312.328125 C 539.597656 312.316406 539.917969 311.976562 539.902344 311.570312 L 539.296875 294.332031 C 539.289062 294.082031 539.164062 293.914062 539.0625 293.820312 C 538.960938 293.726562 538.789062 293.617188 538.539062 293.625 L 529.296875 293.949219 C 526.621094 294.042969 524.210938 292.394531 523.304688 289.84375 C 522.453125 287.449219 521.386719 285.113281 520.140625 282.898438 C 518.8125 280.542969 519.148438 277.644531 520.972656 275.6875 L 527.277344 268.929688 C 527.449219 268.746094 527.476562 268.539062 527.472656 268.402344 C 527.46875 268.261719 527.425781 268.0625 527.238281 267.890625 L 514.621094 256.128906 C 514.4375 255.957031 514.230469 255.929688 514.09375 255.933594 C 513.957031 255.9375 513.753906 255.980469 513.582031 256.164062 L 507.28125 262.925781 C 505.457031 264.882812 502.589844 265.421875 500.144531 264.261719 C 497.847656 263.175781 495.441406 262.277344 492.996094 261.59375 C 490.390625 260.867188 488.574219 258.582031 488.480469 255.902344 L 488.15625 246.664062 C 488.144531 246.261719 487.816406 245.949219 487.398438 245.957031 L 470.15625 246.5625 C 469.90625 246.570312 469.742188 246.695312 469.648438 246.796875 C 469.550781 246.898438 469.441406 247.070312 469.449219 247.320312 L 469.773438 256.558594 C 469.867188 259.238281 468.21875 261.644531 465.671875 262.550781 C 463.277344 263.40625 460.941406 264.46875 458.726562 265.71875 C 456.371094 267.042969 453.472656 266.710938 451.515625 264.882812 L 444.753906 258.582031 C 444.570312 258.410156 444.367188 258.378906 444.226562 258.386719 C 444.089844 258.390625 443.886719 258.433594 443.714844 258.617188 L 431.953125 271.238281 C 431.675781 271.53125 431.691406 271.996094 431.988281 272.273438 L 438.75 278.574219 C 440.707031 280.402344 441.246094 283.269531 440.085938 285.710938 C 439 288.007812 438.101562 290.414062 437.417969 292.863281 C 436.691406 295.464844 434.402344 297.28125 431.726562 297.375 L 422.488281 297.699219 C 422.238281 297.707031 422.070312 297.828125 421.976562 297.929688 C 421.882812 298.03125 421.769531 298.207031 421.78125 298.457031 L 422.386719 315.695312 C 422.398438 316.101562 422.746094 316.421875 423.144531 316.402344 L 432.382812 316.078125 C 435.054688 315.984375 437.46875 317.632812 438.375 320.179688 C 439.230469 322.578125 440.292969 324.914062 441.542969 327.128906 C 442.867188 329.484375 442.535156 332.378906 440.707031 334.339844 L 434.40625 341.097656 C 434.128906 341.394531 434.144531 341.859375 434.441406 342.136719 L 447.0625 353.898438 C 447.355469 354.175781 447.820312 354.15625 448.097656 353.863281 L 454.402344 347.101562 C 455.585938 345.832031 457.207031 345.160156 458.867188 345.160156 Z M 458.867188 345.160156 " fill-opacity="1" fill-rule="nonzero"/><path fill="#ffc180" d="M 498.894531 305.011719 C 498.894531 305.617188 498.867188 306.21875 498.808594 306.820312 C 498.75 307.421875 498.660156 308.019531 498.542969 308.613281 C 498.421875 309.207031 498.277344 309.792969 498.101562 310.371094 C 497.925781 310.949219 497.722656 311.515625 497.492188 312.074219 C 497.261719 312.632812 497.003906 313.179688 496.71875 313.710938 C 496.433594 314.242188 496.121094 314.761719 495.785156 315.265625 C 495.449219 315.765625 495.089844 316.25 494.707031 316.71875 C 494.324219 317.1875 493.917969 317.632812 493.492188 318.058594 C 493.0625 318.488281 492.617188 318.894531 492.148438 319.277344 C 491.683594 319.660156 491.199219 320.019531 490.695312 320.355469 C 490.191406 320.691406 489.675781 321 489.140625 321.285156 C 488.609375 321.570312 488.0625 321.828125 487.503906 322.058594 C 486.945312 322.289062 486.378906 322.496094 485.800781 322.667969 C 485.222656 322.84375 484.636719 322.992188 484.042969 323.109375 C 483.449219 323.226562 482.855469 323.316406 482.253906 323.375 C 481.652344 323.433594 481.046875 323.464844 480.445312 323.464844 C 479.839844 323.464844 479.238281 323.433594 478.636719 323.375 C 478.035156 323.316406 477.4375 323.226562 476.84375 323.109375 C 476.25 322.992188 475.664062 322.84375 475.085938 322.667969 C 474.507812 322.496094 473.941406 322.289062 473.382812 322.058594 C 472.824219 321.828125 472.277344 321.570312 471.746094 321.285156 C 471.210938 321 470.695312 320.691406 470.191406 320.355469 C 469.691406 320.019531 469.207031 319.660156 468.738281 319.277344 C 468.269531 318.894531 467.824219 318.488281 467.394531 318.058594 C 466.96875 317.632812 466.5625 317.1875 466.179688 316.71875 C 465.796875 316.25 465.4375 315.765625 465.101562 315.265625 C 464.765625 314.761719 464.457031 314.242188 464.171875 313.710938 C 463.886719 313.179688 463.628906 312.632812 463.394531 312.074219 C 463.164062 311.515625 462.960938 310.949219 462.785156 310.371094 C 462.609375 309.792969 462.464844 309.207031 462.347656 308.613281 C 462.226562 308.019531 462.140625 307.421875 462.082031 306.820312 C 462.023438 306.21875 461.992188 305.617188 461.992188 305.011719 C 461.992188 304.410156 462.023438 303.804688 462.082031 303.207031 C 462.140625 302.605469 462.226562 302.007812 462.347656 301.414062 C 462.464844 300.820312 462.609375 300.234375 462.785156 299.65625 C 462.960938 299.078125 463.164062 298.511719 463.394531 297.953125 C 463.628906 297.394531 463.886719 296.847656 464.171875 296.316406 C 464.457031 295.78125 464.765625 295.265625 465.101562 294.761719 C 465.4375 294.261719 465.796875 293.777344 466.179688 293.308594 C 466.5625 292.839844 466.96875 292.394531 467.394531 291.96875 C 467.824219 291.539062 468.269531 291.132812 468.738281 290.75 C 469.207031 290.367188 469.691406 290.007812 470.191406 289.671875 C 470.695312 289.335938 471.210938 289.027344 471.746094 288.742188 C 472.277344 288.457031 472.824219 288.199219 473.382812 287.96875 C 473.941406 287.734375 474.507812 287.53125 475.085938 287.359375 C 475.664062 287.183594 476.25 287.035156 476.84375 286.917969 C 477.4375 286.800781 478.035156 286.710938 478.636719 286.652344 C 479.238281 286.59375 479.839844 286.5625 480.445312 286.5625 C 481.046875 286.5625 481.652344 286.59375 482.253906 286.652344 C 482.855469 286.710938 483.449219 286.800781 484.042969 286.917969 C 484.636719 287.035156 485.222656 287.183594 485.800781 287.359375 C 486.378906 287.53125 486.945312 287.734375 487.503906 287.96875 C 488.0625 288.199219 488.609375 288.457031 489.140625 288.742188 C 489.675781 289.027344 490.191406 289.335938 490.695312 289.671875 C 491.199219 290.007812 491.683594 290.367188 492.148438 290.75 C 492.617188 291.132812 493.0625 291.539062 493.492188 291.96875 C 493.917969 292.394531 494.324219 292.839844 494.707031 293.308594 C 495.089844 293.777344 495.449219 294.261719 495.785156 294.761719 C 496.121094 295.265625 496.433594 295.78125 496.71875 296.316406 C 497.003906 296.847656 497.261719 297.394531 497.492188 297.953125 C 497.722656 298.511719 497.925781 299.078125 498.101562 299.65625 C 498.277344 300.234375 498.421875 300.820312 498.542969 301.414062 C 498.660156 302.007812 498.75 302.605469 498.808594 303.207031 C 498.867188 303.804688 498.894531 304.410156 498.894531 305.011719 Z M 498.894531 305.011719 " fill-opacity="1" fill-rule="nonzero"/><path fill="#3c3470" d="M 480.445312 327.207031 C 468.203125 327.207031 458.246094 317.25 458.246094 305.011719 C 458.246094 292.777344 468.203125 282.820312 480.445312 282.820312 C 492.683594 282.820312 502.640625 292.777344 502.640625 305.011719 C 502.640625 317.25 492.683594 327.207031 480.445312 327.207031 Z M 480.445312 290.304688 C 472.332031 290.304688 465.734375 296.902344 465.734375 305.011719 C 465.734375 313.121094 472.332031 319.71875 480.445312 319.71875 C 488.554688 319.71875 495.152344 313.121094 495.152344 305.011719 C 495.152344 296.902344 488.554688 290.304688 480.445312 290.304688 Z M 480.445312 290.304688 " fill-opacity="1" fill-rule="nonzero"/><path fill="#3c3470" d="M 708.507812 285.089844 L 634.9375 285.089844 C 632.871094 285.089844 631.195312 283.414062 631.195312 281.347656 C 631.195312 279.28125 632.871094 277.605469 634.9375 277.605469 L 708.507812 277.605469 C 710.578125 277.605469 712.253906 279.28125 712.253906 281.347656 C 712.253906 283.414062 710.578125 285.089844 708.507812 285.089844 Z M 708.507812 285.089844 " fill-opacity="1" fill-rule="nonzero"/><path fill="#3c3470" d="M 658.832031 314.464844 C 657.859375 314.464844 656.886719 314.085938 656.152344 313.335938 L 627.503906 283.960938 C 626.085938 282.507812 626.085938 280.1875 627.503906 278.734375 L 656.152344 249.359375 C 657.597656 247.882812 659.964844 247.851562 661.445312 249.292969 C 662.925781 250.738281 662.957031 253.109375 661.511719 254.589844 L 635.414062 281.347656 L 661.511719 308.105469 C 662.957031 309.585938 662.925781 311.957031 661.445312 313.402344 C 660.71875 314.109375 659.777344 314.464844 658.832031 314.464844 Z M 658.832031 314.464844 " fill-opacity="1" fill-rule="nonzero"/><path fill="#3c3470" d="M 713.875 347.890625 L 640.304688 347.890625 C 638.238281 347.890625 636.5625 346.214844 636.5625 344.148438 C 636.5625 342.078125 638.238281 340.402344 640.304688 340.402344 L 713.875 340.402344 C 715.945312 340.402344 717.621094 342.078125 717.621094 344.148438 C 717.621094 346.214844 715.945312 347.890625 713.875 347.890625 Z M 713.875 347.890625 " fill-opacity="1" fill-rule="nonzero"/><path fill="#3c3470" d="M 689.980469 377.265625 C 689.039062 377.265625 688.097656 376.910156 687.367188 376.199219 C 685.886719 374.757812 685.859375 372.386719 687.300781 370.90625 L 713.402344 344.148438 L 687.300781 317.390625 C 685.859375 315.910156 685.886719 313.539062 687.367188 312.09375 C 688.847656 310.652344 691.21875 310.679688 692.660156 312.160156 L 721.3125 341.535156 C 722.730469 342.988281 722.730469 345.308594 721.3125 346.761719 L 692.660156 376.132812 C 691.929688 376.886719 690.957031 377.265625 689.980469 377.265625 Z M 689.980469 377.265625 " fill-opacity="1" fill-rule="nonzero"/><path fill="#ffffff" d="M 247.496094 189.476562 L 79.816406 189.476562 C 49.203125 189.476562 24.386719 214.289062 24.386719 244.898438 L 24.386719 341.578125 C 21.109375 385.175781 44.007812 405.8125 68.210938 405.8125 L 68.65625 405.8125 L 68.65625 465.257812 C 68.65625 472.105469 76.703125 475.78125 81.878906 471.296875 L 157.5 405.8125 L 247.496094 405.8125 C 278.105469 405.8125 302.921875 381 302.921875 350.390625 L 302.921875 244.898438 C 302.921875 214.289062 278.105469 189.476562 247.496094 189.476562 Z M 247.496094 189.476562 " fill-opacity="1" fill-rule="nonzero"/><path fill="#3c3470" d="M 76.683594 477.011719 C 75.03125 477.011719 73.359375 476.65625 71.769531 475.929688 C 67.539062 474 64.910156 469.910156 64.910156 465.257812 L 64.910156 409.4375 C 53.660156 408.628906 43.347656 403.691406 35.585938 395.324219 C 27.582031 386.699219 18.503906 370.351562 20.644531 341.441406 L 20.644531 244.898438 C 20.644531 212.273438 47.1875 185.734375 79.816406 185.734375 L 247.496094 185.734375 C 280.121094 185.734375 306.667969 212.273438 306.667969 244.898438 L 306.667969 350.390625 C 306.667969 383.015625 280.121094 409.554688 247.496094 409.554688 L 158.894531 409.554688 L 84.328125 474.128906 C 82.132812 476.027344 79.433594 477.011719 76.683594 477.011719 Z M 79.816406 193.21875 C 51.316406 193.21875 28.132812 216.402344 28.132812 244.898438 L 28.132812 341.582031 C 28.132812 341.675781 28.128906 341.765625 28.121094 341.859375 C 26.144531 368.167969 34.074219 382.6875 41.074219 390.234375 C 48.15625 397.867188 57.792969 402.070312 68.210938 402.070312 L 68.65625 402.070312 C 70.722656 402.070312 72.398438 403.746094 72.398438 405.8125 L 72.398438 465.257812 C 72.398438 466.96875 73.328125 468.410156 74.882812 469.121094 C 76.433594 469.832031 78.136719 469.585938 79.425781 468.46875 L 155.046875 402.984375 C 155.730469 402.394531 156.597656 402.070312 157.5 402.070312 L 247.496094 402.070312 C 275.992188 402.070312 299.179688 378.886719 299.179688 350.390625 L 299.179688 244.898438 C 299.179688 216.402344 275.992188 193.21875 247.496094 193.21875 Z M 79.816406 193.21875 " fill-opacity="1" fill-rule="nonzero"/><path fill="#b4a8ff" d="M 197.957031 30.683594 L 337.078125 30.683594 C 362.472656 30.683594 383.0625 51.273438 383.0625 76.667969 L 383.0625 156.882812 C 385.78125 193.054688 366.785156 210.175781 346.703125 210.175781 L 346.335938 210.175781 L 346.335938 259.496094 C 346.335938 265.175781 339.660156 268.226562 335.367188 264.507812 L 272.621094 210.175781 L 197.957031 210.175781 C 172.558594 210.175781 151.96875 189.589844 151.96875 164.191406 L 151.96875 76.667969 C 151.96875 51.273438 172.558594 30.683594 197.957031 30.683594 Z M 197.957031 30.683594 " fill-opacity="1" fill-rule="nonzero"/><g clip-path="url(#d5ecb165f3)"><path fill="#3c3470" d="M 339.671875 269.886719 C 337.242188 269.886719 334.855469 269.019531 332.914062 267.335938 L 271.226562 213.917969 L 197.957031 213.917969 C 170.535156 213.917969 148.222656 191.613281 148.222656 164.191406 L 148.222656 76.667969 C 148.222656 49.25 170.535156 26.941406 197.957031 26.941406 L 337.078125 26.941406 C 364.5 26.941406 386.808594 49.25 386.808594 76.667969 L 386.808594 156.742188 C 388.59375 180.945312 380.964844 194.660156 374.242188 201.90625 C 367.828125 208.820312 359.34375 212.960938 350.078125 213.773438 L 350.078125 259.496094 C 350.078125 263.609375 347.753906 267.222656 344.015625 268.929688 C 342.613281 269.574219 341.132812 269.886719 339.671875 269.886719 Z M 197.957031 34.429688 C 174.664062 34.429688 155.710938 53.378906 155.710938 76.667969 L 155.710938 164.191406 C 155.710938 187.484375 174.664062 206.433594 197.957031 206.433594 L 272.621094 206.433594 C 273.523438 206.433594 274.394531 206.757812 275.074219 207.347656 L 337.816406 261.679688 C 339.082031 262.773438 340.398438 262.351562 340.90625 262.121094 C 341.410156 261.890625 342.589844 261.171875 342.589844 259.496094 L 342.589844 210.175781 C 342.589844 208.109375 344.269531 206.433594 346.335938 206.433594 L 346.703125 206.433594 C 355.167969 206.433594 363 203.015625 368.75 196.816406 C 374.472656 190.648438 380.953125 178.761719 379.328125 157.164062 C 379.324219 157.070312 379.320312 156.976562 379.320312 156.882812 L 379.320312 76.667969 C 379.320312 53.378906 360.371094 34.429688 337.078125 34.429688 Z M 197.957031 34.429688 " fill-opacity="1" fill-rule="nonzero"/></g><path fill="#ffffff" d="M 246.503906 178.585938 C 242.859375 178.585938 239.21875 177.195312 236.445312 174.421875 L 199.300781 137.277344 C 193.746094 131.726562 193.746094 122.722656 199.300781 117.171875 C 204.851562 111.613281 213.855469 111.617188 219.410156 117.171875 L 246.703125 144.460938 L 323.90625 70.324219 C 329.566406 64.882812 338.570312 65.0625 344.011719 70.730469 C 349.449219 76.394531 349.269531 85.394531 343.601562 90.832031 L 256.351562 174.625 C 253.597656 177.269531 250.046875 178.585938 246.503906 178.585938 Z M 246.503906 178.585938 " fill-opacity="1" fill-rule="nonzero"/><path fill="#3c3470" d="M 246.503906 182.332031 C 241.703125 182.332031 237.191406 180.460938 233.796875 177.066406 L 196.652344 139.921875 C 193.257812 136.53125 191.390625 132.023438 191.390625 127.222656 C 191.390625 122.425781 193.257812 117.914062 196.652344 114.523438 C 200.042969 111.128906 204.554688 109.261719 209.351562 109.261719 C 209.351562 109.261719 209.351562 109.261719 209.355469 109.261719 C 214.152344 109.261719 218.664062 111.128906 222.054688 114.523438 L 246.753906 139.21875 L 321.3125 67.625 C 324.769531 64.300781 329.320312 62.515625 334.117188 62.617188 C 338.914062 62.714844 343.386719 64.675781 346.710938 68.136719 C 350.035156 71.597656 351.8125 76.144531 351.714844 80.941406 C 351.617188 85.738281 349.65625 90.210938 346.195312 93.535156 L 258.941406 177.324219 C 255.582031 180.550781 251.164062 182.332031 246.503906 182.332031 Z M 209.351562 116.75 C 206.554688 116.75 203.925781 117.839844 201.949219 119.816406 C 199.96875 121.796875 198.878906 124.425781 198.878906 127.222656 C 198.878906 130.019531 199.96875 132.652344 201.945312 134.628906 L 239.09375 171.773438 C 241.070312 173.753906 243.703125 174.84375 246.503906 174.84375 C 249.222656 174.84375 251.796875 173.808594 253.757812 171.925781 L 341.011719 88.132812 C 343.027344 86.195312 344.171875 83.589844 344.226562 80.792969 C 344.285156 77.992188 343.25 75.339844 341.308594 73.324219 C 339.371094 71.304688 336.761719 70.160156 333.964844 70.105469 C 331.167969 70.054688 328.515625 71.085938 326.5 73.023438 L 249.296875 147.164062 C 247.824219 148.574219 245.496094 148.550781 244.054688 147.109375 L 216.761719 119.820312 C 214.78125 117.839844 212.152344 116.75 209.355469 116.75 C 209.351562 116.75 209.351562 116.75 209.351562 116.75 Z M 209.351562 116.75 " fill-opacity="1" fill-rule="nonzero"/><path fill="#3c3470" d="M 83.308594 294.128906 C 81.238281 294.128906 79.5625 292.453125 79.5625 290.382812 L 79.5625 261.835938 L 72.34375 269.054688 C 70.878906 270.515625 68.511719 270.515625 67.046875 269.054688 C 65.585938 267.59375 65.585938 265.222656 67.046875 263.761719 L 80.660156 250.152344 C 81.730469 249.078125 83.339844 248.757812 84.742188 249.339844 C 86.140625 249.917969 87.050781 251.28125 87.050781 252.796875 L 87.050781 290.382812 C 87.050781 292.453125 85.375 294.128906 83.308594 294.128906 Z M 83.308594 294.128906 " fill-opacity="1" fill-rule="nonzero"/><path fill="#3c3470" d="M 196.308594 294.128906 C 194.242188 294.128906 192.566406 292.453125 192.566406 290.382812 L 192.566406 261.835938 L 185.34375 269.054688 C 183.882812 270.515625 181.511719 270.515625 180.050781 269.054688 C 178.589844 267.59375 178.589844 265.222656 180.050781 263.761719 L 193.664062 250.152344 C 194.734375 249.078125 196.34375 248.757812 197.742188 249.339844 C 199.140625 249.917969 200.054688 251.28125 200.054688 252.796875 L 200.054688 290.382812 C 200.054688 292.453125 198.378906 294.128906 196.308594 294.128906 Z M 196.308594 294.128906 " fill-opacity="1" fill-rule="nonzero"/><path fill="#3c3470" d="M 133.003906 294.835938 C 124.710938 294.835938 117.960938 288.089844 117.960938 279.796875 L 117.960938 263.175781 C 117.960938 254.882812 124.710938 248.136719 133.003906 248.136719 C 141.296875 248.136719 148.042969 254.882812 148.042969 263.175781 L 148.042969 279.796875 C 148.042969 288.089844 141.296875 294.835938 133.003906 294.835938 Z M 133.003906 255.625 C 128.839844 255.625 125.449219 259.011719 125.449219 263.175781 L 125.449219 279.796875 C 125.449219 283.960938 128.839844 287.347656 133.003906 287.347656 C 137.167969 287.347656 140.554688 283.960938 140.554688 279.796875 L 140.554688 263.175781 C 140.554688 259.011719 137.167969 255.625 133.003906 255.625 Z M 133.003906 255.625 " fill-opacity="1" fill-rule="nonzero"/><path fill="#3c3470" d="M 246.003906 294.835938 C 237.710938 294.835938 230.964844 288.089844 230.964844 279.796875 L 230.964844 263.175781 C 230.964844 254.882812 237.710938 248.136719 246.003906 248.136719 C 254.296875 248.136719 261.042969 254.882812 261.042969 263.175781 L 261.042969 279.796875 C 261.042969 288.089844 254.296875 294.835938 246.003906 294.835938 Z M 246.003906 255.625 C 241.839844 255.625 238.453125 259.011719 238.453125 263.175781 L 238.453125 279.796875 C 238.453125 283.960938 241.839844 287.347656 246.003906 287.347656 C 250.167969 287.347656 253.558594 283.960938 253.558594 279.796875 L 253.558594 263.175781 C 253.558594 259.011719 250.167969 255.625 246.003906 255.625 Z M 246.003906 255.625 " fill-opacity="1" fill-rule="nonzero"/><path fill="#3c3470" d="M 83.308594 355.59375 C 81.238281 355.59375 79.5625 353.917969 79.5625 351.851562 L 79.5625 323.300781 L 72.34375 330.519531 C 70.878906 331.984375 68.511719 331.984375 67.046875 330.519531 C 65.585938 329.058594 65.585938 326.6875 67.046875 325.226562 L 80.660156 311.617188 C 81.730469 310.546875 83.339844 310.226562 84.742188 310.804688 C 86.140625 311.382812 87.050781 312.75 87.050781 314.261719 L 87.050781 351.851562 C 87.050781 353.917969 85.375 355.59375 83.308594 355.59375 Z M 83.308594 355.59375 " fill-opacity="1" fill-rule="nonzero"/><path fill="#3c3470" d="M 252.8125 355.59375 C 250.742188 355.59375 249.066406 353.917969 249.066406 351.851562 L 249.066406 323.300781 L 241.847656 330.519531 C 240.382812 331.984375 238.011719 331.984375 236.550781 330.519531 C 235.089844 329.058594 235.089844 326.6875 236.550781 325.226562 L 250.164062 311.617188 C 251.234375 310.546875 252.84375 310.226562 254.242188 310.804688 C 255.640625 311.382812 256.554688 312.75 256.554688 314.261719 L 256.554688 351.851562 C 256.554688 353.917969 254.878906 355.59375 252.8125 355.59375 Z M 252.8125 355.59375 " fill-opacity="1" fill-rule="nonzero"/><path fill="#3c3470" d="M 133.003906 356.300781 C 124.710938 356.300781 117.960938 349.554688 117.960938 341.261719 L 117.960938 324.644531 C 117.960938 316.351562 124.710938 309.605469 133.003906 309.605469 C 141.296875 309.605469 148.042969 316.351562 148.042969 324.644531 L 148.042969 341.261719 C 148.042969 349.554688 141.296875 356.300781 133.003906 356.300781 Z M 133.003906 317.089844 C 128.839844 317.089844 125.449219 320.480469 125.449219 324.644531 L 125.449219 341.261719 C 125.449219 345.425781 128.839844 348.8125 133.003906 348.8125 C 137.167969 348.8125 140.554688 345.425781 140.554688 341.261719 L 140.554688 324.644531 C 140.554688 320.480469 137.167969 317.089844 133.003906 317.089844 Z M 133.003906 317.089844 " fill-opacity="1" fill-rule="nonzero"/><path fill="#3c3470" d="M 189.503906 356.300781 C 181.210938 356.300781 174.464844 349.554688 174.464844 341.261719 L 174.464844 324.644531 C 174.464844 316.351562 181.210938 309.605469 189.503906 309.605469 C 197.796875 309.605469 204.542969 316.351562 204.542969 324.644531 L 204.542969 341.261719 C 204.542969 349.554688 197.796875 356.300781 189.503906 356.300781 Z M 189.503906 317.089844 C 185.339844 317.089844 181.953125 320.480469 181.953125 324.644531 L 181.953125 341.261719 C 181.953125 345.425781 185.339844 348.8125 189.503906 348.8125 C 193.667969 348.8125 197.054688 345.425781 197.054688 341.261719 L 197.054688 324.644531 C 197.054688 320.480469 193.667969 317.089844 189.503906 317.089844 Z M 189.503906 317.089844 " fill-opacity="1" fill-rule="nonzero"/><path fill="#ffc180" d="M 401.714844 444.378906 C 398.898438 444.238281 396.0625 444.167969 393.210938 444.167969 C 300.59375 444.167969 225.515625 519.238281 225.515625 611.84375 C 225.515625 704.445312 300.59375 779.515625 393.210938 779.515625 C 427.046875 779.515625 458.542969 769.496094 484.894531 752.261719 L 541.132812 578.484375 Z M 401.714844 444.378906 " fill-opacity="1" fill-rule="nonzero"/><g clip-path="url(#a9800bc7cc)"><path fill="#3c3470" d="M 393.210938 783.257812 C 370.066406 783.257812 347.617188 778.726562 326.476562 769.789062 C 306.0625 761.152344 287.726562 748.792969 271.984375 733.050781 C 256.242188 717.3125 243.878906 698.980469 235.246094 678.566406 C 226.304688 657.429688 221.769531 634.980469 221.769531 611.839844 C 221.769531 588.703125 226.304688 566.253906 235.246094 545.117188 C 243.878906 524.703125 256.242188 506.371094 271.984375 490.632812 C 287.726562 474.890625 306.0625 462.53125 326.476562 453.894531 C 347.613281 444.957031 370.066406 440.421875 393.210938 440.421875 C 396.101562 440.421875 399.023438 440.496094 401.902344 440.640625 C 402.800781 440.683594 403.65625 441.054688 404.308594 441.679688 L 543.726562 575.785156 C 544.761719 576.777344 545.136719 578.273438 544.695312 579.636719 L 488.453125 753.414062 C 488.191406 754.226562 487.65625 754.925781 486.941406 755.394531 C 459.070312 773.625 426.660156 783.257812 393.210938 783.257812 Z M 393.210938 447.910156 C 302.808594 447.910156 229.257812 521.449219 229.257812 611.839844 C 229.257812 702.234375 302.808594 775.773438 393.210938 775.773438 C 424.757812 775.773438 455.339844 766.808594 481.742188 749.84375 L 536.851562 579.558594 L 400.132812 448.054688 C 397.835938 447.960938 395.511719 447.910156 393.210938 447.910156 Z M 393.210938 447.910156 " fill-opacity="1" fill-rule="nonzero"/></g><path fill="#ffffff" d="M 484.894531 751.648438 L 483.375 669.972656 C 483.375 669.972656 437.441406 682.601562 416.832031 676.820312 C 400.898438 672.347656 399.574219 659.253906 401.710938 651.746094 C 403.078125 646.929688 402.125 646.699219 399.265625 644.378906 L 393.871094 640.003906 C 393.121094 639.390625 392.675781 638.449219 392.769531 637.484375 C 393.109375 633.929688 413.710938 625.597656 416.058594 623.289062 C 415.472656 620.050781 392.160156 615.191406 390.210938 610.097656 C 389.675781 608.703125 389.957031 607.121094 390.898438 605.964844 L 397.746094 600.367188 C 398.316406 599.671875 397.558594 592.242188 397.40625 593.128906 C 397.675781 591.578125 396.625 590.101562 395.066406 589.882812 C 389.484375 589.101562 382.039062 589.558594 377.121094 588.675781 C 375.730469 588.375 374.316406 587.613281 373.035156 586.519531 C 367.710938 581.984375 367.28125 573.875 371.632812 568.398438 L 396.375 537.25 C 397.691406 535.492188 398.421875 533.367188 398.46875 531.171875 L 398.46875 531.113281 C 398.535156 527.980469 391.1875 501.445312 391.886719 486.242188 C 392.597656 470.761719 396.339844 456.8125 401.710938 444.378906 C 490.378906 448.808594 560.90625 522.089844 560.90625 611.84375 C 560.90625 670.613281 530.664062 722.324219 484.890625 752.261719 Z M 484.894531 751.648438 " fill-opacity="1" fill-rule="nonzero"/><path fill="#3c3470" d="M 484.894531 756.003906 C 484.28125 756.003906 483.667969 755.855469 483.113281 755.554688 C 481.902344 754.898438 481.148438 753.636719 481.148438 752.261719 L 481.148438 751.683594 L 479.71875 674.785156 C 470.242188 677.136719 448.257812 682.066406 430.550781 682.066406 C 425.0625 682.066406 419.988281 681.59375 415.820312 680.421875 C 408.578125 678.390625 403.121094 674.410156 400.046875 668.910156 C 397.09375 663.632812 396.371094 656.832031 398.109375 650.722656 C 398.441406 649.546875 398.542969 648.9375 398.574219 648.640625 C 398.335938 648.425781 397.9375 648.109375 397.597656 647.839844 C 397.378906 647.667969 397.148438 647.484375 396.90625 647.285156 L 391.515625 642.910156 C 389.753906 641.480469 388.828125 639.316406 389.042969 637.125 C 389.417969 633.199219 394.339844 630.371094 406.328125 624.382812 C 407.046875 624.023438 407.839844 623.628906 408.625 623.230469 C 407.09375 622.632812 405.429688 622.027344 404.066406 621.527344 C 394.3125 617.972656 388.273438 615.515625 386.714844 611.433594 C 385.707031 608.804688 386.199219 605.800781 388 603.597656 C 388.160156 603.40625 388.335938 603.226562 388.53125 603.066406 L 394.214844 598.421875 C 394.195312 597.253906 394.058594 595.476562 393.929688 594.519531 C 393.796875 594.191406 393.710938 593.84375 393.675781 593.480469 C 391.394531 593.222656 388.738281 593.144531 386.164062 593.070312 C 382.636719 592.96875 379.304688 592.867188 376.460938 592.359375 C 376.417969 592.351562 376.375 592.34375 376.335938 592.332031 C 374.367188 591.910156 372.386719 590.886719 370.605469 589.371094 C 363.894531 583.648438 363.039062 573.199219 368.703125 566.070312 L 393.410156 534.964844 C 394.242188 533.835938 394.695312 532.5 394.726562 531.09375 L 394.726562 531.082031 C 394.675781 530.238281 393.929688 526.734375 393.269531 523.636719 C 391.164062 513.738281 387.636719 497.171875 388.148438 486.066406 C 388.824219 471.40625 392.230469 456.882812 398.277344 442.894531 C 398.898438 441.460938 400.339844 440.558594 401.902344 440.640625 C 445.847656 442.835938 486.816406 461.617188 517.269531 493.527344 C 547.824219 525.550781 564.648438 567.566406 564.648438 611.839844 C 564.648438 640.824219 557.28125 669.46875 543.339844 694.675781 C 529.832031 719.097656 510.332031 740.09375 486.941406 755.394531 C 486.320312 755.800781 485.609375 756.003906 484.894531 756.003906 Z M 483.375 666.230469 C 484.175781 666.230469 484.960938 666.488281 485.617188 666.976562 C 486.542969 667.667969 487.097656 668.75 487.117188 669.902344 L 488.519531 745.246094 C 531.628906 714.4375 557.160156 665.074219 557.160156 611.84375 C 557.160156 525.269531 490.160156 453.917969 404.140625 448.269531 C 399.085938 460.675781 396.222656 473.496094 395.628906 486.410156 C 395.160156 496.554688 398.5625 512.53125 400.59375 522.078125 C 401.765625 527.582031 402.242188 529.867188 402.214844 531.191406 L 402.210938 531.253906 C 402.148438 534.242188 401.167969 537.09375 399.375 539.492188 C 399.355469 539.519531 399.332031 539.546875 399.308594 539.578125 L 374.566406 570.726562 C 371.382812 574.730469 371.785156 580.539062 375.460938 583.671875 C 376.269531 584.359375 377.117188 584.828125 377.855469 585 C 380.144531 585.402344 383.175781 585.492188 386.382812 585.585938 C 389.496094 585.675781 392.71875 585.773438 395.585938 586.175781 C 397.34375 586.417969 398.890625 587.347656 399.9375 588.785156 C 400.734375 589.878906 401.167969 591.203125 401.191406 592.546875 C 401.34375 593.28125 401.492188 594.433594 401.617188 596.378906 C 401.855469 600.050781 401.628906 601.535156 400.648438 602.734375 C 400.488281 602.929688 400.3125 603.109375 400.117188 603.265625 L 393.707031 608.507812 C 393.691406 608.554688 393.683594 608.605469 393.6875 608.652344 C 395.128906 610.300781 402.585938 613.019531 406.628906 614.492188 C 414.929688 617.519531 419.09375 619.039062 419.742188 622.617188 C 419.964844 623.835938 419.570312 625.085938 418.6875 625.953125 C 417.457031 627.164062 414.894531 628.472656 409.671875 631.078125 C 406.324219 632.753906 399.925781 635.949219 397.234375 637.910156 L 401.625 641.46875 C 401.847656 641.652344 402.058594 641.820312 402.257812 641.976562 C 405.78125 644.777344 406.980469 646.894531 405.308594 652.769531 C 404.859375 654.359375 403.613281 659.949219 406.582031 665.253906 C 408.695312 669.03125 412.484375 671.710938 417.847656 673.214844 C 437.210938 678.648438 481.933594 666.488281 482.382812 666.363281 C 482.710938 666.273438 483.042969 666.230469 483.375 666.230469 Z M 393.71875 592.484375 C 393.71875 592.484375 393.71875 592.488281 393.714844 592.488281 C 393.71875 592.488281 393.71875 592.484375 393.71875 592.484375 Z M 393.71875 592.484375 " fill-opacity="1" fill-rule="nonzero"/><path fill="#3c3470" d="M 361.027344 667.308594 C 360.1875 667.308594 359.339844 667.027344 358.640625 666.449219 C 334.179688 646.207031 332.074219 620.113281 352.871094 594.851562 C 354.1875 593.253906 356.546875 593.027344 358.140625 594.339844 C 359.738281 595.65625 359.96875 598.015625 358.652344 599.609375 C 345.890625 615.113281 336.355469 638.292969 363.414062 660.679688 C 365.007812 662 365.230469 664.359375 363.914062 665.953125 C 363.171875 666.84375 362.105469 667.308594 361.027344 667.308594 Z M 361.027344 667.308594 " fill-opacity="1" fill-rule="nonzero"/><path fill="#3c3470" d="M 347.867188 683.351562 C 347.027344 683.351562 346.179688 683.070312 345.480469 682.492188 C 329.207031 669.027344 319.960938 652.289062 318.742188 634.082031 C 317.554688 616.34375 324.011719 598.359375 337.425781 582.070312 C 338.738281 580.472656 341.097656 580.246094 342.695312 581.558594 C 344.289062 582.875 344.519531 585.234375 343.207031 586.828125 C 318.199219 617.203125 320.964844 652.488281 350.257812 676.726562 C 351.847656 678.042969 352.070312 680.402344 350.753906 681.996094 C 350.011719 682.890625 348.945312 683.351562 347.867188 683.351562 Z M 347.867188 683.351562 " fill-opacity="1" fill-rule="nonzero"/><path fill="#3c3470" d="M 333.269531 698.839844 C 332.429688 698.839844 331.585938 698.558594 330.886719 697.980469 C 309.816406 680.550781 297.847656 658.902344 296.273438 635.378906 C 294.738281 612.445312 303.109375 589.164062 320.484375 568.058594 C 321.800781 566.460938 324.160156 566.234375 325.757812 567.546875 C 327.351562 568.863281 327.582031 571.21875 326.265625 572.816406 C 293.058594 613.152344 296.746094 660.015625 335.660156 692.210938 C 337.253906 693.53125 337.476562 695.890625 336.15625 697.484375 C 335.417969 698.378906 334.347656 698.839844 333.269531 698.839844 Z M 333.269531 698.839844 " fill-opacity="1" fill-rule="nonzero"/></svg>