<svg xmlns="http://www.w3.org/2000/svg" xmlns:xlink="http://www.w3.org/1999/xlink" width="1080" zoomAndPan="magnify" viewBox="0 0 810 809.999993" height="1080" preserveAspectRatio="xMidYMid meet" version="1.0"><defs><clipPath id="d9ad584424"><path d="M 28.335938 28.335938 L 288 28.335938 L 288 288 L 28.335938 288 Z M 28.335938 28.335938 " clip-rule="nonzero"/></clipPath><clipPath id="cd6e6a3606"><path d="M 522 28.335938 L 781.335938 28.335938 L 781.335938 264 L 522 264 Z M 522 28.335938 " clip-rule="nonzero"/></clipPath><clipPath id="669ee2feaa"><path d="M 569 569 L 781.335938 569 L 781.335938 781.335938 L 569 781.335938 Z M 569 569 " clip-rule="nonzero"/></clipPath><clipPath id="b6a263f5bb"><path d="M 28.335938 546 L 264 546 L 264 781.335938 L 28.335938 781.335938 Z M 28.335938 546 " clip-rule="nonzero"/></clipPath></defs><path fill="#ededee" d="M 605.101562 510.9375 L 605.101562 463.851562 C 605.101562 457.351562 599.835938 452.082031 593.332031 452.082031 L 558.019531 452.082031 L 558.019531 440.3125 L 593.332031 440.3125 C 599.835938 440.3125 605.101562 435.042969 605.101562 428.542969 L 605.101562 381.457031 C 605.101562 374.957031 599.835938 369.6875 593.332031 369.6875 L 558.019531 369.6875 L 558.019531 357.917969 L 593.332031 357.917969 C 599.835938 357.917969 605.101562 352.644531 605.101562 346.144531 L 605.101562 299.0625 C 605.101562 292.5625 599.835938 287.292969 593.332031 287.292969 L 558.019531 287.292969 C 558.019531 267.820312 542.179688 251.980469 522.707031 251.980469 L 522.707031 216.667969 C 522.707031 210.167969 517.441406 204.898438 510.9375 204.898438 L 463.851562 204.898438 C 457.347656 204.898438 452.082031 210.167969 452.082031 216.667969 L 452.082031 251.980469 L 440.3125 251.980469 L 440.3125 216.667969 C 440.3125 210.167969 435.046875 204.898438 428.542969 204.898438 L 381.457031 204.898438 C 374.953125 204.898438 369.6875 210.167969 369.6875 216.667969 L 369.6875 251.980469 L 357.917969 251.980469 L 357.917969 216.667969 C 357.917969 210.167969 352.652344 204.898438 346.144531 204.898438 L 299.0625 204.898438 C 292.558594 204.898438 287.292969 210.167969 287.292969 216.667969 L 287.292969 251.980469 C 267.820312 251.980469 251.980469 267.820312 251.980469 287.292969 L 216.667969 287.292969 C 210.160156 287.292969 204.898438 292.5625 204.898438 299.0625 L 204.898438 346.144531 C 204.898438 352.644531 210.160156 357.917969 216.667969 357.917969 L 251.980469 357.917969 L 251.980469 369.6875 L 216.667969 369.6875 C 210.160156 369.6875 204.898438 374.957031 204.898438 381.457031 L 204.898438 428.542969 C 204.898438 435.042969 210.160156 440.3125 216.667969 440.3125 L 251.980469 440.3125 L 251.980469 452.082031 L 216.667969 452.082031 C 210.160156 452.082031 204.898438 457.351562 204.898438 463.851562 L 204.898438 510.9375 C 204.898438 517.4375 210.160156 522.707031 216.667969 522.707031 L 251.980469 522.707031 C 251.980469 542.179688 267.820312 558.019531 287.292969 558.019531 L 287.292969 593.332031 C 287.292969 599.832031 292.558594 605.101562 299.0625 605.101562 L 346.144531 605.101562 C 352.652344 605.101562 357.917969 599.832031 357.917969 593.332031 L 357.917969 558.019531 L 369.6875 558.019531 L 369.6875 593.332031 C 369.6875 599.832031 374.953125 605.101562 381.457031 605.101562 L 428.542969 605.101562 C 435.046875 605.101562 440.3125 599.832031 440.3125 593.332031 L 440.3125 558.019531 L 452.082031 558.019531 L 452.082031 593.332031 C 452.082031 599.832031 457.347656 605.101562 463.851562 605.101562 L 510.9375 605.101562 C 517.441406 605.101562 522.707031 599.832031 522.707031 593.332031 L 522.707031 558.019531 C 542.179688 558.019531 558.019531 542.179688 558.019531 522.707031 L 593.332031 522.707031 C 599.835938 522.707031 605.101562 517.4375 605.101562 510.9375 Z M 581.5625 393.230469 L 581.5625 416.769531 L 558.019531 416.769531 L 558.019531 393.230469 Z M 581.5625 310.832031 L 581.5625 334.375 L 558.019531 334.375 L 558.019531 310.832031 Z M 475.625 228.4375 L 499.164062 228.4375 L 499.164062 251.980469 L 475.625 251.980469 Z M 393.230469 228.4375 L 416.769531 228.4375 L 416.769531 251.980469 L 393.230469 251.980469 Z M 310.832031 228.4375 L 334.375 228.4375 L 334.375 251.980469 L 310.832031 251.980469 Z M 228.4375 334.375 L 228.4375 310.832031 L 251.980469 310.832031 L 251.980469 334.375 Z M 228.4375 416.769531 L 228.4375 393.230469 L 251.980469 393.230469 L 251.980469 416.769531 Z M 228.4375 499.164062 L 228.4375 475.625 L 251.980469 475.625 L 251.980469 499.164062 Z M 334.375 581.5625 L 310.832031 581.5625 L 310.832031 558.019531 L 334.375 558.019531 Z M 416.769531 581.5625 L 393.230469 581.5625 L 393.230469 558.019531 L 416.769531 558.019531 Z M 499.164062 581.5625 L 475.625 581.5625 L 475.625 558.019531 L 499.164062 558.019531 Z M 534.476562 522.707031 C 534.476562 529.195312 529.203125 534.476562 522.707031 534.476562 L 287.292969 534.476562 C 280.796875 534.476562 275.519531 529.195312 275.519531 522.707031 L 275.519531 287.292969 C 275.519531 280.804688 280.796875 275.519531 287.292969 275.519531 L 522.707031 275.519531 C 529.203125 275.519531 534.476562 280.804688 534.476562 287.292969 Z M 581.5625 499.164062 L 558.019531 499.164062 L 558.019531 475.625 L 581.5625 475.625 Z M 581.5625 499.164062 " fill-opacity="1" fill-rule="nonzero"/><path fill="#ededee" d="M 357.917969 357.917969 C 351.410156 357.917969 346.144531 363.1875 346.144531 369.6875 L 346.144531 401.4375 L 320.628906 363.160156 C 317.765625 358.84375 312.386719 356.90625 307.417969 358.421875 C 302.453125 359.921875 299.0625 364.503906 299.0625 369.6875 L 299.0625 440.3125 C 299.0625 446.8125 304.328125 452.082031 310.832031 452.082031 C 317.339844 452.082031 322.605469 446.8125 322.605469 440.3125 L 322.605469 408.5625 L 348.121094 446.839844 C 350.339844 450.175781 354.054688 452.082031 357.917969 452.082031 C 359.054688 452.082031 360.203125 451.921875 361.332031 451.578125 C 366.296875 450.078125 369.6875 445.496094 369.6875 440.3125 L 369.6875 369.6875 C 369.6875 363.1875 364.421875 357.917969 357.917969 357.917969 Z M 357.917969 357.917969 " fill-opacity="1" fill-rule="nonzero"/><path fill="#ededee" d="M 428.542969 428.542969 L 405 428.542969 L 405 369.6875 C 405 363.1875 399.734375 357.917969 393.230469 357.917969 C 386.722656 357.917969 381.457031 363.1875 381.457031 369.6875 L 381.457031 440.3125 C 381.457031 446.8125 386.722656 452.082031 393.230469 452.082031 L 428.542969 452.082031 C 435.046875 452.082031 440.3125 446.8125 440.3125 440.3125 C 440.3125 433.8125 435.046875 428.542969 428.542969 428.542969 Z M 428.542969 428.542969 " fill-opacity="1" fill-rule="nonzero"/><path fill="#ededee" d="M 475.625 357.917969 L 463.851562 357.917969 C 457.347656 357.917969 452.082031 363.1875 452.082031 369.6875 L 452.082031 440.3125 C 452.082031 446.8125 457.347656 452.082031 463.851562 452.082031 C 470.359375 452.082031 475.625 446.8125 475.625 440.3125 L 475.625 428.542969 C 495.097656 428.542969 510.9375 412.703125 510.9375 393.230469 C 510.9375 373.757812 495.097656 357.917969 475.625 357.917969 Z M 475.625 405 L 475.625 381.457031 C 482.117188 381.457031 487.394531 386.738281 487.394531 393.230469 C 487.394531 399.71875 482.117188 405 475.625 405 Z M 475.625 405 " fill-opacity="1" fill-rule="nonzero"/><g clip-path="url(#d9ad584424)"><path fill="#ededee" d="M 38.648438 193.035156 L 64.867188 196.308594 L 48.648438 217.171875 C 45.003906 221.859375 45.417969 228.523438 49.613281 232.71875 L 82.902344 266.015625 C 87.109375 270.214844 93.777344 270.617188 98.453125 266.988281 L 119.316406 250.761719 L 122.59375 276.980469 C 123.328125 282.871094 128.339844 287.292969 134.273438 287.292969 L 181.355469 287.292969 C 187.285156 287.292969 192.296875 282.871094 193.035156 276.980469 L 196.308594 250.761719 L 217.171875 266.988281 C 221.863281 270.617188 228.519531 270.214844 232.726562 266.015625 L 266.015625 232.71875 C 270.210938 228.523438 270.625 221.859375 266.980469 217.171875 L 250.761719 196.308594 L 276.980469 193.035156 C 282.867188 192.296875 287.292969 187.292969 287.292969 181.355469 L 287.292969 134.273438 C 287.292969 128.335938 282.867188 123.328125 276.980469 122.59375 L 250.761719 119.316406 L 266.980469 98.453125 C 270.625 93.769531 270.210938 87.101562 266.015625 82.90625 L 232.726562 49.613281 C 228.519531 45.410156 221.863281 45.007812 217.171875 48.640625 L 196.308594 64.867188 L 193.035156 38.648438 C 192.296875 32.753906 187.285156 28.335938 181.355469 28.335938 L 134.273438 28.335938 C 128.339844 28.335938 123.328125 32.753906 122.59375 38.648438 L 119.316406 64.867188 L 98.453125 48.640625 C 93.777344 45.007812 87.109375 45.410156 82.902344 49.613281 L 49.613281 82.90625 C 45.417969 87.101562 45.003906 93.769531 48.648438 98.453125 L 64.867188 119.316406 L 38.648438 122.59375 C 32.761719 123.328125 28.335938 128.335938 28.335938 134.273438 L 28.335938 181.355469 C 28.335938 187.292969 32.761719 192.296875 38.648438 193.035156 Z M 51.878906 144.664062 L 82.085938 140.886719 C 86.441406 140.339844 90.132812 137.417969 91.660156 133.300781 C 92.28125 131.621094 92.949219 129.96875 93.695312 128.359375 C 95.523438 124.371094 94.984375 119.691406 92.28125 116.226562 L 73.601562 92.207031 L 92.199219 73.609375 L 116.226562 92.292969 C 119.695312 94.988281 124.410156 95.546875 128.398438 93.679688 C 129.996094 92.941406 131.628906 92.28125 133.296875 91.660156 C 137.410156 90.136719 140.339844 86.441406 140.882812 82.085938 L 144.664062 51.878906 L 170.964844 51.878906 L 174.746094 82.085938 C 175.285156 86.441406 178.21875 90.136719 182.332031 91.660156 C 184 92.28125 185.632812 92.941406 187.230469 93.679688 C 191.21875 95.546875 195.917969 94.988281 199.402344 92.292969 L 223.425781 73.609375 L 242.023438 92.207031 L 223.347656 116.226562 C 220.644531 119.691406 220.105469 124.371094 221.933594 128.359375 C 222.679688 129.96875 223.347656 131.621094 223.96875 133.300781 C 225.496094 137.417969 229.1875 140.339844 233.542969 140.886719 L 263.75 144.664062 L 263.75 170.964844 L 233.542969 174.738281 C 229.1875 175.285156 225.496094 178.210938 223.96875 182.328125 C 223.347656 184.003906 222.679688 185.660156 221.933594 187.269531 C 220.105469 191.257812 220.644531 195.9375 223.347656 199.402344 L 242.023438 223.421875 L 223.425781 242.019531 L 199.402344 223.335938 C 195.917969 220.632812 191.21875 220.09375 187.230469 221.949219 C 185.632812 222.683594 184 223.347656 182.332031 223.96875 C 178.21875 225.488281 175.285156 229.1875 174.746094 233.542969 L 170.964844 263.75 L 144.664062 263.75 L 140.882812 233.542969 C 140.339844 229.1875 137.410156 225.488281 133.296875 223.96875 C 131.628906 223.347656 129.996094 222.683594 128.398438 221.949219 C 124.410156 220.09375 119.695312 220.632812 116.226562 223.335938 L 92.199219 242.019531 L 73.601562 223.421875 L 92.28125 199.402344 C 94.984375 195.9375 95.523438 191.257812 93.695312 187.269531 C 92.949219 185.660156 92.28125 184.003906 91.660156 182.328125 C 90.132812 178.210938 86.441406 175.285156 82.085938 174.738281 L 51.878906 170.964844 Z M 51.878906 144.664062 " fill-opacity="1" fill-rule="nonzero"/></g><path fill="#ededee" d="M 157.8125 216.667969 C 190.265625 216.667969 216.667969 190.265625 216.667969 157.8125 C 216.667969 125.363281 190.265625 98.960938 157.8125 98.960938 C 125.363281 98.960938 98.960938 125.363281 98.960938 157.8125 C 98.960938 190.265625 125.363281 216.667969 157.8125 216.667969 Z M 157.8125 122.5 C 177.285156 122.5 193.125 138.339844 193.125 157.8125 C 193.125 177.285156 177.285156 193.125 157.8125 193.125 C 138.339844 193.125 122.5 177.285156 122.5 157.8125 C 122.5 138.339844 138.339844 122.5 157.8125 122.5 Z M 157.8125 122.5 " fill-opacity="1" fill-rule="nonzero"/><g clip-path="url(#cd6e6a3606)"><path fill="#ededee" d="M 573.445312 218.351562 L 559.261719 246.714844 C 557.078125 251.082031 557.824219 256.355469 561.121094 259.953125 C 563.398438 262.421875 566.558594 263.75 569.789062 263.75 C 571.261719 263.75 572.746094 263.476562 574.160156 262.910156 L 633.804688 239.054688 C 640.289062 239.828125 646.324219 240.210938 652.183594 240.210938 C 723.582031 240.210938 781.664062 192.683594 781.664062 134.273438 C 781.664062 75.859375 723.582031 28.335938 652.183594 28.335938 C 580.789062 28.335938 522.707031 75.859375 522.707031 134.273438 C 522.707031 167.636719 541.464844 198.386719 573.445312 218.351562 Z M 652.183594 51.878906 C 710.601562 51.878906 758.121094 88.839844 758.121094 134.273438 C 758.121094 179.707031 710.601562 216.667969 652.183594 216.667969 C 646.472656 216.667969 640.472656 216.230469 633.851562 215.328125 C 631.816406 215.03125 629.78125 215.300781 627.898438 216.058594 L 594.171875 229.554688 L 599.503906 218.886719 C 602.390625 213.109375 600.078125 206.082031 594.332031 203.136719 C 564.226562 187.757812 546.25 162.015625 546.25 134.273438 C 546.25 88.839844 593.769531 51.878906 652.183594 51.878906 Z M 652.183594 51.878906 " fill-opacity="1" fill-rule="nonzero"/></g><g clip-path="url(#669ee2feaa)"><path fill="#ededee" d="M 769.894531 758.121094 L 593.332031 758.121094 L 593.332031 581.5625 C 593.332031 575.0625 588.066406 569.789062 581.5625 569.789062 C 575.054688 569.789062 569.789062 575.0625 569.789062 581.5625 L 569.789062 769.894531 C 569.789062 776.394531 575.054688 781.664062 581.5625 781.664062 L 769.894531 781.664062 C 776.398438 781.664062 781.664062 776.394531 781.664062 769.894531 C 781.664062 763.394531 776.398438 758.121094 769.894531 758.121094 Z M 769.894531 758.121094 " fill-opacity="1" fill-rule="nonzero"/></g><path fill="#ededee" d="M 746.351562 687.496094 C 752.859375 687.496094 758.121094 682.226562 758.121094 675.726562 L 758.121094 640.414062 C 758.121094 638.882812 757.808594 637.355469 757.214844 635.917969 C 756.023438 633.039062 753.730469 630.746094 750.847656 629.550781 C 749.410156 628.957031 747.882812 628.644531 746.351562 628.644531 L 711.039062 628.644531 C 704.53125 628.644531 699.269531 633.914062 699.269531 640.414062 C 699.269531 646.914062 704.53125 652.183594 711.039062 652.183594 L 717.933594 652.183594 L 696.085938 674.03125 L 667.679688 664.558594 C 663.4375 663.132812 658.785156 664.253906 655.632812 667.40625 L 620.320312 702.71875 C 615.722656 707.316406 615.722656 714.761719 620.320312 719.363281 C 622.621094 721.660156 625.632812 722.808594 628.644531 722.808594 C 631.65625 722.808594 634.667969 721.660156 636.964844 719.363281 L 667.140625 689.191406 L 695.542969 698.664062 C 699.785156 700.074219 704.441406 698.964844 707.589844 695.820312 L 734.582031 668.828125 L 734.582031 675.726562 C 734.582031 682.226562 739.84375 687.496094 746.351562 687.496094 Z M 746.351562 687.496094 " fill-opacity="1" fill-rule="nonzero"/><path fill="#ededee" d="M 612.734375 180.609375 C 618.816406 182.851562 625.609375 179.808594 627.898438 173.71875 L 633.859375 157.8125 L 670.511719 157.8125 L 676.472656 173.71875 C 678.246094 178.441406 682.738281 181.359375 687.496094 181.359375 C 688.878906 181.359375 690.269531 181.113281 691.636719 180.609375 C 697.714844 178.320312 700.796875 171.539062 698.519531 165.453125 L 663.210938 71.285156 C 661.484375 66.695312 657.09375 63.648438 652.183594 63.648438 C 647.277344 63.648438 642.886719 66.695312 641.160156 71.285156 L 605.847656 165.453125 C 603.574219 171.539062 606.652344 178.320312 612.734375 180.609375 Z M 652.183594 108.945312 L 661.683594 134.273438 L 642.6875 134.273438 Z M 652.183594 108.945312 " fill-opacity="1" fill-rule="nonzero"/><g clip-path="url(#b6a263f5bb)"><path fill="#ededee" d="M 146.042969 546.25 C 81.144531 546.25 28.335938 599.050781 28.335938 663.957031 C 28.335938 728.863281 81.144531 781.664062 146.042969 781.664062 C 210.941406 781.664062 263.75 728.863281 263.75 663.957031 C 263.75 599.050781 210.941406 546.25 146.042969 546.25 Z M 227.605469 617.101562 C 222.507812 618.648438 217.367188 620.125 211.988281 621.359375 C 209.066406 608.488281 204.875 596.769531 199.613281 586.609375 C 211.054688 594.5625 220.621094 604.988281 227.605469 617.101562 Z M 240.210938 663.957031 C 240.210938 672.632812 238.933594 681 236.726562 688.980469 C 229.917969 686.847656 222.925781 684.9375 215.671875 683.3125 C 216.273438 677.015625 216.667969 670.582031 216.667969 663.957031 C 216.667969 657.332031 216.273438 650.898438 215.671875 644.597656 C 222.925781 642.976562 229.917969 641.066406 236.726562 638.933594 C 238.933594 646.914062 240.210938 655.28125 240.210938 663.957031 Z M 51.878906 663.957031 C 51.878906 655.28125 53.152344 646.914062 55.359375 638.933594 C 62.167969 641.066406 69.160156 642.976562 76.414062 644.597656 C 75.8125 650.898438 75.417969 657.332031 75.417969 663.957031 C 75.417969 670.582031 75.8125 677.015625 76.414062 683.3125 C 69.160156 684.9375 62.167969 686.847656 55.359375 688.980469 C 53.152344 681 51.878906 672.632812 51.878906 663.957031 Z M 98.960938 663.957031 C 98.960938 658.742188 99.246094 653.734375 99.660156 648.835938 C 110.90625 650.421875 122.492188 651.335938 134.273438 651.738281 L 134.273438 676.175781 C 122.492188 676.578125 110.90625 677.492188 99.660156 679.074219 C 99.246094 674.179688 98.960938 669.167969 98.960938 663.957031 Z M 157.8125 573.289062 C 170.609375 580.664062 182.664062 599.429688 188.835938 625.585938 C 178.769531 626.992188 168.386719 627.816406 157.8125 628.203125 Z M 134.273438 573.289062 L 134.273438 628.203125 C 123.699219 627.816406 113.320312 626.992188 103.25 625.585938 C 109.421875 599.429688 121.480469 580.664062 134.273438 573.289062 Z M 134.273438 699.710938 L 134.273438 754.621094 C 121.480469 747.25 109.421875 728.484375 103.25 702.324219 C 113.320312 700.917969 123.699219 700.097656 134.273438 699.710938 Z M 157.8125 754.621094 L 157.8125 699.710938 C 168.386719 700.097656 178.769531 700.917969 188.835938 702.324219 C 182.664062 728.484375 170.609375 747.25 157.8125 754.621094 Z M 157.8125 676.175781 L 157.8125 651.738281 C 169.59375 651.335938 181.179688 650.421875 192.425781 648.835938 C 192.839844 653.734375 193.125 658.742188 193.125 663.957031 C 193.125 669.167969 192.839844 674.179688 192.425781 679.074219 C 181.179688 677.492188 169.59375 676.578125 157.8125 676.175781 Z M 92.472656 586.609375 C 87.210938 596.769531 83.019531 608.488281 80.101562 621.359375 C 74.71875 620.125 69.578125 618.648438 64.480469 617.101562 C 71.464844 604.988281 81.03125 594.5625 92.472656 586.609375 Z M 64.480469 710.808594 C 69.578125 709.265625 74.722656 707.789062 80.101562 706.550781 C 83.019531 719.425781 87.210938 731.140625 92.472656 741.300781 C 81.03125 733.351562 71.464844 722.921875 64.480469 710.808594 Z M 199.613281 741.300781 C 204.875 731.140625 209.066406 719.425781 211.984375 706.550781 C 217.367188 707.789062 222.507812 709.265625 227.605469 710.808594 C 220.621094 722.921875 211.054688 733.351562 199.613281 741.300781 Z M 199.613281 741.300781 " fill-opacity="1" fill-rule="nonzero"/></g><path fill="#ededee" d="M 322.605469 98.960938 L 346.144531 98.960938 L 346.144531 122.5 L 322.605469 122.5 Z M 322.605469 98.960938 " fill-opacity="1" fill-rule="nonzero"/><path fill="#ededee" d="M 369.6875 98.960938 L 393.230469 98.960938 L 393.230469 122.5 L 369.6875 122.5 Z M 369.6875 98.960938 " fill-opacity="1" fill-rule="nonzero"/><path fill="#ededee" d="M 416.769531 98.960938 L 440.3125 98.960938 L 440.3125 122.5 L 416.769531 122.5 Z M 416.769531 98.960938 " fill-opacity="1" fill-rule="nonzero"/><path fill="#ededee" d="M 463.851562 98.960938 L 487.394531 98.960938 L 487.394531 122.5 L 463.851562 122.5 Z M 463.851562 98.960938 " fill-opacity="1" fill-rule="nonzero"/><path fill="#ededee" d="M 322.605469 687.496094 L 346.144531 687.496094 L 346.144531 711.039062 L 322.605469 711.039062 Z M 322.605469 687.496094 " fill-opacity="1" fill-rule="nonzero"/><path fill="#ededee" d="M 369.6875 687.496094 L 393.230469 687.496094 L 393.230469 711.039062 L 369.6875 711.039062 Z M 369.6875 687.496094 " fill-opacity="1" fill-rule="nonzero"/><path fill="#ededee" d="M 416.769531 687.496094 L 440.3125 687.496094 L 440.3125 711.039062 L 416.769531 711.039062 Z M 416.769531 687.496094 " fill-opacity="1" fill-rule="nonzero"/><path fill="#ededee" d="M 463.851562 687.496094 L 487.394531 687.496094 L 487.394531 711.039062 L 463.851562 711.039062 Z M 463.851562 687.496094 " fill-opacity="1" fill-rule="nonzero"/><path fill="#ededee" d="M 687.496094 322.605469 L 711.039062 322.605469 L 711.039062 346.144531 L 687.496094 346.144531 Z M 687.496094 322.605469 " fill-opacity="1" fill-rule="nonzero"/><path fill="#ededee" d="M 687.496094 369.6875 L 711.039062 369.6875 L 711.039062 393.230469 L 687.496094 393.230469 Z M 687.496094 369.6875 " fill-opacity="1" fill-rule="nonzero"/><path fill="#ededee" d="M 687.496094 416.769531 L 711.039062 416.769531 L 711.039062 440.3125 L 687.496094 440.3125 Z M 687.496094 416.769531 " fill-opacity="1" fill-rule="nonzero"/><path fill="#ededee" d="M 687.496094 463.851562 L 711.039062 463.851562 L 711.039062 487.394531 L 687.496094 487.394531 Z M 687.496094 463.851562 " fill-opacity="1" fill-rule="nonzero"/><path fill="#ededee" d="M 98.960938 322.605469 L 122.5 322.605469 L 122.5 346.144531 L 98.960938 346.144531 Z M 98.960938 322.605469 " fill-opacity="1" fill-rule="nonzero"/><path fill="#ededee" d="M 98.960938 369.6875 L 122.5 369.6875 L 122.5 393.230469 L 98.960938 393.230469 Z M 98.960938 369.6875 " fill-opacity="1" fill-rule="nonzero"/><path fill="#ededee" d="M 98.960938 416.769531 L 122.5 416.769531 L 122.5 440.3125 L 98.960938 440.3125 Z M 98.960938 416.769531 " fill-opacity="1" fill-rule="nonzero"/><path fill="#ededee" d="M 98.960938 463.851562 L 122.5 463.851562 L 122.5 487.394531 L 98.960938 487.394531 Z M 98.960938 463.851562 " fill-opacity="1" fill-rule="nonzero"/></svg>