<svg width="262.5" height="262.500001" xmlns="http://www.w3.org/2000/svg" version="1.0" preserveAspectRatio="xMidYMid meet" zoomAndPan="magnify">
 <defs>
  <clipPath id="d21d302e13">
   <path id="svg_1" clip-rule="nonzero" d="m2.23047,8.68359l258,0l0,245.25l-258,0l0,-245.25zm0,0"/>
  </clipPath>
 </defs>
 <g>
  <title>Layer 1</title>
  <g id="svg_2" clip-path="url(#d21d302e13)">
   <path id="svg_3" fill-rule="nonzero" d="m128.66016,84.95703c-0.41407,-0.67187 -0.98047,-1.13672 -1.70313,-1.44531l-46.69922,-27.00391l0,-46.26172c0.05078,-1.96484 -1.54687,-3.5625 -3.45703,-3.5625c-0.05078,0 -0.05078,0 -0.10156,0c-1.96094,0.05079 -3.51172,1.65235 -3.45703,3.5625l0,47.75782c-0.15625,0.8789 0.05078,1.70312 0.51562,2.42578c0.41016,0.67187 0.98047,1.13672 1.70313,1.44531l46.74609,27.00391l0,10.42968l-58.82422,-33.97265l0,-38.10547c0.05469,-1.96094 -1.54687,-3.5625 -3.45703,-3.5625c-0.05078,0 -0.05078,0 -0.10156,0c-1.96094,0.05078 -3.50781,1.65234 -3.45703,3.5625l0,39.60156c-0.15625,0.82813 0.05078,1.70313 0.51562,2.42578c0.41407,0.67188 0.98047,1.13672 1.70313,1.44922l63.67578,36.8125l0,140.28125c0,0.05078 0,0.05078 0,0.10547c0,1.96094 1.64844,3.50781 3.55859,3.50781c1.96094,0 3.50782,-1.65234 3.50782,-3.5625l0,-141.83203c0.05468,-0.35937 0.05468,-0.72265 0,-1.08203l0,-17.45312c0,-0.875 -0.20704,-1.80469 -0.66797,-2.52735zm-16.41016,78.06641l0,-16.47266c0.10156,-0.82422 -0.05078,-1.70312 -0.51562,-2.42578c-0.41407,-0.67187 -1.03125,-1.1875 -1.75391,-1.49609l-48.45313,-27.98438c-0.5664,-0.36328 -1.23828,-0.51562 -1.91015,-0.51562c-1.23828,0.05078 -2.3711,0.72265 -2.99219,1.80468c-0.92969,1.70313 -0.35937,3.875 1.33984,4.80079l47.16407,27.26171l0,9.34766l-75.75,-43.73437l0,-52.45704c0.05468,-1.96093 -1.54688,-3.5625 -3.45703,-3.5625c-0.05079,0 -0.05079,0 -0.10157,0c-1.96093,0.05079 -3.50781,1.65235 -3.45703,3.5625l0,53.95704c-0.15625,0.875 0.05078,1.70312 0.51563,2.42578c0.41406,0.67187 0.98047,1.13672 1.70312,1.44531l80.64844,46.57031l0,8.83203l-92.87891,-53.64453l0,-42.4414c0.05078,-1.96485 -1.54687,-3.5625 -3.45703,-3.5625c-0.05078,0 -0.05078,0 -0.10156,0c-1.96094,0.05078 -3.50781,1.65234 -3.45703,3.5625l0,43.9375c-0.05078,0.35937 -0.05078,0.77343 0,1.13671c0.10156,1.75391 1.44531,3.14844 3.19922,3.30469l96.75,55.91406l0,46.26172l-27.60547,15.95703c0,0 -0.05469,0 -0.05469,0.05079c-1.70312,0.98046 -2.21875,3.14843 -1.23828,4.85156c0.98047,1.70312 3.14844,2.22265 4.85156,1.23828l28.89453,-16.67578c0.41407,-0.15235 0.82813,-0.41406 1.13672,-0.72266c0,0 0,0 0.05078,0c0,0 0.05078,-0.05078 0.05078,-0.10156c0.57032,-0.57031 0.92969,-1.34375 1.03516,-2.16797c0,0 0,-0.05469 0,-0.05469c0,-0.10156 0,-0.15234 0,-0.25781c0,-0.05078 0,-0.15234 0,-0.20703c0,-0.05078 0,-0.05078 0,-0.10156c0,-0.05078 0,-0.15625 -0.05469,-0.20703l0,-49.20313c0.05469,-0.36328 0.05469,-0.72266 0,-1.08594l0,-15.90234c-0.05078,-0.51563 -0.05078,-0.87891 -0.10156,-1.23828zm150.87891,-40.83985l0,-43.9414c0.05078,-1.96094 -1.55078,-3.5625 -3.45703,-3.5625c-0.05469,0 -0.05469,0 -0.10547,0c-1.96094,0.05469 -3.50782,1.65234 -3.45703,3.5625l0,42.4414l-92.87891,53.64454l0,-8.82813l80.65234,-46.57031c0.71875,-0.25781 1.28907,-0.77344 1.69922,-1.44531c0.46485,-0.72266 0.67188,-1.60157 0.51953,-2.42579l0,-53.90625c0.05078,-1.96093 -1.55078,-3.5625 -3.45703,-3.5625c-0.05469,0 -0.05469,0 -0.10547,0c-1.96093,0.05079 -3.50781,1.65235 -3.45703,3.5625l0,52.45704l-75.80078,43.78515l0,-9.34375l47.16406,-27.26172c1.70313,-0.92968 2.32032,-3.09765 1.33985,-4.80468c-0.61719,-1.08204 -1.75391,-1.75391 -2.99219,-1.80469c-0.67188,0 -1.33984,0.15625 -1.91016,0.51562l-48.45312,27.98438c-0.71875,0.30859 -1.33985,0.82422 -1.75391,1.49609c-0.46484,0.72266 -0.61719,1.55078 -0.51562,2.42969l0,16.46875c-0.05078,0.36328 -0.05078,0.72266 0,1.08594l0,15.90234c-0.05078,0.35938 -0.05078,0.72266 0,1.08203l0,49.20703c0,0.05078 0,0.15235 -0.05078,0.20703c0,0.05079 0,0.05079 0,0.10157c0,0.05078 0,0.15625 0,0.20703c0,0.10156 0,0.15234 0,0.25781c0,0 0,0.05078 0,0.05078c0.05078,0.82813 0.41406,1.60156 1.03125,2.16797c0,0.05078 0.05078,0.05078 0.05078,0.10547c0,0 0,0 0.05468,0c0.3086,0.30859 0.72266,0.56641 1.13282,0.72266l28.89843,16.67578c1.70313,0.98047 3.86719,0.41406 4.84766,-1.23828c0.98047,-1.70313 0.41406,-3.8711 -1.23828,-4.85547c0,0 -0.05078,0 -0.05078,-0.05078l-27.60547,-15.95313l0,-46.26172l96.75,-55.91797c1.75391,-0.15625 3.09375,-1.60156 3.19922,-3.30468c0,-0.3086 0,-0.72266 -0.05078,-1.08204zm-51.4961,-52.92578c0.46094,-0.72265 0.66797,-1.59765 0.51563,-2.42578l0,-39.60156c0.05078,-1.96094 -1.55078,-3.5625 -3.45703,-3.5625c-0.05469,0 -0.05469,0 -0.10547,0c-1.96094,0.05078 -3.50781,1.65234 -3.45703,3.5625l0,38.10547l-58.82422,33.97265l0,-10.42968l46.75,-27.00391c0.72265,-0.25781 1.28906,-0.77344 1.70312,-1.44531c0.46485,-0.72266 0.67188,-1.60156 0.51563,-2.42578l0,-47.75782c0.05078,-1.96484 -1.54688,-3.5625 -3.45703,-3.5625c-0.05078,0 -0.05078,0 -0.10157,0c-1.96093,0.05079 -3.51171,1.65235 -3.45703,3.5625l0,46.26172l-46.85547,27.00391c-0.72265,0.25781 -1.28906,0.77344 -1.70312,1.44531c-0.51563,0.77344 -0.66797,1.65235 -0.51563,2.52735l0,17.45312c-0.05078,0.35938 -0.05078,0.72266 0,1.08203l0,141.78125c0,1.96094 1.55079,3.5625 3.51172,3.5625c1.96094,0 3.5586,-1.54687 3.5586,-3.51172c0,-0.05078 0,-0.05078 0,-0.10156l0,-140.23047l63.67578,-36.8125c0.72265,-0.3125 1.28906,-0.77734 1.70312,-1.44922zm0,0" fill="#ededee"/>
  </g>
  <path id="svg_4" d="m25.75,77.25" opacity="NaN" stroke="#000" fill="#ffffff"/>
 </g>
</svg>